<?xml version="1.0" standalone="no"?><!DOCTYPE svg PUBLIC "-//W3C//DTD SVG 1.1//EN" "http://www.w3.org/Graphics/SVG/1.1/DTD/svg11.dtd"><svg t="1778022857951" class="icon" viewBox="0 0 1024 1024" version="1.1" xmlns="http://www.w3.org/2000/svg" p-id="2192" xmlns:xlink="http://www.w3.org/1999/xlink" width="200" height="200"><path d="M0 906.130286v-66.505143C0 375.917714 375.917714 0 839.606857 0h66.505143A117.869714 117.869714 0 0 1 1024 117.869714v66.505143C1024 648.082286 648.082286 1024 184.393143 1024H117.869714A117.869714 117.869714 0 0 1 0 906.130286z" fill="#D25627" p-id="2193"></path><path d="M1024 184.374857V117.869714a117.211429 117.211429 0 0 0-22.729143-69.376C497.462857 196.516571 250.441143 353.371429 65.810286 1011.766857c15.725714 7.753143 33.353143 12.233143 52.059428 12.233143h66.505143C648.100571 1024 1024 648.100571 1024 184.374857z" fill="#964229" p-id="2194"></path><path d="M689.499429 261.357714l-128-128a18.267429 18.267429 0 1 0-25.856 25.856l128 128a18.230857 18.230857 0 0 0 25.856 0 18.267429 18.267429 0 0 0 0-25.856zM104.356571 663.643429a18.267429 18.267429 0 1 0-25.856 25.856l128 128a18.230857 18.230857 0 0 0 25.856 0 18.267429 18.267429 0 0 0 0-25.856l-128-128zM360.356571 261.357714a18.267429 18.267429 0 1 0-25.856 25.856l128 128a18.230857 18.230857 0 0 0 25.856 0 18.267429 18.267429 0 0 0 0-25.856l-128-128zM159.213714 553.929143a18.267429 18.267429 0 1 0-25.856 25.856l128 128a18.230857 18.230857 0 0 0 25.856 0 18.267429 18.267429 0 0 0 0-25.856l-128-128zM287.213714 352.786286a18.267429 18.267429 0 1 0-25.856 25.856l128 128a18.230857 18.230857 0 0 0 25.856 0 18.267429 18.267429 0 0 0 0-25.856l-128-128zM451.785143 188.214857a18.267429 18.267429 0 1 0-25.856 25.856l128 128a18.230857 18.230857 0 0 0 25.856 0 18.267429 18.267429 0 0 0 0-25.856l-128-128zM214.070857 444.214857a18.267429 18.267429 0 1 0-25.856 25.856l128 128a18.230857 18.230857 0 0 0 25.856 0 18.267429 18.267429 0 0 0 0-25.856l-128-128z" fill="#ECF0F1" p-id="2195"></path></svg>