<?xml version="1.0" standalone="no"?><!DOCTYPE svg PUBLIC "-//W3C//DTD SVG 1.1//EN" "http://www.w3.org/Graphics/SVG/1.1/DTD/svg11.dtd"><svg t="1778022866604" class="icon" viewBox="0 0 1024 1024" version="1.1" xmlns="http://www.w3.org/2000/svg" p-id="2353" xmlns:xlink="http://www.w3.org/1999/xlink" width="200" height="200"><path d="M512 512m-512 0a512 512 0 1 0 1024 0 512 512 0 1 0-1024 0Z" fill="#E6E6E6" p-id="2354"></path><path d="M1024 512a509.860571 509.860571 0 0 0-128-338.468571 513.517714 513.517714 0 0 0-79.853714 121.910857l49.060571 16.347428a18.285714 18.285714 0 0 1-11.556571 34.688l-51.949715-17.316571a509.257143 509.257143 0 0 0-19.913142 64.457143l61.933714 8.850285a18.285714 18.285714 0 1 1-5.174857 36.205715l-63.798857-9.106286a514.176 514.176 0 0 0-6.326858 64.164571H822.857143a18.285714 18.285714 0 1 1 0 36.571429h-54.436572c0.768 21.76 2.925714 43.172571 6.326858 64.164571l63.798857-9.106285a18.285714 18.285714 0 0 1 5.174857 36.187428l-61.933714 8.850286A507.209143 507.209143 0 0 0 801.700571 694.857143l51.949715-17.316572a18.267429 18.267429 0 1 1 11.574857 34.688l-49.060572 16.347429a513.152 513.152 0 0 0 79.853715 121.910857A510.025143 510.025143 0 0 0 1024 512zM201.142857 530.285714a18.285714 18.285714 0 1 1 0-36.571428h54.436572a514.505143 514.505143 0 0 0-6.326858-64.164572l-63.798857 9.106286a18.285714 18.285714 0 0 1-5.174857-36.169143l61.933714-8.850286a507.209143 507.209143 0 0 0-19.913142-64.457142l-51.949715 17.316571a18.285714 18.285714 0 0 1-11.556571-34.706286l49.060571-16.347428A513.152 513.152 0 0 0 128 173.531429C48.384 263.771429 0 382.208 0 512s48.384 248.228571 128 338.468571a513.517714 513.517714 0 0 0 79.853714-121.910857l-49.060571-16.347428a18.285714 18.285714 0 0 1 11.574857-34.688l51.949714 17.316571a509.257143 509.257143 0 0 0 19.913143-64.457143l-61.970286-8.850285a18.285714 18.285714 0 1 1 5.174858-36.187429l63.798857 9.106286c3.401143-20.992 5.558857-42.386286 6.326857-64.164572H201.142857z" fill="#CCD6DB" p-id="2355"></path><path d="M255.579429 530.285714H310.857143a18.285714 18.285714 0 1 0 0-36.571428h-55.277714c0.201143 6.070857 0.420571 12.16 0.420571 18.285714s-0.219429 12.214857-0.420571 18.285714z" fill="#E64C3C" p-id="2356"></path><path d="M182.857143 512a18.285714 18.285714 0 0 0 18.285714 18.285714h54.436572c0.201143-6.070857 0.420571-12.16 0.420571-18.285714s-0.219429-12.214857-0.420571-18.285714H201.142857a18.285714 18.285714 0 0 0-18.285714 18.285714z" fill="#C03A2B" p-id="2357"></path><path d="M308.260571 639.817143a18.285714 18.285714 0 0 0 5.174858-36.187429l-64.201143-9.179428a506.989714 506.989714 0 0 1-7.04 35.931428l66.066285 9.435429z" fill="#E64C3C" p-id="2358"></path><path d="M164.754286 600.832a18.285714 18.285714 0 0 0 15.524571 20.681143l61.933714 8.850286c2.797714-11.812571 5.065143-23.826286 7.04-35.931429l-63.798857-9.106286a18.340571 18.340571 0 0 0-20.699428 15.506286z" fill="#C03A2B" p-id="2359"></path><path d="M313.453714 420.388571a18.285714 18.285714 0 1 0-5.174857-36.187428l-66.066286 9.435428c2.797714 11.812571 5.065143 23.826286 7.04 35.931429l64.201143-9.179429z" fill="#E64C3C" p-id="2360"></path><path d="M164.754286 423.168a18.285714 18.285714 0 0 0 20.699428 15.506286l63.798857-9.106286a506.989714 506.989714 0 0 0-7.04-35.931429l-61.952 8.832a18.285714 18.285714 0 0 0-15.506285 20.699429z" fill="#C03A2B" p-id="2361"></path><path d="M280.064 309.924571a18.285714 18.285714 0 0 0-11.574857-34.688l-60.653714 20.224c5.174857 11.044571 10.057143 22.272 14.445714 33.737143l57.782857-19.273143z" fill="#E64C3C" p-id="2362"></path><path d="M147.236571 334.921143a18.267429 18.267429 0 0 0 23.113143 11.556571l51.949715-17.316571a505.545143 505.545143 0 0 0-14.445715-33.737143l-49.060571 16.347429a18.304 18.304 0 0 0-11.556572 23.149714z" fill="#C03A2B" p-id="2363"></path><path d="M268.507429 748.781714a18.285714 18.285714 0 0 0 11.556571-34.706285l-57.764571-19.254858c-4.388571 11.465143-9.270857 22.692571-14.445715 33.737143l60.653715 20.224z" fill="#E64C3C" p-id="2364"></path><path d="M147.236571 689.078857a18.285714 18.285714 0 0 0 11.556572 23.131429l49.060571 16.347428c5.174857-11.044571 10.057143-22.272 14.445715-33.737143l-51.949715-17.316571a18.230857 18.230857 0 0 0-23.113143 11.574857z" fill="#C03A2B" p-id="2365"></path><path d="M768.420571 493.714286H713.142857a18.285714 18.285714 0 1 0 0 36.571428h55.277714c-0.201143-6.070857-0.420571-12.16-0.420571-18.285714s0.219429-12.214857 0.420571-18.285714z" fill="#E64C3C" p-id="2366"></path><path d="M841.142857 512a18.285714 18.285714 0 0 0-18.285714-18.285714h-54.436572c-0.201143 6.070857-0.420571 12.16-0.420571 18.285714s0.219429 12.214857 0.420571 18.285714H822.857143a18.285714 18.285714 0 0 0 18.285714-18.285714z" fill="#C03A2B" p-id="2367"></path><path d="M715.739429 384.182857a18.285714 18.285714 0 0 0-5.174858 36.187429l64.201143 9.179428c1.956571-12.105143 4.242286-24.118857 7.04-35.931428l-66.066285-9.435429z" fill="#E64C3C" p-id="2368"></path><path d="M841.161143 438.857143a18.285714 18.285714 0 0 0 2.56-36.370286l-61.933714-8.850286a517.522286 517.522286 0 0 0-7.04 35.931429l63.798857 9.106286c0.877714 0.128 1.755429 0.182857 2.614857 0.182857z" fill="#C03A2B" p-id="2369"></path><path d="M710.546286 603.611429a18.285714 18.285714 0 1 0 5.193143 36.205714l66.066285-9.435429a517.522286 517.522286 0 0 1-7.04-35.931428l-64.219428 9.161143z" fill="#E64C3C" p-id="2370"></path><path d="M859.245714 600.832a18.230857 18.230857 0 0 0-20.699428-15.506286l-63.798857 9.106286c1.956571 12.105143 4.242286 24.118857 7.04 35.931429l61.933714-8.850286a18.285714 18.285714 0 0 0 15.524571-20.681143z" fill="#C03A2B" p-id="2371"></path><path d="M743.936 714.075429a18.285714 18.285714 0 0 0 11.556571 34.688l60.653715-20.224a505.545143 505.545143 0 0 1-14.445715-33.737143l-57.764571 19.273143z" fill="#E64C3C" p-id="2372"></path><path d="M876.763429 689.078857a18.249143 18.249143 0 0 0-23.131429-11.556571l-51.949714 17.316571c4.388571 11.465143 9.270857 22.692571 14.445714 33.737143l49.060571-16.347429a18.285714 18.285714 0 0 0 11.574858-23.149714z" fill="#C03A2B" p-id="2373"></path><path d="M755.492571 275.218286a18.285714 18.285714 0 1 0-11.574857 34.688l57.764572 19.254857c4.388571-11.465143 9.270857-22.692571 14.445714-33.737143l-60.635429-20.205714z" fill="#E64C3C" p-id="2374"></path><path d="M859.428571 347.428571a18.267429 18.267429 0 0 0 5.778286-35.638857l-49.060571-16.347428c-5.174857 11.044571-10.057143 22.272-14.445715 33.737143l51.949715 17.316571A18.285714 18.285714 0 0 0 859.428571 347.428571z" fill="#C03A2B" p-id="2375"></path></svg>