<?xml version="1.0" standalone="no"?><!DOCTYPE svg PUBLIC "-//W3C//DTD SVG 1.1//EN" "http://www.w3.org/Graphics/SVG/1.1/DTD/svg11.dtd"><svg t="1778022873348" class="icon" viewBox="0 0 1024 1024" version="1.1" xmlns="http://www.w3.org/2000/svg" p-id="2533" xmlns:xlink="http://www.w3.org/1999/xlink" width="200" height="200"><path d="M663.690847 784.835254a17.373288 17.373288 0 0 0-21.41722-8.799457 392.226712 392.226712 0 0 1-239.199458 6.838237 17.338576 17.338576 0 1 0-15.18644 30.598508C436.588475 849.642305 494.644068 912.522847 494.644068 1006.644068a17.355932 17.355932 0 1 0 34.711864 0c0-98.408136 69.579932-162.850712 127.947932-199.558509a17.355932 17.355932 0 0 0 6.386983-22.250305z" fill="#38454F" p-id="2534"></path><path d="M512 407.864407m-407.864407 0a407.864407 407.864407 0 1 0 815.728814 0 407.864407 407.864407 0 1 0-815.728814 0Z" fill="#BDC3C7" p-id="2535"></path><path d="M668.20339 272.245153A81.434034 81.434034 0 0 1 586.856136 190.915254a17.355932 17.355932 0 1 1 34.711864 0 46.687458 46.687458 0 0 0 46.63539 46.618034 17.355932 17.355932 0 1 1 0 34.711865zM712.461017 416.542373h-0.659525a80.843932 80.843932 0 0 1-56.597695-25.947119 80.705085 80.705085 0 0 1-21.642848-58.368 17.355932 17.355932 0 0 1 34.677153 1.301695c-0.451254 12.461559 3.957153 24.333017 12.409491 33.462237s19.976678 14.405424 32.438238 14.856678A17.355932 17.355932 0 0 1 712.461017 416.542373zM869.514847 482.85939h-0.659525a80.843932 80.843932 0 0 1-56.597695-25.947119 80.705085 80.705085 0 0 1-21.642847-58.368 17.355932 17.355932 0 0 1 34.677152 1.301695c-0.451254 12.461559 3.957153 24.333017 12.409492 33.462237s19.976678 14.405424 32.438237 14.856678a17.355932 17.355932 0 0 1-0.624814 34.694509zM816.59661 312.40678h-0.659525a80.843932 80.843932 0 0 1-56.597695-25.947119 80.705085 80.705085 0 0 1-21.642848-58.368 17.477424 17.477424 0 0 1 17.980746-16.696407 17.355932 17.355932 0 0 1 16.696407 17.998102c-0.451254 12.461559 3.957153 24.333017 12.409491 33.462237s19.976678 14.405424 32.438238 14.856678A17.355932 17.355932 0 0 1 816.59661 312.40678zM720.271186 161.306034a81.434034 81.434034 0 0 1-81.347254-81.329898 17.355932 17.355932 0 1 1 34.711865 0A46.687458 46.687458 0 0 0 720.271186 126.594169a17.355932 17.355932 0 1 1 0 34.711865z" fill="#FFFFFF" p-id="2536"></path></svg>