<?xml version="1.0" standalone="no"?><!DOCTYPE svg PUBLIC "-//W3C//DTD SVG 1.1//EN" "http://www.w3.org/Graphics/SVG/1.1/DTD/svg11.dtd"><svg t="1778022896660" class="icon" viewBox="0 0 1024 1024" version="1.1" xmlns="http://www.w3.org/2000/svg" p-id="3016" xmlns:xlink="http://www.w3.org/1999/xlink" width="200" height="200"><path d="M624.322207 264.827586H399.677793c-2.56 5.773241-5.384828 11.634759-8.492138 17.655173h241.62869a331.352276 331.352276 0 0 1-8.492138-17.655173zM606.24331 211.862069H417.75669c-1.324138 5.632-2.930759 11.511172-4.802207 17.655172h198.073379a295.476966 295.476966 0 0 1-4.784552-17.655172zM653.559172 317.793103H370.440828c-3.901793 5.808552-8.315586 11.723034-12.782345 17.655173h308.665379a426.301793 426.301793 0 0 1-12.76469-17.655173zM600.275862 141.241379H423.724138s1.924414 13.259034-0.088276 35.310345h176.728276C598.351448 154.500414 600.275862 141.241379 600.275862 141.241379zM713.25131 388.413793c-6.126345-5.914483-11.599448-11.776-17.090207-17.655172H327.856552c-5.490759 5.879172-10.963862 11.74069-17.090207 17.655172 0 0-40.695172 43.361103-79.183448 105.50731-76.676414 123.833379-74.363586 281.388138 14.141793 397.629794 39.706483 52.153379 98.409931 99.592828 185.026207 120.973241 53.142069 13.135448 109.391448 13.135448 162.533517 0 86.598621-21.398069 145.319724-68.837517 185.026207-120.973241 88.505379-116.25931 90.800552-273.796414 14.141793-397.629794C753.946483 431.774897 713.25131 388.413793 713.25131 388.413793z" fill="#D25627" p-id="3017"></path><path d="M600.364138 176.551724h-176.728276a258.242207 258.242207 0 0 1-5.879172 35.310345h188.48662a255.540966 255.540966 0 0 1-5.879172-35.310345zM611.027862 229.517241H412.972138c-3.372138 11.069793-7.768276 22.881103-13.294345 35.310345h224.644414a311.913931 311.913931 0 0 1-13.294345-35.310345zM632.814345 282.482759H391.185655a356.193103 356.193103 0 0 1-20.744827 35.310344h283.118344a356.193103 356.193103 0 0 1-20.744827-35.310344zM666.341517 335.448276H357.658483a430.344828 430.344828 0 0 1-29.819586 35.310345h368.286896a436.77131 436.77131 0 0 1-29.784276-35.310345zM459.034483 141.241379V50.440828C459.034483 22.704552 482.868966 0 512 0s52.965517 22.704552 52.965517 50.440828V141.241379h-105.931034z" fill="#38454F" p-id="3018"></path><path d="M512 1024c-65.942069 0-176.551724-39.000276-176.551724-300.137931a17.655172 17.655172 0 1 1 35.310345 0c0 120.814345 24.505379 264.827586 141.241379 264.827586s141.241379-144.013241 141.241379-264.827586a17.655172 17.655172 0 1 1 35.310345 0c0 261.137655-110.609655 300.137931-176.551724 300.137931z" fill="#C03A2B" p-id="3019"></path><path d="M512 1024a17.655172 17.655172 0 0 1-17.655172-17.655172V476.689655a17.655172 17.655172 0 1 1 35.310344 0v529.655173a17.655172 17.655172 0 0 1-17.655172 17.655172z" fill="#C03A2B" p-id="3020"></path></svg>