<?xml version="1.0" standalone="no"?><!DOCTYPE svg PUBLIC "-//W3C//DTD SVG 1.1//EN" "http://www.w3.org/Graphics/SVG/1.1/DTD/svg11.dtd"><svg t="1778022892771" class="icon" viewBox="0 0 1024 1024" version="1.1" xmlns="http://www.w3.org/2000/svg" p-id="2855" xmlns:xlink="http://www.w3.org/1999/xlink" width="200" height="200"><path d="M0 933.565317v-121.518178C0 363.567174 363.567174 0 812.047139 0h121.518178A90.37983 90.37983 0 0 1 1023.926862 90.361546v121.518177C1023.926862 660.359689 660.359689 1023.926862 211.879723 1023.926862H90.361546A90.37983 90.37983 0 0 1 0 933.565317z" fill="#E6E6E6" p-id="2856"></path><path d="M1014.87608 81.310764a53.939004 53.939004 0 0 0-53.957288 53.957288v13.585316c0 448.479966-363.567174 812.047139-812.04714 812.047139h-40.042854A53.975573 53.975573 0 0 0 54.853225 1014.87608v1.773588A90.050711 90.050711 0 0 0 90.361546 1023.926862h121.518177C660.359689 1023.926862 1023.926862 660.359689 1023.926862 211.879723V90.361546l-9.050782-9.050782z" fill="#E64C3C" p-id="2857"></path><path d="M109.70645 886.428112a18.320977 18.320977 0 0 1-17.333619-24.09885c23.550318-70.394972 48.764517-135.450896 74.966073-193.357617a18.284408 18.284408 0 1 1 33.314192 15.066352c-25.671309 56.773088-50.446682 120.677094-73.594743 189.88358A18.339261 18.339261 0 0 1 109.70645 886.428112zM260.699093 548.532248a18.284408 18.284408 0 0 1-15.578316-27.82887C397.832155 271.048068 598.759517 162.274123 853.479609 75.734019a18.302693 18.302693 0 0 1 11.775159 34.630669c-247.2052 83.980287-441.952432 189.133919-588.94079 429.427613a18.284408 18.284408 0 0 1-15.614885 8.739947z" fill="#9777A8" p-id="2858"></path></svg>