<?xml version="1.0" standalone="no"?><!DOCTYPE svg PUBLIC "-//W3C//DTD SVG 1.1//EN" "http://www.w3.org/Graphics/SVG/1.1/DTD/svg11.dtd"><svg t="1778022885513" class="icon" viewBox="0 0 1024 1024" version="1.1" xmlns="http://www.w3.org/2000/svg" p-id="2694" xmlns:xlink="http://www.w3.org/1999/xlink" width="200" height="200"><path d="M129.13408 504.978286c4.169143 94.134857 45.019429 176.987429 115.126857 233.380571 72.758857 58.532571 168.228571 82.669714 261.814857 66.139429 55.552-9.782857 110.848-38.436571 159.872-82.834286a597.504 597.504 0 0 0 80.603429-89.435429c69.412571-94.683429 86.966857-215.734857 45.805714-315.922285-47.597714-115.821714-152.118857-188.251429-279.771428-193.883429-89.563429 5.778286-164.608-17.28-216.795429-66.980571a18.139429 18.139429 0 0 1-4.004571-5.723429A513.737143 513.737143 0 0 0 54.564937 282.093714c1.846857 0.896 3.657143 1.956571 5.174857 3.510857 51.382857 52.297143 75.392 128.128 69.394286 219.373715z" fill="#D3EF30" p-id="2695"></path><path d="M512.000366 0c-65.060571 0-127.232 12.269714-184.484572 34.395429 44.544 38.674286 107.739429 56.539429 183.643429 51.456l1.005714-0.073143 0.987429 0.036571c142.756571 5.906286 259.785143 86.875429 313.051428 216.576 45.970286 111.890286 26.770286 246.546286-50.121143 351.451429a635.52 635.52 0 0 1-85.558857 94.921143c-54.144 49.042286-115.730286 80.768-178.066285 91.757714a370.358857 370.358857 0 0 1-64.365715 5.632c-82.340571 0-162.468571-27.574857-226.742857-79.286857-78.683429-63.305143-124.416-156.123429-128.786286-261.339429l-0.036571-1.005714 0.054857-1.005714c5.284571-77.732571-13.549714-141.915429-54.016-186.605715A510.573714 510.573714 0 0 0 0.000366 512c0 282.770286 229.229714 512 512 512s512-229.229714 512-512S794.770651 0 512.000366 0z" fill="#D3EF30" p-id="2696"></path><path d="M92.580937 503.515429l-0.054857 1.005714 0.036571 1.005714c4.352 105.216 50.084571 198.034286 128.768 261.339429 64.292571 51.712 144.402286 79.286857 226.742858 79.286857 21.376 0 42.916571-1.865143 64.365714-5.632 62.336-10.989714 123.922286-42.697143 178.066286-91.757714a635.52 635.52 0 0 0 85.558857-94.921143c76.891429-104.905143 96.091429-239.561143 50.121143-351.451429-53.248-129.700571-170.294857-210.651429-313.051429-216.576l-0.987429-0.036571-1.005714 0.073143c-75.904 5.101714-139.099429-12.781714-183.643428-51.456-12.123429 4.681143-24.064 9.728-35.730286 15.305142a18.230857 18.230857 0 0 0 4.004571 5.723429c52.187429 49.700571 127.232 72.758857 216.795429 66.980571 127.634286 5.632 232.173714 78.061714 279.771428 193.883429 41.161143 100.187429 23.606857 221.238857-45.805714 315.922286a596.608 596.608 0 0 1-80.603428 89.435428c-49.042286 44.416-104.32 73.051429-159.872 82.834286-93.586286 16.512-189.074286-7.606857-261.814858-66.139429-70.107429-56.393143-110.957714-139.245714-115.126857-233.380571 5.979429-91.227429-18.011429-167.076571-69.412571-219.373714a17.993143 17.993143 0 0 0-5.174857-3.510857 512.329143 512.329143 0 0 0-15.981715 34.816c40.502857 44.726857 59.318857 108.891429 54.034286 186.624z" fill="#FFFFFF" p-id="2697"></path></svg>