<svg width="52" height="52" viewBox="0 0 52 52" fill="none" xmlns="http://www.w3.org/2000/svg">
<path d="M43.875 11.375H8.125C7.22754 11.375 6.5 12.1025 6.5 13V39C6.5 39.8975 7.22754 40.625 8.125 40.625H43.875C44.7725 40.625 45.5 39.8975 45.5 39V13C45.5 12.1025 44.7725 11.375 43.875 11.375Z" stroke="#79982D" stroke-width="0.8125"/>
<path d="M17.875 21.375C19.6699 21.375 21.125 19.9199 21.125 18.125C21.125 16.3301 19.6699 14.875 17.875 14.875C16.0801 14.875 14.625 16.3301 14.625 18.125C14.625 19.9199 16.0801 21.375 17.875 21.375Z" stroke="#79982D" stroke-width="0.8125"/>
<path d="M6.5 35.75L17.875 24.375L26 30.875L35.75 19.5L45.5 29.25" stroke="#79982D" stroke-width="0.8125"/>
</svg>
