<svg width="48" height="48" viewBox="0 0 48 48" fill="none" xmlns="http://www.w3.org/2000/svg">
<g clip-path="url(#clip0_172_307)">
<rect width="48" height="48" rx="24" fill="#101214"/>
<path d="M14.0952 15.5455V13.6364C14.0952 13.4676 14.1605 13.3057 14.2766 13.1864C14.3926 13.067 14.5501 13 14.7143 13H20.9048C21.0689 13 21.2264 13.067 21.3425 13.1864C21.4586 13.3057 21.5238 13.4676 21.5238 13.6364V15.5455H36.5691C36.8075 15.5455 37 15.7434 37 15.9884V33.5571C37 33.6746 36.9546 33.7872 36.8738 33.8703C36.793 33.9533 36.6834 34 36.5691 34H11.4309C11.3166 34 11.207 33.9533 11.1262 33.8703C11.0454 33.7872 11 33.6746 11 33.5571V15.9884C11 15.7434 11.1925 15.5455 11.4309 15.5455H14.0952ZM15.7605 15.5455H19.8586V14.5756H15.7605V15.5455ZM12.8571 32.0909H35.1429V17.4545H12.8571V32.0909ZM31.2404 18.7273H32.8549C33.0932 18.7273 33.2857 18.9252 33.2857 19.1702V20.8298C33.2857 20.9473 33.2403 21.0599 33.1595 21.143C33.0787 21.2261 32.9691 21.2727 32.8549 21.2727H31.2404C31.1261 21.2727 31.0165 21.2261 30.9357 21.143C30.8549 21.0599 30.8095 20.9473 30.8095 20.8298V19.1702C30.8095 18.9252 31.002 18.7273 31.2404 18.7273ZM23.6905 29.8636C22.377 29.8636 21.1174 29.3273 20.1886 28.3725C19.2599 27.4178 18.7381 26.1229 18.7381 24.7727C18.7381 23.4225 19.2599 22.1276 20.1886 21.1729C21.1174 20.2182 22.377 19.6818 23.6905 19.6818C25.0039 19.6818 26.2636 20.2182 27.1923 21.1729C28.1211 22.1276 28.6429 23.4225 28.6429 24.7727C28.6429 26.1229 28.1211 27.4178 27.1923 28.3725C26.2636 29.3273 25.0039 29.8636 23.6905 29.8636ZM23.6905 27.9545C24.5114 27.9545 25.2987 27.6193 25.8791 27.0226C26.4596 26.4259 26.7857 25.6166 26.7857 24.7727C26.7857 23.9289 26.4596 23.1195 25.8791 22.5228C25.2987 21.9261 24.5114 21.5909 23.6905 21.5909C22.8696 21.5909 22.0823 21.9261 21.5018 22.5228C20.9213 23.1195 20.5952 23.9289 20.5952 24.7727C20.5952 25.6166 20.9213 26.4259 21.5018 27.0226C22.0823 27.6193 22.8696 27.9545 23.6905 27.9545Z" fill="#F4F5F6"/>
</g>
<defs>
<clipPath id="clip0_172_307">
<rect width="48" height="48" rx="24" fill="white"/>
</clipPath>
</defs>
</svg>
