<svg width="48" height="48" viewBox="0 0 48 48" fill="none" xmlns="http://www.w3.org/2000/svg">
<rect width="48" height="48" rx="24" fill="#101214"/>
<path d="M37.0938 32.25H11.9062C11.6493 32.25 11.4029 32.1479 11.2212 31.9663C11.0396 31.7846 10.9375 31.5382 10.9375 31.2812V15.7812C10.9375 13.6442 12.6754 11.9062 14.8125 11.9062H34.1875C36.3246 11.9062 38.0625 13.6442 38.0625 15.7812V31.2812C38.0625 31.5382 37.9604 31.7846 37.7788 31.9663C37.5971 32.1479 37.3507 32.25 37.0938 32.25ZM12.875 30.3125H36.125V15.7812C36.125 14.7127 35.256 13.8438 34.1875 13.8438H14.8125C13.744 13.8438 12.875 14.7127 12.875 15.7812V30.3125Z" fill="#F4F5F6"/>
<path d="M36.125 36.125H12.875C11.2727 36.125 9.96875 34.8211 9.96875 33.2188V31.2812C9.96875 31.0243 10.0708 30.7779 10.2525 30.5962C10.4342 30.4146 10.6806 30.3125 10.9375 30.3125H38.0625C38.3194 30.3125 38.5658 30.4146 38.7475 30.5962C38.9292 30.7779 39.0312 31.0243 39.0312 31.2812V33.2188C39.0312 34.8211 37.7273 36.125 36.125 36.125ZM11.9062 32.25V33.2188C11.9062 33.7535 12.3412 34.1875 12.875 34.1875H36.125C36.6588 34.1875 37.0938 33.7535 37.0938 33.2188V32.25H11.9062ZM24.5 17.7188H21.5938C21.3368 17.7188 21.0904 17.6167 20.9087 17.435C20.7271 17.2533 20.625 17.0069 20.625 16.75C20.625 16.4931 20.7271 16.2467 20.9087 16.065C21.0904 15.8833 21.3368 15.7812 21.5938 15.7812H24.5C24.7569 15.7812 25.0033 15.8833 25.185 16.065C25.3667 16.2467 25.4688 16.4931 25.4688 16.75C25.4688 17.0069 25.3667 17.2533 25.185 17.435C25.0033 17.6167 24.7569 17.7188 24.5 17.7188ZM28.375 17.7188H27.4062C27.1493 17.7188 26.9029 17.6167 26.7212 17.435C26.5396 17.2533 26.4375 17.0069 26.4375 16.75C26.4375 16.4931 26.5396 16.2467 26.7212 16.065C26.9029 15.8833 27.1493 15.7812 27.4062 15.7812H28.375C28.6319 15.7812 28.8783 15.8833 29.06 16.065C29.2417 16.2467 29.3438 16.4931 29.3438 16.75C29.3438 17.0069 29.2417 17.2533 29.06 17.435C28.8783 17.6167 28.6319 17.7188 28.375 17.7188Z" fill="#F4F5F6"/>
</svg>
