<svg width="48" height="48" viewBox="0 0 48 48" fill="none" xmlns="http://www.w3.org/2000/svg">
<rect width="48" height="48" rx="24" fill="#101214"/>
<g clip-path="url(#clip0_165_63)">
<path d="M30.361 10.0804C30.572 10.0967 30.7759 10.1328 30.9751 10.2051C31.5158 10.4043 31.9609 10.8273 32.1847 11.3587C32.2814 11.5859 32.3292 11.8225 32.3478 12.0672C32.5482 20.0014 32.3501 27.9415 32.3501 35.8781C32.3443 36.0878 32.3187 36.2929 32.2558 36.4933C32.164 36.784 32.0104 37.0514 31.8057 37.2773C31.601 37.5031 31.3498 37.6821 31.0695 37.8019C30.8437 37.894 30.6044 37.9487 30.361 37.9639C26.1428 38.0711 21.9222 37.9662 17.7028 37.9662C17.4943 37.964 17.2872 37.9322 17.0876 37.8718C16.7971 37.7802 16.5299 37.6269 16.3042 37.4223C16.0786 37.2178 15.8998 36.9669 15.7802 36.6868C15.6871 36.4608 15.6319 36.221 15.617 35.9771C15.4166 28.0429 15.6147 20.104 15.6147 12.1662C15.6205 11.9565 15.6462 11.7525 15.7091 11.551C15.8008 11.2603 15.9542 10.993 16.159 10.7673C16.3638 10.5416 16.615 10.363 16.8953 10.2435C17.1225 10.1468 17.3591 10.099 17.6038 10.0804C21.8547 9.9732 26.1102 9.9732 30.361 10.0804ZM31.1686 32.4429L16.7963 32.4464C16.8172 33.6023 16.8417 34.7583 16.8708 35.9142C16.8835 36.1211 16.9715 36.3163 17.1181 36.4628C17.2647 36.6094 17.4598 36.6974 17.6667 36.7101C21.8756 36.8161 26.0892 36.8161 30.2981 36.7101C30.505 36.6971 30.7 36.6091 30.8465 36.4626C30.9931 36.316 31.0811 36.121 31.094 35.9142C31.1231 34.7571 31.1476 33.6 31.1686 32.4429ZM31.1895 31.1937C31.2863 24.8396 31.2548 18.4831 31.094 12.1313C31.0813 11.9243 30.9934 11.7292 30.8468 11.5826C30.7002 11.436 30.505 11.3481 30.2981 11.3354C29.8588 11.3237 29.4207 11.3144 28.9825 11.3086C28.9825 11.6465 28.9756 11.9856 28.9756 12.3247C28.9721 12.4762 28.9522 12.623 28.908 12.7687C28.8415 12.9793 28.7302 13.173 28.5818 13.3365C28.4333 13.5001 28.2512 13.6295 28.048 13.716C27.8837 13.7859 27.7124 13.8197 27.5341 13.8337C25.1908 13.8931 22.8451 13.8349 20.4995 13.8349C20.3494 13.8334 20.2003 13.8106 20.0567 13.7673C19.846 13.7009 19.6523 13.5898 19.4886 13.4415C19.3248 13.2933 19.1951 13.1115 19.1081 12.9085C19.0419 12.7445 19.0021 12.5711 18.9905 12.3946C18.9813 12.0401 18.9774 11.6854 18.9788 11.3307C18.5593 11.3331 18.1386 11.3331 17.7192 11.3331C17.618 11.3343 17.5177 11.3516 17.422 11.3843C17.2679 11.4424 17.1339 11.5439 17.0361 11.6764C16.9383 11.8089 16.8809 11.9669 16.8708 12.1313C16.7102 18.4841 16.6784 24.8396 16.7753 31.1937H31.1895ZM27.7206 11.4484H20.2443C20.2443 11.7514 20.2093 12.0567 20.2478 12.3573C20.2523 12.3867 20.2617 12.415 20.2757 12.4412C20.32 12.5181 20.3923 12.5671 20.4797 12.5787C22.8125 12.7558 25.1768 12.8724 27.498 12.5764C27.561 12.5656 27.618 12.5326 27.6588 12.4835C27.6996 12.4343 27.7215 12.3722 27.7206 12.3084V11.4484Z" fill="#F4F5F6"/>
<path d="M26.0909 11.8796C26.0911 11.8595 26.0872 11.8396 26.0796 11.821C26.072 11.8024 26.0608 11.7855 26.0465 11.7713C26.0323 11.7571 26.0155 11.7459 25.9969 11.7382C25.9783 11.7306 25.9583 11.7268 25.9383 11.7269H22.0277C22.0076 11.7268 21.9876 11.7306 21.9691 11.7382C21.9505 11.7459 21.9336 11.7571 21.9194 11.7713C21.9052 11.7855 21.8939 11.8024 21.8863 11.821C21.8787 11.8396 21.8748 11.8595 21.875 11.8796V12.1837C21.875 12.2676 21.9438 12.3364 22.0277 12.3364H25.9383C25.9787 12.3364 26.0176 12.3203 26.0462 12.2917C26.0748 12.263 26.0909 12.2242 26.0909 12.1837V11.8796Z" fill="#F4F5F6"/>
<path d="M22.875 34.411C22.875 34.7049 22.9918 34.9868 23.1996 35.1946C23.4074 35.4024 23.6893 35.5192 23.9832 35.5192C24.2771 35.5192 24.5589 35.4024 24.7667 35.1946C24.9746 34.9868 25.0913 34.7049 25.0913 34.411C25.0913 34.1171 24.9746 33.8352 24.7667 33.6274C24.5589 33.4196 24.2771 33.3029 23.9832 33.3029C23.6893 33.3029 23.4074 33.4196 23.1996 33.6274C22.9918 33.8352 22.875 34.1171 22.875 34.411Z" fill="#F4F5F6"/>
</g>
<defs>
<clipPath id="clip0_165_63">
<rect width="28" height="28" fill="white" transform="translate(10 10)"/>
</clipPath>
</defs>
</svg>
