<svg width="48" height="48" viewBox="0 0 48 48" fill="none" xmlns="http://www.w3.org/2000/svg">
<rect width="48" height="48" rx="24" fill="#101214"/>
<path d="M28.375 26.5C28.1562 26.5 27.9375 26.4125 27.7625 26.2375L24 22.475L20.2375 26.2375C19.8875 26.5875 19.3625 26.5875 19.0125 26.2375C18.6625 25.8875 18.6625 25.3625 19.0125 25.0125L23.3875 20.6375C23.7375 20.2875 24.2625 20.2875 24.6125 20.6375L28.9875 25.0125C29.3375 25.3625 29.3375 25.8875 28.9875 26.2375C28.8125 26.4125 28.5938 26.5 28.375 26.5Z" fill="#F4F5F6"/>
<path d="M24 35.25C23.5187 35.25 23.125 34.8562 23.125 34.375V21.6875C23.125 21.2062 23.5187 20.8125 24 20.8125C24.4813 20.8125 24.875 21.2062 24.875 21.6875V34.375C24.875 34.8562 24.4813 35.25 24 35.25Z" fill="#F4F5F6"/>
<path d="M31 30H29.25C28.7687 30 28.375 29.6063 28.375 29.125C28.375 28.6437 28.7687 28.25 29.25 28.25H31C33.4062 28.25 35.375 26.2812 35.375 23.875C35.375 21.775 33.8 19.8938 31.7 19.5437C31.3062 19.5 31 19.15 30.9563 18.7562C30.6063 15.2125 27.5875 12.5 24 12.5C20.4125 12.5 17.3938 15.2125 17.0438 18.8C17 19.1937 16.6937 19.5 16.3 19.5875C14.2 19.8938 12.625 21.775 12.625 23.875C12.625 26.2812 14.5938 28.25 17 28.25H18.75C19.2312 28.25 19.625 28.6437 19.625 29.125C19.625 29.6063 19.2312 30 18.75 30H17C13.6313 30 10.875 27.2437 10.875 23.875C10.875 21.1187 12.7563 18.7125 15.3812 17.9688C16.125 13.8125 19.7125 10.75 24 10.75C28.2875 10.75 31.875 13.8125 32.6187 17.9688C35.2437 18.7125 37.125 21.1187 37.125 23.875C37.125 27.2437 34.3687 30 31 30Z" fill="#F4F5F6"/>
</svg>
