<svg width="431" height="105" viewBox="0 0 431 105" fill="none" xmlns="http://www.w3.org/2000/svg">
<g clip-path="url(#clip0_2_35)">
<path d="M142.746 14.9107C119.347 14.9107 117.113 22.2097 117.113 32.8275V65.8715C117.113 76.6938 119.455 83.7884 142.746 83.7884C166.036 83.7884 168.318 76.5856 168.318 65.8715V64.9817C168.318 62.7691 166.529 60.9895 164.331 60.9895C164.331 60.9895 164.307 60.9895 164.295 60.9895C162.265 60.8211 160.487 62.3242 160.319 64.3564C160.319 64.4406 160.319 64.5247 160.307 64.6089V65.0538C160.307 73.2547 159.238 77.5235 142.758 77.5235C126.278 77.5235 125.005 73.1826 125.005 65.0538V51.7545H168.258V32.8396C168.33 22.2338 166.096 14.9227 142.758 14.9227L142.746 14.9107ZM160.331 44.9244H125.089V33.7294C125.089 25.5285 126.086 21.1515 142.746 21.1515C159.406 21.1515 160.331 25.5285 160.331 33.7294V44.9244ZM203.008 14.9107C179.573 14.9107 177.339 22.2097 177.339 32.8275V65.8715C177.339 76.6938 179.681 83.7884 203.008 83.7884C226.334 83.7884 228.581 76.5856 228.581 65.8715V64.9817C228.605 62.7932 226.839 61.0015 224.653 60.9895C224.629 60.9895 224.605 60.9895 224.581 60.9895C222.359 60.9654 220.545 62.7571 220.521 64.9817C220.521 65.0057 220.521 65.0298 220.521 65.0538C220.521 73.2547 219.56 77.5235 202.972 77.5235C186.384 77.5235 185.315 73.1826 185.315 65.0538V51.7545H228.641V32.8396C228.641 22.2338 226.298 14.9227 203.008 14.9227V14.9107ZM220.557 44.9244H185.423V33.7294C185.423 25.5285 186.384 21.1515 203.08 21.1515C219.776 21.1515 220.629 25.5285 220.629 33.7294L220.557 44.9244ZM47.0374 16.0891C44.8873 16.0891 43.1336 17.8207 43.1096 19.9851V20.4661C38.0888 16.534 31.8187 14.562 25.4526 14.9227C2.13806 14.9107 0 22.2217 0 32.8275V65.8715C0 76.6938 2.54646 83.7884 25.4646 83.7884C31.7587 84.0168 37.9566 82.129 43.0496 78.4133V86.1332C43.0496 94.298 42.1607 98.7111 25.4646 98.7111C10.7384 98.7111 8.6003 95.26 8.25196 88.6464C8.0838 86.518 6.28206 84.8947 4.15601 84.9548C2.11404 84.7985 0.324313 86.3376 0.180174 88.3939C0.180174 88.478 0.180174 88.5622 0.180174 88.6464V89.3318C0.564545 98.8794 3.6275 105.012 25.4406 105.012C48.7671 105.012 51.0132 97.8092 51.0132 87.0952V19.9731C50.9292 17.8327 49.1875 16.1372 47.0614 16.0771L47.0374 16.0891ZM42.9535 65.0418C42.9535 73.2427 42.0646 77.5115 25.3685 77.5115C8.67237 77.5115 7.91564 73.1705 7.91564 65.0418V34.03C7.91564 25.8652 8.78048 21.5964 25.3685 21.5964C41.9565 21.5964 42.9535 25.8652 42.9535 34.03V65.0418ZM287.978 32.8997V78.5095C287.774 80.7221 285.816 82.3574 283.594 82.153C281.66 81.9726 280.134 80.4455 279.954 78.5095V33.7294C279.954 25.5646 278.789 21.1876 262.405 21.1876C246.021 21.1876 244.928 25.5646 244.928 33.7294V78.5215C244.928 80.7341 243.139 82.5138 240.941 82.5138C238.73 82.5138 236.953 80.7221 236.953 78.5215V19.6725C237.061 17.6644 238.778 16.1132 240.784 16.2214C240.832 16.2214 240.893 16.2214 240.941 16.2214C243.151 16.2454 244.928 18.0371 244.928 20.2497V20.5262C249.997 16.7505 256.207 14.8265 262.513 15.079C285.335 14.9107 287.978 22.1015 287.978 32.8155V32.8877V32.8997ZM346.474 4.16057V78.5696C346.474 80.7822 344.685 82.5619 342.487 82.5619C340.288 82.5619 338.499 80.7702 338.499 78.5696V4.10045C338.475 1.91195 340.24 0.12026 342.426 0.108235C342.451 0.108235 342.475 0.108235 342.499 0.108235C344.649 0.192408 346.366 1.94802 346.426 4.10045L346.498 4.1726L346.474 4.16057ZM406.04 20.2497V87.0831C406.04 97.7972 403.902 105 380.503 105C359.027 105 355.795 98.8674 355.315 89.5362V89.1514C355.315 86.8908 357.153 85.051 359.411 85.051C361.669 85.051 363.507 86.8908 363.507 89.1514V89.3197C363.915 95.4524 366.33 98.687 380.719 98.687C397.416 98.687 398.304 94.2739 398.304 86.1091V78.3893C393.236 82.141 387.026 84.0409 380.719 83.7643C357.597 83.7643 355.255 76.6697 355.255 65.8475V20.2497C355.231 18.0612 356.997 16.2695 359.183 16.2575C359.219 16.2575 359.255 16.2575 359.291 16.2575C361.357 16.1613 363.122 17.7605 363.219 19.8288C363.219 19.9731 363.219 20.1174 363.219 20.2497V65.0418C363.219 73.2427 364.083 77.5115 380.671 77.5115C397.259 77.5115 398.256 73.2427 398.256 65.0418V20.2497C398.232 18.0612 399.998 16.2695 402.184 16.2575C402.208 16.2575 402.232 16.2575 402.256 16.2575C404.37 16.2575 406.076 17.965 406.076 20.0813C406.076 20.1414 406.076 20.2016 406.076 20.2617L406.04 20.2497ZM329.85 27.1398C329.85 28.9676 328.433 30.4707 326.619 30.5909H304.59V78.6177C304.794 80.8303 303.173 82.8023 300.95 83.0068C298.74 83.2112 296.77 81.5878 296.566 79.3633C296.542 79.1107 296.542 78.8703 296.566 78.6177V17.2555C296.566 6.54147 298.32 0.0240619 316.289 0.0240619H326.619C328.385 -0.216433 330.019 1.02211 330.259 2.78975C330.499 4.55739 329.262 6.19275 327.496 6.43325C327.292 6.4573 327.088 6.46932 326.896 6.4573H316.566C305.935 6.4573 304.866 9.9084 304.866 18.2415V23.3761H326.896C328.661 23.5925 329.97 25.1077 329.922 26.8873L329.85 27.1278V27.1398ZM104.717 51.538C102.651 51.6944 100.849 50.1552 100.693 48.0869V33.9579C100.693 25.7931 99.3479 21.4161 84.1052 21.4161C68.8625 21.4161 67.6253 25.7931 67.6253 33.9579V78.75C67.5052 80.8784 65.7635 82.5618 63.6374 82.6099C61.4513 82.634 59.6616 80.8664 59.6496 78.6779C59.6496 78.6538 59.6496 78.6298 59.6496 78.6057V19.6725C59.7577 17.6644 61.4753 16.1132 63.4813 16.2214C63.5293 16.2214 63.5894 16.2214 63.6374 16.2214C65.259 16.1973 66.7364 17.1713 67.349 18.6624C67.4211 19.2636 67.4211 19.8769 67.349 20.4902C72.1657 16.9669 77.9673 15.067 83.937 15.043C105.618 15.043 108.537 22.2458 108.537 32.9598V47.8104C108.597 49.8065 107.023 51.4779 105.029 51.538C104.921 51.538 104.813 51.538 104.717 51.538Z" fill="#79982D"/>
<path d="M431 24.1216C431 29.0758 427.108 32.9718 422.063 32.9718C417.019 32.9718 413.067 29.0878 413.067 24.1216C413.067 19.1554 417.055 15.3796 422.063 15.3796C427.072 15.3796 431 19.2636 431 24.1216ZM415.301 24.1216C415.301 28.0056 418.172 31.096 422.111 31.096C426.051 31.096 428.766 28.0056 428.766 24.1697C428.766 20.3338 425.943 17.1353 422.063 17.1353C418.184 17.1353 415.301 20.2737 415.301 24.1216ZM420.682 28.703H418.664V19.9611C419.457 19.8047 420.586 19.6965 422.015 19.6965C423.661 19.6965 424.406 19.9611 425.054 20.3338C425.535 20.7066 425.907 21.404 425.907 22.2578C425.907 23.2198 425.162 23.9653 424.093 24.2779V24.3862C424.946 24.7108 425.427 25.3481 425.691 26.5145C425.955 27.8493 426.111 28.3784 426.327 28.703H424.141C423.877 28.3784 423.709 27.5847 423.445 26.5747C423.289 25.6127 422.748 25.1918 421.631 25.1918H420.67V28.703H420.682ZM420.73 23.7489H421.691C422.808 23.7489 423.709 23.3761 423.709 22.4742C423.709 21.6806 423.12 21.1395 421.847 21.1395C421.319 21.1395 420.946 21.1876 420.73 21.2477V23.7489Z" fill="#79982D"/>
</g>
<defs>
<clipPath id="clip0_2_35">
<rect width="431" height="105" fill="white"/>
</clipPath>
</defs>
</svg>
