<svg width="444" height="108" viewBox="0 0 444 108" fill="none" xmlns="http://www.w3.org/2000/svg">
<g clip-path="url(#clip0_2_45)">
<path d="M147.051 15.3365C122.947 15.3365 120.645 22.8441 120.645 33.7653V67.7534C120.645 78.8848 123.058 86.1821 147.051 86.1821C171.044 86.1821 173.395 78.7735 173.395 67.7534V66.8381C173.395 64.5623 171.552 62.7318 169.287 62.7318C169.287 62.7318 169.262 62.7318 169.25 62.7318C167.159 62.5587 165.328 64.1047 165.154 66.195C165.154 66.2815 165.154 66.3681 165.142 66.4547V66.9123C165.142 75.3475 164.041 79.7382 147.064 79.7382C130.087 79.7382 128.775 75.2733 128.775 66.9123V53.233H173.333V33.7776C173.408 22.8688 171.106 15.3489 147.064 15.3489L147.051 15.3365ZM165.167 46.2078H128.862V34.6929C128.862 26.2577 129.889 21.7557 147.051 21.7557C164.214 21.7557 165.167 26.2577 165.167 34.6929V46.2078ZM209.131 15.3365C184.99 15.3365 182.688 22.8441 182.688 33.7653V67.7534C182.688 78.8848 185.101 86.1821 209.131 86.1821C233.161 86.1821 235.475 78.7735 235.475 67.7534V66.8381C235.5 64.5871 233.681 62.7442 231.429 62.7318C231.404 62.7318 231.379 62.7318 231.355 62.7318C229.065 62.7071 227.197 64.55 227.172 66.8381C227.172 66.8628 227.172 66.8876 227.172 66.9123C227.172 75.3475 226.182 79.7382 209.094 79.7382C192.006 79.7382 190.904 75.2733 190.904 66.9123V53.233H235.537V33.7776C235.537 22.8688 233.124 15.3489 209.131 15.3489V15.3365ZM227.209 46.2078H191.016V34.6929C191.016 26.2577 192.006 21.7557 209.205 21.7557C226.405 21.7557 227.284 26.2577 227.284 34.6929L227.209 46.2078ZM48.4562 16.5486C46.2412 16.5486 44.4346 18.3296 44.4099 20.5559V21.0507C39.2376 17.0062 32.7784 14.9778 26.2203 15.3489C2.20255 15.3365 0 22.8564 0 33.7653V67.7534C0 78.8848 2.62327 86.1821 26.2327 86.1821C32.7166 86.4171 39.1015 84.4753 44.348 80.6535V88.5939C44.348 96.992 43.4324 101.531 26.2327 101.531C11.0623 101.531 8.85971 97.9815 8.50086 91.1789C8.32763 88.9897 6.47155 87.32 4.28137 87.3819C2.1778 87.2211 0.334095 88.8042 0.185608 90.9192C0.185608 91.0058 0.185608 91.0923 0.185608 91.1789V91.8839C0.581573 101.704 3.73692 108.012 26.2079 108.012C50.238 108.012 52.5519 100.604 52.5519 89.5834V20.5436C52.4653 18.342 50.6711 16.5981 48.4809 16.5362L48.4562 16.5486ZM44.249 66.8999C44.249 75.3351 43.3334 79.7259 26.1337 79.7259C8.93395 79.7259 8.1544 75.2609 8.1544 66.8999V35.0021C8.1544 26.604 9.04532 22.2133 26.1337 22.2133C43.222 22.2133 44.249 26.604 44.249 35.0021V66.8999ZM296.664 33.8395V80.7524C296.454 83.0282 294.437 84.7103 292.148 84.5C290.155 84.3145 288.584 82.7437 288.398 80.7524V34.6929C288.398 26.2948 287.198 21.7928 270.32 21.7928C253.442 21.7928 252.316 26.2948 252.316 34.6929V80.7648C252.316 83.0406 250.472 84.8711 248.208 84.8711C245.931 84.8711 244.1 83.0282 244.1 80.7648V20.2344C244.211 18.1688 245.981 16.5733 248.047 16.6846C248.097 16.6846 248.158 16.6846 248.208 16.6846C250.485 16.7094 252.316 18.5523 252.316 20.828V21.1125C257.538 17.2289 263.935 15.2499 270.431 15.5097C293.942 15.3365 296.664 22.7327 296.664 33.7529V33.8271V33.8395ZM356.925 4.27924V80.8143C356.925 83.09 355.081 84.9206 352.817 84.9206C350.552 84.9206 348.709 83.0777 348.709 80.8143V4.2174C348.684 1.96637 350.503 0.123495 352.755 0.111127C352.78 0.111127 352.804 0.111127 352.829 0.111127C355.044 0.197705 356.814 2.00348 356.875 4.2174L356.95 4.29161L356.925 4.27924ZM418.287 20.828V89.571C418.287 100.591 416.085 108 391.98 108C369.856 108 366.527 101.692 366.032 92.0942V91.6984C366.032 89.3731 367.925 87.4808 370.252 87.4808C372.578 87.4808 374.471 89.3731 374.471 91.6984V91.8715C374.892 98.1794 377.379 101.506 392.203 101.506C409.403 101.506 410.318 96.9673 410.318 88.5692V80.6288C405.096 84.4877 398.699 86.4419 392.203 86.1574C368.383 86.1574 365.97 78.8601 365.97 67.7286V20.828C365.945 18.577 367.764 16.7341 370.016 16.7218C370.054 16.7218 370.091 16.7218 370.128 16.7218C372.256 16.6228 374.075 18.2678 374.174 20.3951C374.174 20.5436 374.174 20.692 374.174 20.828V66.8999C374.174 75.3351 375.065 79.7259 392.153 79.7259C409.242 79.7259 410.269 75.3351 410.269 66.8999V20.828C410.244 18.577 412.063 16.7341 414.315 16.7218C414.34 16.7218 414.365 16.7218 414.389 16.7218C416.567 16.7218 418.324 18.4781 418.324 20.6549C418.324 20.7167 418.324 20.7786 418.324 20.8404L418.287 20.828ZM339.799 27.9151C339.799 29.795 338.339 31.3411 336.471 31.4648H313.777V80.8637C313.988 83.1395 312.317 85.1679 310.028 85.3782C307.751 85.5884 305.722 83.9187 305.511 81.6306C305.487 81.3709 305.487 81.1235 305.511 80.8637V17.7483C305.511 6.72817 307.318 0.0245488 325.829 0.0245488H336.471C338.29 -0.222817 339.973 1.05112 340.22 2.86926C340.468 4.6874 339.193 6.36949 337.374 6.61685C337.164 6.64159 336.953 6.65396 336.755 6.64159H326.114C315.163 6.64159 314.062 10.1913 314.062 18.7625V24.0438H336.755C338.574 24.2664 339.923 25.8248 339.874 27.6553L339.799 27.9027V27.9151ZM107.876 53.0103C105.747 53.1711 103.891 51.588 103.73 49.4606V34.9279C103.73 26.5298 102.344 22.0278 86.642 22.0278C70.9395 22.0278 69.665 26.5298 69.665 34.9279V80.9998C69.5413 83.189 67.7471 84.9206 65.5569 84.97C63.3048 84.9948 61.4611 83.1766 61.4487 80.9256C61.4487 80.9009 61.4487 80.8761 61.4487 80.8514V20.2344C61.5601 18.1688 63.3296 16.5733 65.396 16.6846C65.4455 16.6846 65.5074 16.6846 65.5569 16.6846C67.2274 16.6599 68.7493 17.6617 69.3804 19.1954C69.4547 19.8138 69.4547 20.4446 69.3804 21.0754C74.3423 17.4515 80.3189 15.4973 86.4688 15.4726C108.804 15.4726 111.81 22.8812 111.81 33.9013V49.1762C111.872 51.2293 110.251 52.9485 108.197 53.0103C108.086 53.0103 107.975 53.0103 107.876 53.0103Z" fill="white"/>
<path d="M444 24.8108C444 29.9065 439.991 33.9139 434.794 33.9139C429.597 33.9139 425.526 29.9189 425.526 24.8108C425.526 19.7027 429.634 15.819 434.794 15.819C439.954 15.819 444 19.814 444 24.8108ZM427.827 24.8108C427.827 28.8057 430.785 31.9844 434.843 31.9844C438.902 31.9844 441.698 28.8057 441.698 24.8603C441.698 20.9148 438.791 17.6248 434.794 17.6248C430.797 17.6248 427.827 20.8529 427.827 24.8108ZM433.371 29.5231H431.292V20.5314C432.109 20.3706 433.272 20.2592 434.744 20.2592C436.44 20.2592 437.207 20.5314 437.875 20.9148C438.37 21.2982 438.753 22.0155 438.753 22.8937C438.753 23.8832 437.986 24.65 436.885 24.9716V25.0829C437.764 25.4168 438.258 26.0724 438.531 27.2721C438.803 28.645 438.964 29.1892 439.187 29.5231H436.934C436.662 29.1892 436.489 28.3729 436.217 27.3339C436.056 26.3445 435.499 25.9116 434.348 25.9116H433.358V29.5231H433.371ZM433.42 24.4274H434.41C435.561 24.4274 436.489 24.044 436.489 23.1163C436.489 22.3 435.883 21.7434 434.571 21.7434C434.027 21.7434 433.643 21.7929 433.42 21.8548V24.4274Z" fill="white"/>
</g>
<defs>
<clipPath id="clip0_2_45">
<rect width="444" height="108" fill="white"/>
</clipPath>
</defs>
</svg>
