<svg width="434" height="106" viewBox="0 0 434 106" fill="none" xmlns="http://www.w3.org/2000/svg">
<g clip-path="url(#clip0_2_29)">
<path d="M143.739 15.0528C120.178 15.0528 117.928 22.4214 117.928 33.1403V66.499C117.928 77.4243 120.287 84.5865 143.739 84.5865C167.192 84.5865 169.49 77.3151 169.49 66.499V65.6007C169.49 63.3671 167.688 61.5705 165.474 61.5705C165.474 61.5705 165.45 61.5705 165.438 61.5705C163.394 61.4005 161.604 62.9179 161.435 64.9695C161.435 65.0544 161.435 65.1394 161.423 65.2244V65.6735C161.423 73.9525 160.346 78.262 143.751 78.262C127.157 78.262 125.875 73.8797 125.875 65.6735V52.2475H169.43V33.1525C169.502 22.4456 167.252 15.065 143.751 15.065L143.739 15.0528ZM161.447 45.3524H125.959V34.0508C125.959 25.7718 126.963 21.3531 143.739 21.3531C160.515 21.3531 161.447 25.7718 161.447 34.0508V45.3524ZM204.421 15.0528C180.823 15.0528 178.574 22.4214 178.574 33.1403V66.499C178.574 77.4243 180.932 84.5865 204.421 84.5865C227.91 84.5865 230.172 77.3151 230.172 66.499V65.6007C230.196 63.3914 228.418 61.5826 226.217 61.5705C226.192 61.5705 226.168 61.5705 226.144 61.5705C223.906 61.5462 222.08 63.3549 222.056 65.6007C222.056 65.625 222.056 65.6493 222.056 65.6735C222.056 73.9525 221.088 78.262 204.385 78.262C187.681 78.262 186.605 73.8797 186.605 65.6735V52.2475H230.232V33.1525C230.232 22.4456 227.874 15.065 204.421 15.065V15.0528ZM222.092 45.3524H186.714V34.0508C186.714 25.7718 187.681 21.3531 204.494 21.3531C221.306 21.3531 222.165 25.7718 222.165 34.0508L222.092 45.3524ZM47.3648 16.2425C45.1998 16.2425 43.4339 17.9905 43.4097 20.1756V20.6612C38.3539 16.6916 32.0402 14.7008 25.6297 15.065C2.15295 15.0528 0 22.4335 0 33.1403V66.499C0 77.4243 2.56418 84.5865 25.6418 84.5865C31.9797 84.8172 38.2208 82.9113 43.3492 79.1603V86.9537C43.3492 95.1962 42.4542 99.6513 25.6418 99.6513C10.8131 99.6513 8.66016 96.1674 8.3094 89.4908C8.14007 87.3421 6.32579 85.7033 4.18494 85.764C2.12876 85.6062 0.32657 87.16 0.181428 89.2358C0.181428 89.3208 0.181428 89.4058 0.181428 89.4908V90.1827C0.568474 99.8213 3.65275 106.012 25.6176 106.012C49.1065 106.012 51.3683 98.7409 51.3683 87.9248V20.1635C51.2837 18.0027 49.5299 16.291 47.389 16.2303L47.3648 16.2425ZM43.2524 65.6614C43.2524 73.9404 42.3574 78.2498 25.5451 78.2498C8.73274 78.2498 7.97074 73.8675 7.97074 65.6614V34.3543C7.97074 26.1117 8.84159 21.8023 25.5451 21.8023C42.2485 21.8023 43.2524 26.1117 43.2524 34.3543V65.6614ZM289.982 33.2132V79.2574C289.777 81.491 287.805 83.1419 285.568 82.9356C283.62 82.7535 282.084 81.2118 281.903 79.2574V34.0508C281.903 25.8082 280.73 21.3895 264.232 21.3895C247.734 21.3895 246.633 25.8082 246.633 34.0508V79.2695C246.633 81.5031 244.831 83.2998 242.618 83.2998C240.392 83.2998 238.602 81.491 238.602 79.2695V19.86C238.711 17.8327 240.441 16.2668 242.46 16.376C242.509 16.376 242.569 16.376 242.618 16.376C244.843 16.4003 246.633 18.209 246.633 20.4427V20.7219C251.737 16.9101 257.991 14.9679 264.341 15.2228C287.322 15.0528 289.982 22.3121 289.982 33.1282V33.201V33.2132ZM348.886 4.20034V79.3181C348.886 81.5517 347.084 83.3483 344.87 83.3483C342.657 83.3483 340.855 81.5396 340.855 79.3181V4.13965C340.831 1.9303 342.609 0.121552 344.81 0.109413C344.834 0.109413 344.858 0.109413 344.883 0.109413C347.048 0.194387 348.777 1.96672 348.838 4.13965L348.91 4.21248L348.886 4.20034ZM408.866 20.4427V87.9127C408.866 98.7287 406.713 106 383.152 106C361.526 106 358.272 99.8091 357.788 90.3891V90.0006C357.788 87.7184 359.639 85.8611 361.913 85.8611C364.186 85.8611 366.037 87.7184 366.037 90.0006V90.1706C366.448 96.3616 368.879 99.6271 383.369 99.6271C400.182 99.6271 401.077 95.1719 401.077 86.9294V79.136C395.973 82.9234 389.719 84.8414 383.369 84.5622C360.086 84.5622 357.728 77.4001 357.728 66.4747V20.4427C357.703 18.2333 359.481 16.4246 361.683 16.4124C361.719 16.4124 361.755 16.4124 361.792 16.4124C363.872 16.3153 365.65 17.9298 365.747 20.0178C365.747 20.1635 365.747 20.3091 365.747 20.4427V65.6614C365.747 73.9404 366.618 78.2498 383.321 78.2498C400.025 78.2498 401.028 73.9404 401.028 65.6614V20.4427C401.004 18.2333 402.782 16.4246 404.984 16.4124C405.008 16.4124 405.032 16.4124 405.056 16.4124C407.185 16.4124 408.902 18.1362 408.902 20.2727C408.902 20.3334 408.902 20.3941 408.902 20.4548L408.866 20.4427ZM332.146 27.3985C332.146 29.2436 330.719 30.761 328.893 30.8824H306.71V79.3666C306.916 81.6003 305.283 83.5911 303.045 83.7975C300.82 84.0038 298.836 82.365 298.63 80.1193C298.606 79.8643 298.606 79.6216 298.63 79.3666V17.42C298.63 6.60392 300.396 0.0244378 318.491 0.0244378H328.893C330.671 -0.218347 332.316 1.032 332.558 2.81647C332.799 4.60094 331.554 6.25188 329.776 6.49466C329.57 6.51894 329.364 6.53108 329.171 6.51894H318.769C308.065 6.51894 306.988 10.0029 306.988 18.4154V23.5989H329.171C330.949 23.8174 332.267 25.3469 332.219 27.1435L332.146 27.3863V27.3985ZM105.446 52.029C103.366 52.1868 101.551 50.633 101.394 48.5451V34.2814C101.394 26.0389 100.039 21.6202 84.6906 21.6202C69.3418 21.6202 68.096 26.0389 68.096 34.2814V79.5002C67.975 81.6488 66.2212 83.3483 64.0804 83.3969C61.879 83.4211 60.0769 81.6367 60.0648 79.4273C60.0648 79.403 60.0648 79.3788 60.0648 79.3545V19.86C60.1736 17.8327 61.9032 16.2668 63.9231 16.376C63.9715 16.376 64.032 16.376 64.0804 16.376C65.7132 16.3517 67.2009 17.335 67.8178 18.8403C67.8904 19.4473 67.8904 20.0664 67.8178 20.6855C72.668 17.1287 78.5099 15.2107 84.5213 15.1864C106.353 15.1864 109.292 22.4578 109.292 33.2739V48.2659C109.353 50.281 107.768 51.9683 105.76 52.029C105.652 52.029 105.543 52.029 105.446 52.029Z" fill="#10181F"/>
<path d="M434 24.3514C434 29.3527 430.081 33.2859 425.001 33.2859C419.921 33.2859 415.942 29.3649 415.942 24.3514C415.942 19.3378 419.957 15.5261 425.001 15.5261C430.045 15.5261 434 19.4471 434 24.3514ZM418.192 24.3514C418.192 28.2723 421.082 31.3921 425.05 31.3921C429.017 31.3921 431.75 28.2723 431.75 24.3999C431.75 20.5275 428.908 17.2985 425.001 17.2985C421.094 17.2985 418.192 20.4668 418.192 24.3514ZM423.61 28.9764H421.578V20.1512C422.377 19.9934 423.513 19.8841 424.953 19.8841C426.61 19.8841 427.36 20.1512 428.013 20.5275C428.497 20.9038 428.872 21.6079 428.872 22.4698C428.872 23.4409 428.122 24.1936 427.045 24.5092V24.6184C427.904 24.9462 428.388 25.5896 428.654 26.7671C428.92 28.1145 429.077 28.6487 429.295 28.9764H427.094C426.828 28.6487 426.658 27.8475 426.392 26.8278C426.235 25.8566 425.691 25.4318 424.566 25.4318H423.598V28.9764H423.61ZM423.659 23.975H424.626C425.751 23.975 426.658 23.5987 426.658 22.6883C426.658 21.8871 426.066 21.3408 424.783 21.3408C424.251 21.3408 423.876 21.3894 423.659 21.4501V23.975Z" fill="#10181F"/>
</g>
<defs>
<clipPath id="clip0_2_29">
<rect width="434" height="106" fill="white"/>
</clipPath>
</defs>
</svg>
