<svg width="139" height="105" viewBox="0 0 139 105" fill="none" xmlns="http://www.w3.org/2000/svg">
<g clip-path="url(#clip0_2_27)">
<path d="M139 78.8011C139 80.387 137.734 81.6557 136.121 81.6557C134.507 81.6557 133.21 80.387 133.21 78.8011C133.21 77.2152 134.507 75.9782 136.121 75.9782C137.734 75.9782 139 77.2469 139 78.8011ZM133.937 78.8011C133.937 80.0698 134.855 81.0531 136.121 81.0531C137.386 81.0531 138.272 80.0698 138.272 78.8011C138.272 77.5324 137.355 76.5174 136.121 76.5174C134.887 76.5174 133.937 77.5324 133.937 78.7694V78.8011ZM135.678 80.2918H135.013V77.4689C135.266 77.4055 135.646 77.3738 136.089 77.3738C136.532 77.3738 136.848 77.4689 137.07 77.5958C137.228 77.7227 137.355 77.9447 137.355 78.2302C137.355 78.5156 137.102 78.7694 136.785 78.8962C137.07 79.0231 137.228 79.2451 137.291 79.6258C137.386 80.0698 137.418 80.2284 137.513 80.3235H136.817C136.722 80.2284 136.69 79.9747 136.595 79.6258C136.532 79.3086 136.374 79.1817 136.026 79.1817H135.709V80.3235L135.678 80.2918ZM135.709 78.6742H136.026C136.374 78.6742 136.69 78.5473 136.69 78.2619C136.69 77.9764 136.5 77.8178 136.089 77.8178C135.678 77.8178 135.804 77.8178 135.741 77.8496V78.6742H135.709Z" fill="white"/>
<path d="M69.8005 45.8463C68.4716 44.2287 67.4275 42.7062 66.6681 41.3107C66.4466 40.8983 66.0036 40.6446 65.529 40.6446C65.0544 40.6446 64.6114 40.8983 64.3899 41.3107C63.6621 42.7062 62.5863 44.2287 61.2574 45.8463C59.8652 47.5274 58.473 49.0498 57.0808 50.3819C56.7011 50.7626 56.5745 51.3335 56.796 51.8092C59.2324 57.455 62.1434 60.3413 65.4973 60.3413C68.8513 60.3413 71.7939 57.4867 74.1987 51.8092C74.4202 51.3335 74.2936 50.7626 73.9139 50.3819C72.5217 49.0498 71.1295 47.5274 69.7373 45.8463H69.8005ZM65.529 57.7405C62.966 57.7405 60.9094 54.537 59.5171 51.5555C60.7512 50.3185 61.9852 48.9229 63.2192 47.4639C64.1051 46.4172 64.8645 45.4023 65.4973 44.3873C66.1618 45.3705 66.9212 46.3855 67.7755 47.4639C69.0095 48.9547 70.2435 50.3185 71.4775 51.5555C70.0853 54.537 68.0286 57.7405 65.4657 57.7405H65.529Z" fill="white"/>
<path d="M75.939 19.5522C75.5276 19.013 74.7366 18.8862 74.1671 19.2985C72.0787 20.8209 68.9462 24.4685 70.4017 28.4332C69.231 29.0676 67.6489 30.2411 66.9528 32.3345C65.877 35.6332 67.4591 39.8516 71.6358 44.863C80.6851 55.7422 87.0134 56.9158 89.3232 56.9158C91.633 56.9158 91.285 56.6938 91.8862 56.2814C91.8862 56.2814 91.9811 56.1863 92.0127 56.1863C92.6139 55.774 93.8479 54.8541 94.1643 52.7608C94.9553 47.3687 88.9752 36.4895 75.9073 19.5839L75.939 19.5522ZM91.6647 52.3484C91.5065 53.3634 91.0318 53.7123 90.5572 54.0612L90.4623 54.1246C90.4623 54.1246 90.1459 54.3149 89.3549 54.3149C87.8361 54.3149 82.2039 53.522 73.6291 43.182C70.117 38.9635 68.6615 35.4746 69.3892 33.0957C70.0537 30.9389 72.4584 30.2728 72.4901 30.2728C72.9014 30.1777 73.2178 29.8922 73.376 29.5116C73.5342 29.131 73.4709 28.687 73.2494 28.3381C71.6041 25.8006 73.4709 23.3901 74.7366 22.1531C90.3041 42.4842 92.0444 49.7793 91.6647 52.3167V52.3484Z" fill="white"/>
<path d="M64.1051 32.2711C63.4407 30.1777 61.8586 28.9724 60.6562 28.3698C62.1117 24.4051 58.9793 20.7575 56.8909 19.2351C56.3214 18.8227 55.562 18.9496 55.119 19.4888C42.0512 36.4261 36.071 47.2736 36.862 52.6656C37.1784 54.759 38.4125 55.6471 39.0136 56.0911L39.1402 56.1863C39.7414 56.5986 40.6273 56.8207 41.7031 56.8207C44.013 56.8207 50.3728 55.6471 59.3906 44.7679C63.5672 39.7565 65.1493 35.538 64.0735 32.2394L64.1051 32.2711ZM41.7348 54.2832C40.9754 54.2832 40.659 54.1246 40.659 54.1246L40.5324 54.0295C40.0578 53.6806 39.5832 53.3317 39.425 52.3167C39.0453 49.7793 40.7855 42.4525 56.353 22.1531C57.6187 23.3901 59.4855 25.8324 57.8402 28.3381C57.6187 28.687 57.5554 29.131 57.7136 29.5116C57.8718 29.8922 58.1882 30.1777 58.5996 30.2729C58.5996 30.2729 61.0043 30.9389 61.7004 33.064C62.4598 35.4429 61.0043 38.9318 57.4921 43.1503C48.9173 53.4586 43.2852 54.2832 41.7664 54.2832H41.7348Z" fill="white"/>
<path d="M53.1257 14.4457C53.8851 15.4607 54.8976 16.2536 56.0683 16.8245C57.9984 17.9346 60.8778 18.8227 65.181 18.8227C69.4842 18.8227 65.4658 18.8227 65.624 18.8227C69.4209 18.7593 72.2686 18.125 74.3886 17.11C75.8441 16.5708 77.0781 15.651 77.9641 14.4457C78.85 13.2404 79.293 11.8448 79.293 10.481C79.293 10.0686 79.2297 9.6563 79.1664 9.24397C78.502 6.19906 75.591 4.07397 72.1421 4.07397C68.6932 4.07397 70.9081 4.13741 70.3069 4.26428C70.0537 4.32771 69.8006 4.42287 69.5791 4.54974C69.2944 4.45458 69.0412 4.296 68.883 4.04226C68.5666 3.47134 68.7565 2.77354 69.326 2.42465C69.9272 2.07575 70.1487 1.28281 69.8006 0.680168C69.4526 0.0775295 68.6615 -0.144495 68.0603 0.204401C66.2884 1.25109 65.6556 3.53477 66.6998 5.34268C67.0162 5.9136 67.4908 6.35766 68.0287 6.67483C67.7123 7.62637 67.6174 8.83164 67.7756 10.2589C67.9654 12.0351 68.6299 14.3823 69.8006 15.9047C68.5983 16.1267 67.2377 16.2536 65.6556 16.2536C64.1368 16.2536 62.713 16.1585 61.4473 15.9364C62.6181 14.3823 63.3142 12.0351 63.504 10.2272C63.6622 8.76821 63.5357 7.49949 63.2192 6.54796C63.6939 6.23078 64.0736 5.81845 64.3583 5.31097C64.8646 4.45459 64.9911 3.43962 64.738 2.45637C64.4849 1.47311 63.8521 0.68017 62.9977 0.172686C62.3966 -0.17621 61.6055 0.0140968 61.2575 0.648453C60.9094 1.25109 61.0993 2.04404 61.7321 2.39293C61.9852 2.55152 62.2067 2.80526 62.27 3.09072C62.3649 3.4079 62.3016 3.72508 62.1434 3.97882C62.0169 4.20085 61.827 4.35943 61.5739 4.45459C61.384 4.35943 61.1626 4.26428 60.9411 4.23256C60.3399 4.10569 59.7071 4.04226 59.1059 4.04226C55.6253 4.04226 52.746 6.16735 52.0815 9.21226C51.9866 9.62459 51.955 10.0369 51.955 10.4492C51.955 11.8448 52.3979 13.2404 53.2839 14.4457H53.1257ZM72.6483 14.9532C72.6483 14.9532 72.6167 14.9532 72.5851 14.9532C71.8889 14.9532 70.56 12.7964 70.2436 9.94176C70.0221 8.00698 70.4651 6.86514 70.8448 6.76998C71.2561 6.67483 71.6991 6.61139 72.1421 6.61139C74.3886 6.61139 76.2554 7.91183 76.6668 9.75146C76.7301 10.0052 76.73 10.2589 76.73 10.481C76.73 10.703 76.73 10.6396 76.73 10.7347C76.73 10.8299 76.7301 10.925 76.6984 11.0202C76.4769 12.3206 75.5277 13.6527 73.5343 14.6677C73.2495 14.7629 72.9647 14.858 72.68 14.9215L72.6483 14.9532ZM58.9793 6.64311C59.4223 6.64311 59.8336 6.70655 60.2766 6.8017C60.6563 6.89686 61.0676 8.0387 60.8778 9.97348C60.5614 12.8281 59.2324 14.9849 58.5363 14.9849H58.4731C58.0934 14.8897 57.7137 14.7629 57.3656 14.6043C56.7644 14.2554 56.1949 13.8748 55.7519 13.4307C54.866 12.5743 54.3913 11.5277 54.3913 10.5127C54.3913 10.2589 54.3913 10.0369 54.4546 9.78317C54.8659 7.94354 56.7328 6.64311 58.9793 6.64311Z" fill="white"/>
<path d="M46.1013 75.8196C38.539 75.8196 37.8113 78.1668 37.8113 81.624V92.3129C37.8113 95.8018 38.5707 98.1172 46.1013 98.1172C53.6319 98.1172 54.3597 95.8018 54.3597 92.3129V92.0274C54.3597 91.3296 53.7901 90.727 53.0624 90.727C52.3979 90.6636 51.8284 91.171 51.7651 91.8054C51.7651 91.8054 51.7651 91.8688 51.7651 91.9006V92.0591C51.7651 94.7234 51.417 96.0873 46.1013 96.0873C40.7856 96.0873 40.3742 94.6917 40.3742 92.0591V87.7772H54.328V81.6557C54.328 78.2302 53.6319 75.8514 46.1013 75.8514V75.8196ZM51.7651 85.5253H40.4059V81.9094C40.4059 79.2452 40.7223 77.8496 46.1013 77.8496C51.4803 77.8496 51.7651 79.2769 51.7651 81.9094V85.5253ZM65.529 75.8196C57.9668 75.8196 57.239 78.1668 57.239 81.624V92.3129C57.239 95.8018 57.9984 98.1172 65.529 98.1172C73.0596 98.1172 73.7874 95.8018 73.7874 92.3129V92.0274C73.7874 91.3296 73.2178 90.727 72.5217 90.727C71.794 90.727 71.2244 91.2979 71.2244 92.0274C71.2244 94.6917 70.908 96.0556 65.5607 96.0556C60.2133 96.0556 59.8652 94.66 59.8652 92.0274V87.7455H73.8507V81.624C73.8507 78.1985 73.0913 75.8196 65.5607 75.8196H65.529ZM71.1928 85.5253H59.8652V81.9094C59.8652 79.2452 60.1816 77.8496 65.5607 77.8496C70.9397 77.8496 71.2244 79.2769 71.2244 81.9094V85.5253H71.1928ZM15.1878 76.2002C14.4917 76.2002 13.9221 76.7712 13.9221 77.469V77.6275C12.3084 76.3588 10.2834 75.7245 8.22672 75.8196C0.696108 75.8196 0 78.1668 0 81.624V92.3129C0 95.8018 0.822672 98.1172 8.22672 98.1172C10.2518 98.1807 12.2452 97.578 13.8905 96.3728V98.8785C13.8905 101.511 13.6057 102.938 8.22672 102.938C2.84771 102.938 2.78443 101.828 2.65786 99.7031C2.59458 99.0053 2.02504 98.4979 1.32893 98.4979C0.664465 98.4344 0.0949233 98.9419 0.0316408 99.608C0.0316408 99.608 0.0316408 99.6714 0.0316408 99.7031V99.9252C0.158206 103.002 1.13908 105 8.19508 105C15.2511 105 16.4534 102.685 16.4534 99.1956V77.5007C16.4534 76.8029 15.8523 76.2637 15.1878 76.232V76.2002ZM13.8905 92.0274C13.8905 94.6917 13.6057 96.0556 8.22672 96.0556C2.84771 96.0556 2.59458 94.66 2.59458 92.0274V82.0046C2.59458 79.372 2.87935 77.9764 8.22672 77.9764C13.5741 77.9764 13.8905 79.372 13.8905 82.0046V92.0274ZM92.962 81.624V96.3728C92.8987 97.1023 92.2659 97.6098 91.5381 97.5463C90.9053 97.4829 90.4307 97.0071 90.3674 96.3728V81.9094C90.3674 79.2769 89.9877 77.8496 84.7036 77.8496C79.4195 77.8496 79.0715 79.2769 79.0715 81.9094V96.3728C79.0715 97.0706 78.5019 97.6732 77.7742 97.6732C77.0781 97.6732 76.4769 97.1023 76.4769 96.3728V77.3421C76.5085 76.676 77.0781 76.2002 77.7109 76.232C77.7109 76.232 77.7425 76.232 77.7742 76.232C78.5019 76.232 79.0715 76.8346 79.0715 77.5324V77.6275C80.7168 76.3906 82.7102 75.7879 84.7352 75.8831C92.1077 75.8196 92.962 78.1668 92.962 81.624ZM111.852 72.3624V96.4045C111.852 97.1023 111.282 97.7049 110.555 97.7049C109.827 97.7049 109.257 97.134 109.257 96.4045V72.3307C109.257 71.6329 109.827 71.0302 110.523 71.0302C111.219 71.0302 111.757 71.6329 111.789 72.3307L111.852 72.3624ZM131.058 77.5641V99.1639C131.058 102.621 130.362 104.968 122.831 104.968C115.301 104.968 114.858 103.002 114.7 99.9569V99.83C114.7 99.1005 115.301 98.4979 116.028 98.4979C116.756 98.4979 117.357 99.1005 117.357 99.83V99.8934C117.484 101.86 118.275 102.907 122.926 102.907C127.577 102.907 128.59 101.479 128.59 98.8468V96.341C126.945 97.5463 124.951 98.1807 122.926 98.0855C115.459 98.0855 114.7 95.8018 114.7 92.2812V77.5324C114.7 76.8346 115.269 76.232 115.965 76.232C115.965 76.232 115.965 76.232 115.997 76.232C116.661 76.2002 117.231 76.7077 117.262 77.3738C117.262 77.4055 117.262 77.469 117.262 77.5007V91.964C117.262 94.6283 117.547 95.9922 122.895 95.9922C128.242 95.9922 128.558 94.5966 128.558 91.964V77.5007C128.558 76.8029 129.128 76.2002 129.824 76.2002C130.52 76.2002 131.058 76.7395 131.058 77.4372C131.058 77.4372 131.058 77.469 131.058 77.5007V77.5641ZM106.473 79.7844C106.473 80.387 106.03 80.8628 105.429 80.8945H98.3094V96.4045C98.3726 97.134 97.8347 97.7683 97.1386 97.8318C96.4109 97.8952 95.778 97.356 95.7148 96.6582C95.7148 96.5631 95.7148 96.4996 95.7148 96.4045V76.5809C95.7148 73.1236 96.2843 70.9985 102.075 70.9985H105.397C105.967 70.9351 106.504 71.3157 106.568 71.8866C106.631 72.4576 106.251 72.9968 105.682 73.0602C105.618 73.0602 105.555 73.0602 105.492 73.0602H102.17C98.7523 73.0602 98.4043 74.1703 98.4043 76.8663V78.5156H105.524C106.093 78.5791 106.504 79.0866 106.504 79.6575V79.7209L106.473 79.7844ZM33.8245 87.6504C33.16 87.7138 32.5905 87.2063 32.5272 86.5402V81.9729C32.5272 79.3403 32.0842 77.913 27.1798 77.913C22.2754 77.913 21.8641 79.3403 21.8641 81.9729V96.4362C21.8325 97.134 21.2629 97.6732 20.5668 97.6732C19.8707 97.6732 19.2695 97.1023 19.2695 96.4045V77.3421C19.3012 76.676 19.8707 76.2002 20.5035 76.232C20.5035 76.232 20.5352 76.232 20.5668 76.232C21.1047 76.232 21.5793 76.5491 21.7692 77.0249C21.7692 77.2152 21.7692 77.4055 21.7692 77.6275C23.3196 76.4857 25.1864 75.8831 27.1165 75.8831C34.1093 75.8831 35.0585 78.1985 35.0585 81.6874V86.4768C35.0585 87.1112 34.5839 87.6504 33.9194 87.6821C33.8878 87.6821 33.8561 87.6821 33.8245 87.6821V87.6504Z" fill="white"/>
</g>
<defs>
<clipPath id="clip0_2_27">
<rect width="139" height="105" fill="white"/>
</clipPath>
</defs>
</svg>
