<svg width="139" height="105" viewBox="0 0 139 105" fill="none" xmlns="http://www.w3.org/2000/svg">
<g clip-path="url(#clip0_2_48)">
<path d="M139 78.8428C139 80.4457 137.747 81.7026 136.114 81.7026C134.481 81.7026 133.212 80.4457 133.212 78.8428C133.212 77.2399 134.5 76.0179 136.114 76.0179C137.728 76.0179 139 77.2749 139 78.8428ZM133.931 78.8428C133.931 80.0997 134.858 81.0996 136.13 81.0996C137.402 81.0996 138.279 80.0997 138.279 78.8587C138.279 77.6177 137.367 76.5829 136.114 76.5829C134.861 76.5829 133.934 77.5986 133.934 78.8397L133.931 78.8428ZM135.665 80.3251H135.013V77.5002C135.269 77.4494 135.63 77.4145 136.095 77.4145C136.627 77.4145 136.867 77.5002 137.073 77.6208C137.228 77.7414 137.348 77.9668 137.348 78.2398C137.348 78.5508 137.108 78.792 136.763 78.8936V78.9285C137.038 79.0333 137.193 79.2396 137.279 79.6173C137.364 80.049 137.415 80.2204 137.484 80.3251H136.779C136.693 80.2204 136.643 79.9633 136.554 79.6363C136.503 79.3253 136.329 79.1888 135.969 79.1888H135.658V80.3251H135.665ZM135.684 78.7222H135.994C136.355 78.7222 136.646 78.6016 136.646 78.3096C136.646 78.0525 136.456 77.8779 136.044 77.8779C135.874 77.8779 135.753 77.8938 135.684 77.9128V78.7222Z" fill="#B6F500"/>
<path d="M69.7832 45.852C68.451 44.2459 67.4005 42.7224 66.6569 41.3226C66.4353 40.9037 66.0018 40.6434 65.5272 40.6434C65.0525 40.6434 64.619 40.9068 64.3975 41.3258C63.6602 42.7224 62.6097 44.2459 61.2775 45.852C59.8915 47.5215 58.4865 49.0451 57.1037 50.3845C56.7208 50.7559 56.6101 51.324 56.8189 51.816C59.246 57.4784 62.1761 60.3509 65.5272 60.3509C68.8782 60.3509 71.8084 57.4784 74.2386 51.8128C74.4475 51.324 74.3335 50.7559 73.9507 50.3845C72.5742 49.0451 71.166 47.5183 69.7801 45.852H69.7832ZM65.5272 57.7831C62.9767 57.7831 60.9041 54.5869 59.5244 51.597C60.7617 50.3559 62.0084 48.9784 63.2425 47.493C64.1159 46.4424 64.8785 45.4171 65.5303 44.4268C66.1822 45.4171 66.9448 46.4424 67.815 47.493C69.0491 48.9752 70.2958 50.3528 71.5331 51.597C70.1503 54.5837 68.0776 57.7863 65.5272 57.7863V57.7831Z" fill="#B6F500"/>
<path d="M75.9379 19.5425C75.517 18.9997 74.7386 18.8823 74.1785 19.2885C72.09 20.7962 68.9447 24.459 70.4129 28.4139C69.2295 29.0328 67.6473 30.2167 66.967 32.3243C65.9069 35.6189 67.4827 39.834 71.6565 44.8553C80.6939 55.7327 87.0384 56.9103 89.3452 56.9103C90.4211 56.9103 91.3039 56.6881 91.9115 56.2628C91.9209 56.2564 92.019 56.1834 92.0285 56.1771C92.6266 55.7518 93.8765 54.8599 94.1866 52.7523C94.984 47.3438 89.0129 36.4822 75.9379 19.5425ZM91.6551 52.3746C91.5033 53.403 91.016 53.749 90.5445 54.0854L90.4464 54.1521C90.4464 54.1521 90.1426 54.3393 89.342 54.3393C87.8231 54.3393 82.1969 53.5363 73.6184 43.2112C70.106 38.9834 68.6441 35.4983 69.3908 33.1305C70.068 30.9848 72.4697 30.3151 72.4856 30.3088C72.8843 30.2072 73.2102 29.9152 73.3589 29.5311C73.5108 29.1439 73.4633 28.7122 73.2418 28.3663C71.6059 25.8397 73.476 23.3989 74.7322 22.1737C90.2976 42.5097 92.0254 49.8163 91.652 52.3683L91.6551 52.3746Z" fill="#B6F500"/>
<path d="M64.0842 32.2925C63.4071 30.185 61.8217 29.0011 60.6414 28.3821C62.1097 24.4273 58.9643 20.7645 56.8759 19.2568C56.3189 18.8505 55.5405 18.9648 55.1165 19.5107C42.0383 36.4537 36.0703 47.312 36.8677 52.7206C37.1778 54.8313 38.4277 55.72 39.0258 56.1485L39.1397 56.2311C39.7473 56.6564 40.6333 56.8786 41.706 56.8786C44.0128 56.8786 50.3605 55.7042 59.3978 44.8236C63.5684 39.8023 65.1474 35.5872 64.0842 32.2925ZM41.706 54.3108C40.9339 54.3108 40.627 54.1394 40.6206 54.1394L40.5067 54.0569C40.0352 53.7204 39.5479 53.3713 39.396 52.3461C39.0195 49.7941 40.7504 42.4875 56.3158 22.1515C57.5688 23.3767 59.439 25.8175 57.803 28.3441C57.5783 28.69 57.534 29.1249 57.6828 29.5089C57.8315 29.893 58.1574 30.1818 58.5561 30.2866C58.5814 30.2929 60.961 30.9595 61.6477 33.0861C62.4103 35.4539 60.9515 38.9453 57.4296 43.1858C48.8511 53.5109 43.2217 54.3139 41.7028 54.3139L41.706 54.3108Z" fill="#B6F500"/>
<path d="M53.1134 14.4418C53.8634 15.4543 54.8823 16.251 56.0468 16.8096C57.977 17.9078 60.8534 18.8156 65.1601 18.8156C65.3025 18.8156 65.448 18.8156 65.5936 18.8156C69.3781 18.7616 72.2482 18.1046 74.3588 17.1048C75.8018 16.5557 77.0548 15.6479 77.944 14.445C78.8364 13.2357 79.2857 11.855 79.273 10.4679V10.4616C79.273 10.4616 79.2699 10.4616 79.2699 10.4584C79.2667 10.0426 79.2224 9.6268 79.1275 9.21417C78.4566 6.17346 75.5676 4.05003 72.1058 4.05003C71.4888 4.05003 70.8654 4.11986 70.2578 4.25634C69.9952 4.31348 69.7579 4.4087 69.53 4.52614C69.2421 4.44361 68.9826 4.28174 68.8275 4.01512C68.5048 3.45331 68.6978 2.73598 69.2611 2.40906C69.875 2.05357 70.087 1.26641 69.7294 0.650649C69.3718 0.0348876 68.5839 -0.174598 67.9763 0.177719C66.1885 1.20928 65.5746 3.51045 66.6062 5.30377C66.9321 5.86558 67.3941 6.31629 67.932 6.64004C67.6219 7.60494 67.5175 8.8079 67.6726 10.2235C67.8688 12.0168 68.5301 14.3339 69.6914 15.8796C68.4953 16.0891 67.1283 16.2193 65.5588 16.2415C64.0304 16.2637 62.616 16.1526 61.3344 15.9241C62.5147 14.3815 63.1887 12.0327 63.3881 10.2235C63.5494 8.75394 63.4324 7.50972 63.0938 6.52895C63.5526 6.21472 63.945 5.79892 64.2298 5.3006C64.7297 4.43409 64.8595 3.42157 64.6032 2.4535C64.3468 1.48542 63.7266 0.676041 62.8596 0.174545C62.2457 -0.180946 61.4578 0.0317136 61.1066 0.647475C60.749 1.26324 60.9642 2.05039 61.578 2.40589C61.847 2.56141 62.0432 2.81534 62.1223 3.12004C62.2014 3.42475 62.1634 3.73898 62.0052 4.01194C61.8787 4.23413 61.673 4.38013 61.442 4.47853C61.2426 4.3833 61.0306 4.30395 60.8028 4.25C60.1921 4.11351 59.5687 4.04368 58.9548 4.04368C55.4899 4.04368 52.604 6.16711 51.9268 9.20783C51.835 9.62362 51.7907 10.0394 51.7876 10.4552V10.4647C51.7718 11.855 52.2179 13.2325 53.1134 14.445V14.4418ZM72.6279 14.956C72.6026 14.9592 72.5836 14.9623 72.5615 14.9623C71.859 14.9623 70.5363 12.804 70.223 9.93785C70.011 7.99852 70.4287 6.84952 70.8116 6.76382C71.2356 6.6686 71.6755 6.62099 72.1026 6.62099C74.3493 6.62099 76.2068 7.91282 76.6182 9.76963C76.672 10.014 76.6973 10.2616 76.6973 10.5124C76.6973 10.5981 76.6878 10.6869 76.6783 10.7758C76.6688 10.8678 76.6593 10.9599 76.6435 11.0519C76.422 12.3469 75.4632 13.6927 73.4791 14.6925C73.207 14.7973 72.9222 14.8925 72.6279 14.9592V14.956ZM58.9516 6.62099C59.382 6.62099 59.8155 6.6686 60.2427 6.76382C60.6256 6.84952 61.0433 8.0017 60.8313 9.94103C60.518 12.804 59.1985 14.9655 58.4928 14.9655L58.4295 14.9592C58.0466 14.8735 57.6827 14.7433 57.3378 14.5942C56.7239 14.2514 56.1828 13.8641 55.7367 13.4229C54.8602 12.5533 54.3728 11.5185 54.3634 10.506C54.3634 10.2584 54.3855 10.014 54.4393 9.7728C54.8507 7.91917 56.7081 6.62734 58.958 6.62734L58.9516 6.62099Z" fill="#B6F500"/>
<path d="M46.0728 75.8656C38.5195 75.8656 37.798 78.227 37.798 81.6582V92.3419C37.798 95.8397 38.5543 98.1345 46.0728 98.1345C53.5913 98.1345 54.3254 95.8048 54.3254 92.3419V92.0531C54.3254 91.3389 53.7495 90.7613 53.0375 90.7613C53.0344 90.7613 53.0312 90.7613 53.0249 90.7613C52.3698 90.7073 51.7971 91.1929 51.7401 91.85C51.7401 91.8785 51.737 91.9039 51.737 91.9325V92.0785C51.737 94.7288 51.3921 96.1127 46.0728 96.1127C40.7535 96.1127 40.3422 94.7098 40.3422 92.0785V87.7777H54.3033V81.6613C54.3254 78.2302 53.6039 75.8687 46.0728 75.8687V75.8656ZM51.7496 85.5686H40.377V81.947C40.377 79.2967 40.6998 77.8811 46.076 77.8811C51.4522 77.8811 51.7528 79.2967 51.7528 81.947V85.5686H51.7496ZM65.5208 75.8656C57.9581 75.8656 57.2334 78.227 57.2334 81.6582V92.3419C57.2334 95.8397 57.9897 98.1345 65.5208 98.1345C73.052 98.1345 73.7734 95.8048 73.7734 92.3419V92.0531C73.7798 91.3453 73.2134 90.7676 72.5077 90.7613C72.5014 90.7613 72.4919 90.7613 72.4856 90.7613C71.7673 90.7549 71.1818 91.3326 71.1755 92.0531C71.1755 92.0594 71.1755 92.069 71.1755 92.0753C71.1755 94.7256 70.8654 96.1095 65.5113 96.1095C60.1573 96.1095 59.8124 94.7066 59.8124 92.0753V87.7745H73.7956V81.6582C73.7956 78.227 73.0393 75.8656 65.5208 75.8656ZM71.185 85.5686H59.844V81.947C59.844 79.2967 60.1541 77.8811 65.543 77.8811C70.9319 77.8811 71.2072 79.2967 71.2072 81.947L71.185 85.5686ZM15.1825 76.2433C14.4864 76.2433 13.9231 76.8051 13.9168 77.5034V77.6589C12.2966 76.3861 10.2715 75.7513 8.21779 75.8656C0.686662 75.8656 0 78.227 0 81.6582V92.3419C0 95.8397 0.822728 98.1345 8.21779 98.1345C10.2493 98.2107 12.2492 97.5981 13.8946 96.3952V98.89C13.8946 101.531 13.6067 102.956 8.21779 102.956C3.46495 102.956 2.77513 101.842 2.66438 99.7025C2.61058 99.0137 2.02834 98.49 1.34168 98.5091C0.680333 98.4583 0.104423 98.9566 0.0569581 99.62C0.0569581 99.6485 0.0569581 99.6739 0.0537938 99.7025V99.9247C0.177203 103.01 1.16448 104.994 8.20514 104.994C15.7363 104.994 16.4577 102.664 16.4577 99.201V77.497C16.4293 76.8051 15.8692 76.256 15.1793 76.2369L15.1825 76.2433ZM13.863 92.0753C13.863 94.7256 13.575 96.1095 8.18615 96.1095C2.79728 96.1095 2.55362 94.7066 2.55362 92.0753V82.0486C2.55362 79.4078 2.83209 78.0271 8.18615 78.0271C13.5402 78.0271 13.863 79.4078 13.863 82.0486V92.0753ZM92.9462 81.6804V96.4301C92.8797 97.1474 92.2469 97.6743 91.5317 97.6076C90.9083 97.5505 90.4147 97.0554 90.3577 96.4301V81.947C90.3577 79.3062 89.9812 77.8906 84.6936 77.8906C79.406 77.8906 79.0516 79.3062 79.0516 81.947V96.4301C79.0516 97.1442 78.4757 97.7219 77.7637 97.7219C77.0517 97.7219 76.4758 97.1442 76.4758 96.4301V77.3986C76.5106 76.7479 77.0644 76.2464 77.713 76.2814C77.7289 76.2814 77.7479 76.2814 77.7637 76.2845C78.4757 76.2909 79.0516 76.8717 79.0516 77.5891V77.6779C80.6875 76.4559 82.6906 75.8338 84.7284 75.9163C92.0918 75.8592 92.9462 78.189 92.9462 81.655V81.6772V81.6804ZM111.828 72.39V96.4555C111.828 97.1696 111.252 97.7473 110.54 97.7473C109.828 97.7473 109.252 97.1696 109.252 96.4555V72.3678C109.246 71.66 109.812 71.0823 110.518 71.076C110.524 71.076 110.534 71.076 110.54 71.076C111.236 71.1045 111.79 71.6695 111.806 72.3678L111.828 72.39ZM131.054 77.5922V99.2074C131.054 102.673 130.365 105 122.814 105C115.884 105 114.84 103.016 114.685 99.9977V99.8739C114.685 99.1407 115.277 98.5472 116.008 98.5472C116.739 98.5472 117.331 99.1407 117.331 99.8739V99.931C117.464 101.915 118.242 102.962 122.884 102.962C128.27 102.962 128.561 101.537 128.561 98.8963V96.4015C126.925 97.6172 124.919 98.2298 122.884 98.1409C115.419 98.1409 114.666 95.8461 114.666 92.3483V77.5986C114.66 76.8908 115.226 76.3131 115.932 76.3068C115.945 76.3068 115.954 76.3068 115.967 76.3068C116.634 76.275 117.201 76.7924 117.236 77.4621C117.236 77.5065 117.236 77.5541 117.236 77.5986V92.0817C117.236 94.732 117.514 96.1159 122.868 96.1159C128.222 96.1159 128.545 94.7351 128.545 92.0817V77.5986C128.539 76.8908 129.105 76.3131 129.811 76.3068C129.817 76.3068 129.827 76.3068 129.833 76.3068C130.513 76.3068 131.067 76.859 131.067 77.5414C131.067 77.5605 131.067 77.5795 131.067 77.5986L131.054 77.5922ZM106.461 79.8204C106.461 80.4108 106.005 80.8996 105.417 80.9345H98.3097V96.465C98.3762 97.1823 97.8509 97.8171 97.1358 97.8838C96.4206 97.9504 95.7878 97.4235 95.7213 96.7062C95.715 96.6269 95.715 96.5443 95.7213 96.465V76.6242C95.7213 73.1581 96.2877 71.0537 102.085 71.0537H105.417C105.99 70.9744 106.515 71.3743 106.594 71.9488C106.673 72.5233 106.274 73.0502 105.702 73.1295C105.638 73.1391 105.572 73.1422 105.505 73.1391H102.173C98.7401 73.1391 98.3983 74.2532 98.3983 76.9479V78.6079H105.505C106.075 78.6777 106.499 79.1697 106.483 79.7442L106.461 79.8236V79.8204ZM33.7983 87.7079C33.1338 87.7586 32.5516 87.2603 32.4978 86.5938V82.0263C32.4978 79.3856 32.0643 77.9699 27.1437 77.9699C22.2232 77.9699 21.8245 79.3856 21.8245 82.0263V96.5094C21.7833 97.1982 21.2232 97.741 20.5366 97.7568C19.8309 97.7632 19.255 97.195 19.2487 96.4872C19.2487 96.4809 19.2487 96.4713 19.2487 96.465V77.4018C19.2835 76.7511 19.8373 76.2496 20.4859 76.2845C20.5018 76.2845 20.5208 76.2845 20.5366 76.2877C21.0619 76.2782 21.5365 76.5924 21.7359 77.078C21.758 77.2748 21.758 77.4716 21.7359 77.6684C23.2927 76.5321 25.166 75.9163 27.0899 75.9068C34.0863 75.9068 35.0324 78.2366 35.0324 81.6994V86.5017C35.0514 87.1461 34.5451 87.6856 33.9027 87.7079C33.8679 87.7079 33.8331 87.7079 33.8015 87.7079H33.7983Z" fill="#B6F500"/>
</g>
<defs>
<clipPath id="clip0_2_48">
<rect width="139" height="105" fill="white"/>
</clipPath>
</defs>
</svg>
