<svg width="100" height="105" viewBox="0 0 100 105" fill="none" xmlns="http://www.w3.org/2000/svg">
<g clip-path="url(#clip0_2_28)">
<path d="M57.404 79.7744C55.0856 76.9802 53.2573 74.3295 51.9632 71.8942C51.5777 71.1652 50.8233 70.7124 49.9972 70.7124C49.1712 70.7124 48.4168 71.1707 48.0313 71.8997C46.7482 74.3295 44.9199 76.9802 42.6015 79.7744C40.1894 82.6791 37.7444 85.3298 35.3378 87.6602C34.6715 88.3063 34.4788 89.2948 34.8422 90.1507C39.066 100.002 44.1654 105 49.9972 105C55.8291 105 60.9285 100.002 65.1578 90.1452C65.5212 89.2948 65.323 88.3063 64.6566 87.6602C62.2611 85.3298 59.8106 82.6736 57.3985 79.7744H57.404ZM49.9972 100.533C45.5587 100.533 41.9516 94.9716 39.5506 89.7697C41.7038 87.6105 43.8736 85.2138 46.0213 82.6294C47.5412 80.8015 48.8683 79.0179 50.0028 77.2949C51.1372 79.0179 52.4643 80.8015 53.9787 82.6294C56.1264 85.2083 58.2962 87.605 60.4494 89.7697C58.0428 94.9661 54.4358 100.538 49.9972 100.538V100.533Z" fill="#B6F500"/>
<path d="M68.115 34.0005C67.3826 33.0562 66.0279 32.8518 65.0531 33.5587C61.4186 36.1817 55.9447 42.5544 58.4999 49.4351C56.4403 50.512 53.6869 52.5718 52.5029 56.2385C50.6581 61.9706 53.4005 69.3042 60.6641 78.0404C76.3919 96.9651 87.4332 99.0139 91.4478 99.0139C93.3201 99.0139 94.8566 98.6273 95.9139 97.8873C95.9304 97.8763 96.1011 97.7493 96.1176 97.7382C97.1584 96.9982 99.3337 95.4465 99.8733 91.7797C101.261 82.3698 90.8695 63.4727 68.115 34.0005ZM95.4733 91.1226C95.209 92.9118 94.3609 93.5137 93.5404 94.0991L93.3697 94.215C93.3697 94.215 92.841 94.5408 91.4478 94.5408C88.8045 94.5408 79.0132 93.1437 64.0839 75.1798C57.9713 67.8242 55.4271 61.7608 56.7267 57.6412C57.9052 53.9082 62.0849 52.743 62.1125 52.7319C62.8063 52.5552 63.3735 52.0472 63.6324 51.379C63.8967 50.7053 63.8141 49.9542 63.4286 49.3523C60.5815 44.9566 63.8361 40.71 66.0224 38.5784C93.1109 73.9594 96.1176 86.6716 95.4678 91.1115L95.4733 91.1226Z" fill="#B6F500"/>
<path d="M47.4916 56.1833C46.3131 52.5166 43.5542 50.4568 41.5001 49.3799C44.0553 42.4992 38.5814 36.1265 34.9469 33.5035C33.9776 32.7966 32.6229 32.9954 31.885 33.9452C9.12495 63.423 -1.26108 82.3146 0.121151 91.7245C0.660829 95.3968 2.83606 96.943 3.87686 97.6885L4.07511 97.8321C5.13244 98.5721 6.67438 98.9587 8.54122 98.9587C12.5558 98.9587 23.6026 96.9154 39.3304 77.9852C46.5885 69.249 49.3364 61.9154 47.4861 56.1833H47.4916ZM8.54673 94.4912C7.20304 94.4912 6.66887 94.193 6.65786 94.193L6.45961 94.0494C5.63908 93.464 4.79101 92.8566 4.52668 91.0729C3.87136 86.633 6.88364 73.9208 33.9721 38.5398C36.1529 40.6713 39.4075 44.9179 36.5604 49.3137C36.1694 49.9156 36.0923 50.6721 36.3511 51.3403C36.6099 52.0085 37.1772 52.511 37.871 52.6933C37.9151 52.7043 42.0563 53.864 43.2513 57.5639C44.5784 61.6835 42.0398 67.758 35.9106 75.1357C20.9813 93.0996 11.1845 94.4967 8.54122 94.4967L8.54673 94.4912Z" fill="#B6F500"/>
<path d="M28.3936 25.1261C29.6988 26.8877 31.472 28.2737 33.4985 29.2457C36.8578 31.1564 41.8635 32.7357 49.3584 32.7357C49.6063 32.7357 49.8596 32.7357 50.1129 32.7357C56.6992 32.6418 61.6939 31.4987 65.367 29.7592C67.8782 28.8039 70.0589 27.2245 71.6064 25.1316C73.1593 23.0276 73.9413 20.6254 73.9193 18.2122V18.2012C73.9193 18.2012 73.9138 18.2012 73.9138 18.1957C73.9083 17.4722 73.8312 16.7488 73.666 16.0309C72.4985 10.7406 67.4707 7.04623 61.4461 7.04623C60.3723 7.04623 59.2874 7.16772 58.2301 7.40518C57.773 7.50458 57.36 7.67025 56.9635 7.87457C56.4624 7.73099 56.0108 7.44936 55.741 6.98549C55.1792 6.00805 55.5152 4.76002 56.4954 4.19123C57.5637 3.57274 57.9327 2.20322 57.3104 1.13191C56.6881 0.0605918 55.3169 -0.303876 54.2596 0.309093C51.1482 2.10382 50.0798 6.10745 51.8751 9.22752C52.4423 10.205 53.2463 10.9891 54.1825 11.5524C53.6428 13.2311 53.4611 15.3241 53.7309 17.787C54.0724 20.9071 55.2233 24.9383 57.2443 27.6276C55.1627 27.9921 52.7837 28.2185 50.0523 28.2572C47.3925 28.2958 44.9309 28.1026 42.7006 27.705C44.7547 25.0211 45.9276 20.9347 46.2746 17.787C46.5554 15.2302 46.3517 13.0655 45.7624 11.3591C46.5609 10.8124 47.2438 10.089 47.7394 9.222C48.6095 7.71443 48.8353 5.95283 48.3892 4.26854C47.9432 2.58426 46.8638 1.17609 45.3549 0.303571C44.2866 -0.314921 42.9154 0.0550696 42.3041 1.12639C41.6818 2.1977 42.0563 3.56722 43.1246 4.18571C43.5927 4.4563 43.9341 4.89808 44.0718 5.42822C44.2095 5.95835 44.1434 6.50505 43.8681 6.97997C43.6478 7.36652 43.2898 7.62055 42.8878 7.79174C42.5409 7.62607 42.1719 7.48801 41.7754 7.39413C40.7126 7.15668 39.6277 7.03519 38.5594 7.03519C32.5293 7.03519 27.507 10.7296 26.3285 16.0199C26.1688 16.7433 26.0917 17.4667 26.0862 18.1901V18.2067C26.0587 20.6254 26.8352 23.0221 28.3936 25.1316V25.1261ZM62.3548 26.0207C62.3107 26.0262 62.2777 26.0317 62.2391 26.0317C61.0166 26.0317 58.7147 22.2766 58.1695 17.29C57.8005 13.9159 58.5274 11.9169 59.1938 11.7678C59.9317 11.6021 60.6972 11.5193 61.4406 11.5193C65.3505 11.5193 68.5831 13.7668 69.299 16.9973C69.3926 17.4225 69.4366 17.8533 69.4366 18.2895C69.4366 18.4386 69.4201 18.5933 69.4036 18.7479C69.3871 18.908 69.3706 19.0682 69.343 19.2283C68.9575 21.4814 67.2889 23.8228 63.8361 25.5623C63.3625 25.7446 62.8669 25.9102 62.3548 26.0262V26.0207ZM38.5594 11.5193C39.3083 11.5193 40.0628 11.6021 40.8062 11.7678C41.4725 11.9169 42.1995 13.9214 41.8305 17.2955C41.2853 22.2766 38.9889 26.0372 37.7609 26.0372L37.6507 26.0262C36.9844 25.8771 36.3511 25.6507 35.7509 25.3911C34.6825 24.7947 33.7408 24.121 32.9644 23.3534C31.439 21.8403 30.5909 20.0401 30.5744 18.2785C30.5744 17.8477 30.6129 17.4225 30.7065 17.0028C31.4224 13.7779 34.655 11.5303 38.5704 11.5303L38.5594 11.5193Z" fill="#B6F500"/>
</g>
<defs>
<clipPath id="clip0_2_28">
<rect width="100" height="105" fill="white"/>
</clipPath>
</defs>
</svg>
