<svg width="100" height="105" viewBox="0 0 100 105" fill="none" xmlns="http://www.w3.org/2000/svg">
<g clip-path="url(#clip0_2_31)">
<path d="M57.4131 79.7855C55.0973 76.9839 53.2598 74.3338 51.976 71.9107C51.5984 71.1788 50.8433 70.7245 50.0126 70.7245C49.1819 70.7245 48.4268 71.1788 48.0492 71.9107C46.7654 74.3338 44.9279 76.9839 42.6121 79.7855C40.1956 82.6881 37.7539 85.3383 35.3374 87.6603C34.6829 88.3165 34.4815 89.3009 34.8339 90.1591C39.0628 100.003 44.1475 105 49.9874 105C55.8273 105 60.912 100.003 65.1409 90.1591C65.5185 89.3009 65.3171 88.3165 64.6375 87.6603C62.2461 85.3383 59.8044 82.6629 57.3879 79.7855H57.4131ZM50.0126 100.533C45.5823 100.533 41.9576 94.9798 39.5663 89.7805C41.7059 87.6098 43.8958 85.2121 46.0354 82.6376C47.5457 80.8204 48.8799 79.0283 50.0126 77.312C51.1453 79.0283 52.4794 80.8204 53.9897 82.6376C56.1294 85.2121 58.3193 87.6098 60.4589 89.7805C58.0424 94.9798 54.4428 100.558 50.0126 100.558V100.533Z" fill="#10181F"/>
<path d="M68.1363 34.0007C67.4064 33.0416 66.0471 32.865 65.0654 33.5464C61.4406 36.1714 55.9531 42.5318 58.5207 49.4222C56.4566 50.5075 53.7128 52.5519 52.5298 56.2369C50.6922 61.9663 53.436 69.3111 60.6855 78.044C76.4179 96.9738 87.4683 99.0182 91.4707 99.0182C95.473 99.0182 94.894 98.6396 95.9261 97.8824L96.1275 97.731C97.1595 96.999 99.3495 95.4342 99.8781 91.7744C101.263 82.36 90.8665 63.4555 68.1112 34.0007H68.1363ZM95.4982 91.1182C95.2213 92.9102 94.3906 93.5159 93.5599 94.0965L93.3837 94.2227C93.3837 94.2227 92.8551 94.5508 91.4707 94.5508C88.8276 94.5508 79.0358 93.1626 64.1088 75.1919C57.9921 67.8472 55.4497 61.7644 56.7586 57.6503C57.9417 53.9149 62.1203 52.7538 62.1454 52.7538C62.8502 52.5772 63.404 52.0724 63.6557 51.3909C63.9075 50.7094 63.8319 49.9775 63.4544 49.3717C60.6099 44.98 63.8571 40.7397 66.0471 38.5944C93.132 73.9804 96.1526 86.676 95.4982 91.1182Z" fill="#10181F"/>
<path d="M47.4954 56.1864C46.3123 52.5267 43.5686 50.457 41.5045 49.3717C44.072 42.4813 38.5845 36.1209 34.9598 33.496C33.9781 32.7892 32.644 32.9912 31.8888 33.9503C9.13344 63.4302 -1.26254 82.3095 0.12191 91.7239C0.65052 95.3837 2.84047 96.9486 3.87252 97.6805L4.0739 97.8319C5.13111 98.5639 6.6666 98.9677 8.52932 98.9677C12.5568 98.9677 23.5821 96.9233 39.3145 77.9935C46.564 69.2606 49.3078 61.9159 47.4702 56.1864H47.4954ZM8.55449 94.5003C7.22038 94.5003 6.6666 94.1974 6.6666 94.1974L6.46522 94.046C5.63455 93.4655 4.80388 92.8597 4.52699 91.0677C3.87252 86.6255 6.89315 73.9047 33.9781 38.5439C36.1681 40.664 39.4152 44.9295 36.5708 49.3212C36.1681 49.927 36.0925 50.6842 36.3694 51.3404C36.6211 51.9967 37.2001 52.5014 37.8797 52.7034C37.9301 52.7034 42.0583 53.8644 43.2665 57.5746C44.6006 61.6887 42.0583 67.7715 35.9163 75.1415C20.9894 93.1121 11.1975 94.5003 8.55449 94.5003Z" fill="#10181F"/>
<path d="M28.4151 25.1416C29.724 26.9084 31.4861 28.2966 33.525 29.2557C36.898 31.1739 41.8821 32.7387 49.3833 32.7387C56.8845 32.7387 49.8867 32.7387 50.1384 32.7387C56.7335 32.6378 61.7175 31.502 65.3926 29.7605C67.9098 28.8014 70.0746 27.2365 71.6352 25.1416C73.1959 23.0467 73.9762 20.6489 73.951 18.2259C73.951 17.494 73.8755 16.7873 73.6993 16.0553C72.5414 10.755 67.507 7.06998 61.491 7.06998C55.4749 7.06998 59.3262 7.19618 58.2689 7.42333C57.8159 7.52429 57.3879 7.67573 57.0104 7.90289C56.5069 7.75145 56.0538 7.47381 55.7769 7.0195C55.2232 6.03515 55.5504 4.79841 56.5321 4.21789C57.5893 3.5869 57.9669 2.22396 57.3376 1.16389C56.7083 0.103822 55.349 -0.274773 54.2918 0.33098C51.1705 2.123 50.1133 6.13611 51.9005 9.24059C52.4794 10.2249 53.2849 11.0074 54.2163 11.5626C53.6877 13.2537 53.4863 15.3234 53.7632 17.7968C54.1156 20.9266 55.2483 24.9397 57.2872 27.6403C55.198 28.0189 52.8318 28.2208 50.0881 28.2713C47.4199 28.3218 44.9782 28.1199 42.7379 27.7161C44.802 25.0406 45.9599 20.9518 46.3123 17.7968C46.5892 15.2476 46.3878 13.077 45.8089 11.3607C46.6144 10.8055 47.294 10.0987 47.7723 9.21535C48.6533 7.70097 48.8798 5.95943 48.4267 4.26837C47.9737 2.57731 46.8913 1.16389 45.4061 0.305739C44.3489 -0.325253 42.9644 0.0533428 42.3603 1.13865C41.731 2.22396 42.1086 3.5869 43.191 4.19265C43.6693 4.47029 43.9965 4.89936 44.1475 5.4294C44.2734 5.95943 44.223 6.5147 43.9461 6.99426C43.7196 7.37285 43.3672 7.62525 42.9644 7.80193C42.612 7.62525 42.2596 7.49905 41.8569 7.3981C40.7997 7.17094 39.7173 7.04474 38.6349 7.04474C32.5936 7.04474 27.5844 10.7297 26.4013 16.0301C26.2503 16.762 26.1748 17.4687 26.1496 18.2007C26.1245 20.6237 26.9048 23.0467 28.4654 25.1416H28.4151ZM62.372 26.025C62.3216 26.025 62.2965 26.025 62.2461 26.025C61.0127 26.025 58.722 22.2643 58.1683 17.2921C57.7907 13.9099 58.5207 11.916 59.2003 11.7646C59.9303 11.5879 60.7106 11.5122 61.4406 11.5122C65.3423 11.5122 68.5894 13.7585 69.2942 16.9892C69.3949 17.4183 69.4201 17.8473 69.4201 18.2764C69.4201 18.7055 69.4201 18.5793 69.3949 18.7307C69.3949 18.8822 69.3698 19.0588 69.3446 19.2103C68.967 21.4566 67.2805 23.8039 63.8319 25.5454C63.3537 25.7221 62.8754 25.8988 62.3468 25.9998L62.372 26.025ZM38.5594 11.5122C39.3145 11.5122 40.0697 11.5879 40.7997 11.7646C41.4541 11.916 42.1841 13.9099 41.8317 17.2921C41.2779 22.2643 38.9873 26.025 37.7539 26.025H37.6532C36.9735 25.8736 36.3442 25.6464 35.7401 25.3688C34.6829 24.763 33.7264 24.1068 32.946 23.3243C31.4106 21.81 30.5799 20.0179 30.5547 18.2512C30.5547 17.8221 30.6051 17.393 30.6806 16.9639C31.3854 13.7333 34.6326 11.4869 38.5342 11.4869L38.5594 11.5122Z" fill="#10181F"/>
</g>
<defs>
<clipPath id="clip0_2_31">
<rect width="100" height="105" fill="white"/>
</clipPath>
</defs>
</svg>
