<svg width="109" height="109" viewBox="0 0 109 109" fill="none" xmlns="http://www.w3.org/2000/svg">
<g clip-path="url(#clip0_2_32)">
<path d="M54.6126 66.5957C53.8588 67.7308 53.105 68.7358 52.2212 69.7496C51.0255 71.1966 49.7692 72.5829 48.4435 73.9086C49.8298 76.9325 51.97 80.2164 54.6126 80.2164V80.1557C57.1947 80.1557 59.3955 76.8805 60.7211 73.8479C59.5254 72.5829 58.2084 71.1966 56.9434 69.6889C56.1289 68.7445 55.3058 67.6701 54.6126 66.5957Z" fill="white"/>
<path d="M50.5836 55.1845C50.0204 53.7375 48.8854 52.7238 47.4384 52.2819C46.9965 52.2212 46.6846 51.9007 46.4939 51.5281C46.364 51.1468 46.364 50.7049 46.6152 50.3324C48.2528 47.681 46.364 45.229 45.1076 43.9639C29.1822 64.5855 27.354 72.089 27.7959 74.6711C27.8565 75.4249 28.2984 76.1181 28.9309 76.4993L29.0609 76.6293C29.4421 76.8199 29.8147 76.8199 30.1959 76.8199L30.0746 76.8805C31.7122 76.8805 37.4395 75.9968 46.312 65.53C49.8991 61.1804 51.3461 57.5846 50.5923 55.1845" fill="white"/>
<path d="M61.7869 36.651H61.9082C62.2201 36.5904 62.5407 36.4604 62.8526 36.2698C64.4296 35.7066 65.6253 34.3116 66.0672 32.674V32.1715C66.0672 31.9202 65.9459 31.6689 65.9459 31.4177C65.3827 29.3988 63.4245 28.0731 61.3536 28.2031C60.9117 28.2031 60.4699 28.2031 60.028 28.3331C59.5861 28.4544 59.2135 29.5288 59.3955 31.5476C59.7767 34.4502 61.0937 36.651 61.7869 36.651Z" fill="white"/>
<path d="M44.6657 35.1347C45.1683 35.5766 45.7315 36.0185 46.3033 36.3304C46.6846 36.521 47.0571 36.6423 47.4384 36.7117C48.1315 36.7117 49.5179 34.5022 49.8298 31.6082C50.0204 29.6501 49.6392 28.515 49.1973 28.3937C48.7554 28.2031 48.3135 28.2031 47.8716 28.2031L47.9323 28.1424C45.7921 27.9518 43.8426 29.4075 43.3401 31.4869C43.2101 31.7382 43.2101 31.9895 43.2101 32.2408C43.2707 33.3758 43.7733 34.4502 44.6571 35.1434" fill="white"/>
<path d="M63.9877 43.9033C62.7313 45.2289 60.7731 47.681 62.4801 50.2717C62.7313 50.6529 62.792 51.0862 62.61 51.4674C62.4194 51.8486 62.0468 52.0999 61.6656 52.2212C60.2793 52.6631 59.0836 53.7288 58.5204 55.1152C57.7665 57.5066 59.2742 61.1024 62.8613 65.3827C71.6731 75.9101 77.4611 76.7246 78.9774 76.7246C79.3586 76.7852 79.7918 76.7246 80.1124 76.5339H80.2337C80.8662 76.1527 81.3688 75.4595 81.3688 74.7057L81.3081 74.5757C81.6894 71.9937 79.9218 64.6808 63.9964 43.8859" fill="white"/>
<path d="M83.8122 75.1736C83.6822 76.6206 82.8677 77.8856 81.542 78.6394V78.7607C80.7276 79.2633 79.8438 79.4539 78.8994 79.4539C76.5686 79.4539 70.0875 78.2582 60.8338 67.1589C56.5535 62.0555 54.9766 57.7665 56.051 54.3614C56.6835 52.5938 57.9398 51.2075 59.5774 50.393C58.0005 46.2947 61.2757 42.5776 63.4158 41.0613C63.979 40.6194 64.8021 40.7494 65.244 41.3126C78.6481 58.529 84.7566 69.6283 83.8122 75.1736ZM63.4245 74.0992C60.9724 79.8958 58.0785 82.7984 54.552 82.7984C51.0255 82.7984 48.1316 79.8958 45.6102 74.0992C45.4196 73.5967 45.5495 73.0248 45.9221 72.6522C47.3084 71.3265 48.7554 69.7496 50.2024 68.0514C51.3981 66.6044 52.4032 65.0881 53.3476 63.4505C53.5989 63.0086 54.0408 62.7573 54.5433 62.7573C55.0459 62.7573 55.4878 63.0086 55.739 63.4505C56.6228 65.0881 57.6886 66.665 58.9536 68.0514V67.9907C60.3399 69.6283 61.7869 71.2052 63.1039 72.6609C63.4851 73.0421 63.6064 73.6053 63.4158 74.1079M30.066 79.4019C29.1822 79.4019 28.2378 79.1506 27.4839 78.7087L27.3626 78.5874C26.1063 77.8336 25.3525 76.5686 25.1618 75.1216C24.408 69.637 30.5772 58.5377 43.8513 41.2606C44.2932 40.6974 45.1076 40.5674 45.6795 41.0093C47.6897 42.5862 50.9649 46.3033 49.5179 50.341C51.2161 51.0948 52.4725 52.5505 53.105 54.3094C54.2401 57.6539 52.6025 61.9428 48.1316 67.1069C38.9385 78.2062 32.4574 79.4019 30.066 79.4019ZM40.6367 30.7851C41.5205 27.5099 44.5358 25.3005 47.8716 25.4911C48.5041 25.4911 49.128 25.5517 49.7605 25.7424C50.0118 25.7424 50.263 25.803 50.4537 25.933C50.7049 25.8723 50.8955 25.6817 51.0168 25.4911C51.1468 25.2398 51.2075 24.9279 51.1468 24.6073C51.0168 24.356 50.8349 24.1048 50.5836 23.9141C49.9511 23.5329 49.7692 22.7184 50.1417 22.0859C50.5143 21.3928 51.3981 21.2021 52.0913 21.5834C52.975 22.0859 53.5989 22.9091 53.8502 23.9141C54.1014 24.8586 53.9801 25.933 53.4689 26.8168C53.157 27.3193 52.7151 27.7006 52.2126 28.0125C52.5938 29.2082 52.7758 30.5339 52.5938 31.8595C52.4032 33.939 51.71 35.9579 50.5143 37.6561C51.9006 37.9074 53.3476 37.9074 54.7946 37.9074C56.2416 37.9074 57.5672 37.7774 58.9449 37.5262C57.8099 35.8192 57.1167 33.8697 56.9347 31.7902C56.8048 30.5945 56.8741 29.3988 57.186 28.1944C56.6228 27.8132 56.1116 27.3713 55.7997 26.8081C55.739 26.8081 55.739 26.6781 55.739 26.6781C54.7339 24.8499 55.3578 22.5798 57.186 21.5747C57.7492 21.3841 58.3211 21.5747 58.6936 22.0166C59.1355 22.5798 59.0056 23.4029 58.4424 23.8448C57.8792 24.1568 57.6886 24.9192 58.0005 25.4824C58.1218 25.7337 58.3817 25.9243 58.6936 25.985C58.8843 25.855 59.1355 25.7337 59.3868 25.7337C60.08 25.5431 60.7731 25.4218 61.4663 25.4218C64.8628 25.2918 67.8261 27.5013 68.7012 30.7158C68.8312 31.1577 68.8312 31.5389 68.8312 31.9808C68.8312 33.4278 68.3286 34.8835 67.4448 36.0185C66.5004 37.2835 65.1747 38.228 63.7277 38.7305C60.8944 39.9955 57.8099 40.5587 54.7253 40.5587H54.2834C51.0775 40.7494 47.863 40.0562 44.969 38.5399C43.7733 38.0374 42.7682 37.1536 41.9451 36.1398V36.0792C41.0006 34.9441 40.4981 33.4971 40.4981 32.0415C40.4981 31.5996 40.4981 31.2184 40.6281 30.7765M54.5 0C24.3994 0 0 24.3994 0 54.5C0 84.6006 24.3994 109 54.5 109C84.6006 109 109 84.6006 109 54.5C109 24.3994 84.6006 0 54.5 0Z" fill="white"/>
</g>
<defs>
<clipPath id="clip0_2_32">
<rect width="109" height="109" fill="white"/>
</clipPath>
</defs>
</svg>
