<svg width="526" height="105" viewBox="0 0 526 105" fill="none" xmlns="http://www.w3.org/2000/svg">
<g clip-path="url(#clip0_2_46)">
<path d="M54.9544 79.8701C52.7627 77.466 50.8998 74.7341 49.3656 71.8928C48.9272 71.1279 48.1601 70.6908 47.2835 70.6908C46.4068 70.6908 45.6397 71.1279 45.2014 71.8928C43.5576 74.7341 41.8042 77.3567 39.7221 79.8701C37.2017 82.8207 34.6813 85.5526 32.2704 87.8475C31.6129 88.5031 31.3937 89.4866 31.7225 90.3609C36.1059 100.414 41.1467 105.441 47.2835 105.441C53.4202 105.441 58.4611 100.414 62.7349 90.3609C63.0636 89.4866 62.8445 88.5031 62.187 87.8475C59.8857 85.3341 57.3652 82.6021 54.9544 79.7609V79.8701ZM47.3931 100.961C42.7905 100.961 39.0646 95.2784 36.6538 90.033C38.9551 87.7382 41.1467 85.3341 43.2289 82.8207C44.763 81.0722 46.078 79.3238 47.3931 77.3567C48.5985 79.2145 50.0231 81.0722 51.4477 82.7114C53.6394 85.3341 55.9406 87.7382 58.0228 89.9238C55.7215 95.1691 51.886 100.852 47.3931 100.852V100.961ZM65.9128 33.5361C65.1457 32.5526 63.7211 32.3341 62.7349 33.099C59.009 35.7217 53.3106 42.1691 56.0502 49.2722C53.201 50.6928 51.0093 53.097 49.9135 56.1567C48.0506 62.0578 50.7902 69.4887 58.2419 78.3403C74.3508 97.5732 85.638 99.6495 89.6927 99.6495C91.3364 99.6495 92.8706 99.3217 94.2952 98.4475V98.2289C96.5965 96.9176 98.0211 94.732 98.2403 92.2186C99.884 82.6021 89.2543 63.3691 65.9128 33.5361ZM93.9665 91.4537C93.9665 92.765 93.0898 93.9671 91.9939 94.6227H91.7748C91.2268 94.9506 90.4597 95.0598 89.8022 94.9506C87.1722 94.9506 77.0904 93.5299 61.7486 75.2805C55.5023 67.8495 52.8723 61.6207 54.1873 57.4681C55.1736 55.064 57.2557 53.2062 59.6665 52.4413C60.324 52.2227 60.9815 51.7856 61.3103 51.1299C61.639 50.4743 61.5295 49.7093 61.0911 49.0537C58.1323 44.5732 61.5295 40.3114 63.7211 38.0165C91.446 74.0784 94.5144 86.7547 93.8569 91.2351L93.9665 91.4537ZM44.763 56.0475C43.6672 52.9877 41.4755 50.4743 38.5167 49.1629C41.0372 42.1691 35.3388 35.7217 31.8321 32.9897C30.8458 32.2248 29.4212 32.4433 28.6541 33.4268C5.5318 63.3691 -5.20747 82.6021 -3.89246 92.1093C-3.56371 94.6227 -2.24869 96.8083 -0.0570054 98.1196L0.16216 98.3382C1.47717 99.1031 3.12094 99.5402 4.65512 99.5402C8.81933 99.5402 20.1065 97.464 36.1059 78.231C43.8864 69.2701 46.7356 61.8392 44.763 56.0475ZM4.87429 95.0598C4.21679 95.0598 3.55928 95.0598 2.90177 94.732L2.68261 94.5135C1.58676 93.8578 0.819667 92.6557 0.710082 91.3444C-0.057009 86.864 3.12094 73.8598 30.8458 38.1258C33.0375 40.3114 36.325 44.5732 33.4758 49.1629C33.0375 49.8186 33.0375 50.5835 33.2567 51.2392C33.5854 51.8949 34.1333 52.4413 34.9004 52.5506C37.4209 53.3155 39.3934 55.064 40.3797 57.5774C41.6947 61.7299 39.1742 67.9588 32.9279 75.499C17.4765 93.6392 7.50432 95.1691 4.65512 95.1691L4.87429 95.0598ZM25.3666 24.5753C26.7912 26.3238 28.5445 27.8537 30.6266 28.7279C35.6675 31.3506 41.2563 32.5526 46.8451 32.2248H47.6122C52.9819 32.2248 58.3515 31.2413 63.2828 29.0557C65.8032 28.1815 68.1045 26.5423 69.7483 24.3567C71.2825 22.3897 72.1592 19.8763 72.1592 17.3629C72.1592 16.598 72.1592 15.9423 71.94 15.1774C70.4058 9.60417 65.2553 5.77942 59.3378 5.99798C58.1323 5.99798 56.9269 6.21653 55.7215 6.54437C55.2831 6.54437 54.8448 6.76293 54.516 6.98148C53.9681 6.87221 53.5298 6.54437 53.3106 6.10726C52.7627 5.12375 53.0915 3.81241 54.0777 3.26602C55.064 2.50107 55.2831 1.08045 54.516 0.0969488C53.8585 -0.668 52.8723 -0.995836 51.886 -0.668001C48.7081 1.08045 47.6122 5.01447 49.3656 8.18355C49.3656 8.18355 49.3656 8.4021 49.4752 8.4021C50.0231 9.38561 50.8998 10.1506 51.886 10.8062C51.3381 12.8825 51.2285 14.9588 51.4477 17.0351C51.7764 20.6413 52.9819 24.0289 54.9544 26.9794C52.5435 27.4165 50.1327 27.6351 47.7218 27.6351C45.2014 27.6351 42.6809 27.6351 40.2701 27.198C42.3522 24.2475 43.5576 20.7506 43.8864 17.1444C44.2151 14.8495 43.8864 12.5547 43.2289 10.4784C44.1055 9.932 44.8726 9.27633 45.4205 8.4021C46.2972 6.87221 46.5164 5.01447 46.078 3.3753C45.6397 1.62685 44.5439 0.206226 43.0097 -0.668001C41.8042 -1.32367 40.2701 -0.995836 39.6126 0.206226C38.9551 1.29901 39.2838 2.71963 40.3797 3.3753C40.818 3.70313 41.1467 4.14025 41.3659 4.57736C41.4755 5.12375 41.3659 5.67014 41.1467 6.10726C40.9276 6.43509 40.5988 6.76293 40.1605 6.87221C39.8317 6.65365 39.3934 6.54437 38.9551 6.54437C37.8592 6.21653 36.7634 6.10726 35.6675 6.10726C29.8595 5.77942 24.5995 9.60416 23.0653 15.2866C22.8461 16.0516 22.8461 16.7073 22.8461 17.4722C22.8461 19.9856 23.7228 22.499 25.3666 24.466V24.5753ZM59.8857 25.4495C58.6803 25.4495 56.379 21.6248 55.7215 16.598C55.3927 13.1011 56.0502 11.2433 56.8173 11.0248C57.5844 10.8062 58.3515 10.8062 59.1186 10.8062C62.7349 10.5877 66.132 12.8825 67.1183 16.3794C67.1183 16.8165 67.3374 17.2537 67.3374 17.6908V18.565C66.5703 21.4062 64.4882 23.8104 61.7486 24.7939C61.2007 25.1217 60.6528 25.3402 60.1049 25.4495H59.8857ZM35.6675 10.8062C36.4346 10.8062 37.2017 10.8062 37.9688 11.1341C38.7359 11.3526 39.3934 13.3196 39.0646 16.7073C38.5167 21.7341 36.1059 25.5588 34.9004 25.5588C34.2429 25.4495 33.5854 25.231 32.9279 24.9031C31.9417 24.3567 30.9554 23.5918 30.0787 22.8268C28.5445 21.6248 27.6679 19.7671 27.5583 17.8C27.5583 17.3629 27.5583 16.9258 27.7774 16.4887C28.6541 12.8825 32.0512 10.3691 35.7771 10.697L35.6675 10.8062ZM267.658 22.499C246.289 22.499 244.316 29.165 244.316 38.7815V68.833C244.316 78.6681 246.398 85.1155 267.658 85.1155C288.917 85.1155 290.999 78.5588 290.999 68.833V68.0681C290.999 66.1011 289.356 64.4619 287.383 64.4619C285.52 64.3526 283.876 65.664 283.767 67.5217C283.767 67.5217 283.767 67.631 283.767 67.7402V68.1774C283.767 75.6083 282.78 79.5423 267.767 79.5423C252.754 79.5423 251.549 75.6083 251.549 68.1774V56.0475H290.999V38.8908C290.999 29.2743 289.027 22.6083 267.767 22.6083L267.658 22.499ZM283.767 49.7093H251.658V39.5464C251.658 32.1155 252.535 28.0722 267.767 28.0722C283 28.0722 283.767 32.0062 283.767 39.5464V49.7093ZM322.669 22.499C301.3 22.499 299.218 29.165 299.218 38.7815V68.833C299.218 78.6681 301.3 85.1155 322.669 85.1155C344.038 85.1155 346.011 78.5588 346.011 68.833V68.0681C346.011 66.1011 344.476 64.4619 342.394 64.4619C340.312 64.4619 338.669 66.1011 338.669 68.0681C338.669 75.499 337.792 79.433 322.669 79.433C307.547 79.433 306.56 75.499 306.56 68.0681V55.9382H346.12V38.7815C346.12 29.165 344.038 22.499 322.779 22.499H322.669ZM338.669 49.7093H306.56V39.5464C306.56 32.1155 307.437 28.0722 322.669 28.0722C337.901 28.0722 338.669 32.0062 338.669 39.5464V49.7093ZM180.429 23.4825C178.456 23.4825 176.812 25.0124 176.812 26.9794V27.4165C172.21 23.8103 166.511 22.0619 160.703 22.3897C139.444 22.3897 137.471 29.0557 137.471 38.6722V68.7238C137.471 78.5588 139.773 85.0062 160.703 85.0062C166.402 85.2248 172.1 83.4763 176.703 80.0887V87.0825C176.703 94.5135 175.936 98.5568 160.703 98.5568C145.471 98.5568 145.362 95.3877 145.033 89.3774C144.923 87.4103 143.279 85.9897 141.307 85.9897C139.444 85.8805 137.8 87.3011 137.691 89.1588C137.691 89.1588 137.691 89.2681 137.691 89.3774V90.033C138.019 98.666 140.869 104.239 160.703 104.239C180.538 104.239 184.045 97.6825 184.045 87.9568V26.9794C184.045 25.0124 182.401 23.4825 180.429 23.4825ZM176.593 67.9588C176.593 75.3897 175.826 79.3238 160.594 79.3238C145.362 79.3238 144.704 75.3897 144.704 67.9588V39.765C144.704 32.3341 145.471 28.5093 160.594 28.5093C175.716 28.5093 176.593 32.4433 176.593 39.765V67.9588ZM400.145 38.7815V80.198C399.926 82.165 398.173 83.6949 396.2 83.4763C394.447 83.3671 393.022 81.9464 392.913 80.198V39.5464C392.913 32.1155 391.817 28.1815 376.913 28.1815C362.01 28.1815 360.914 32.1155 360.914 39.5464V80.198C360.914 82.165 359.27 83.8042 357.298 83.8042C355.325 83.8042 353.682 82.165 353.682 80.198V26.7609C353.682 24.9031 355.325 23.4825 357.188 23.5918C357.188 23.5918 357.188 23.5918 357.298 23.5918C359.27 23.5918 360.914 25.231 360.914 27.3073V27.5258C365.517 24.1382 371.215 22.3897 376.913 22.6083C397.735 22.499 400.145 28.9464 400.145 38.7815ZM453.513 12.664V80.3073C453.513 82.2743 451.869 83.9134 449.897 83.9134C447.924 83.9134 446.28 82.2743 446.28 80.3073V12.664C446.28 10.6969 447.815 9.05778 449.897 9.05778C451.869 9.05778 453.403 10.6969 453.513 12.664ZM507.867 27.3073V88.066C507.867 97.7918 505.894 104.349 484.525 104.349C463.156 104.349 461.951 98.7753 461.513 90.2516V89.9238C461.513 87.8475 463.156 86.2083 465.239 86.2083C467.321 86.2083 468.964 87.8475 468.964 89.9238C469.293 95.6062 471.485 98.5568 484.635 98.5568C497.785 98.5568 500.634 94.5135 500.634 87.0825V80.0887C496.032 83.4763 490.333 85.2248 484.635 85.0062C463.485 85.0062 461.403 78.5588 461.403 68.7238V27.3073C461.403 25.3402 462.937 23.7011 465.019 23.7011C466.882 23.7011 468.526 25.0124 468.636 26.9794C468.636 27.0887 468.636 27.198 468.636 27.4165V68.0681C468.636 75.499 469.403 79.433 484.525 79.433C499.648 79.433 500.525 75.499 500.525 68.0681V27.4165C500.525 25.4495 502.059 23.8104 504.141 23.8104C506.114 23.8104 507.648 25.3402 507.648 27.3073C507.648 27.3073 507.648 27.3073 507.648 27.4165L507.867 27.3073ZM438.39 33.5361C438.39 35.1753 437.075 36.5959 435.432 36.7052H415.378V80.3073C415.597 82.2743 414.063 84.132 412.09 84.2413C410.118 84.4598 408.255 82.9299 408.145 80.9629C408.145 80.7444 408.145 80.5258 408.145 80.3073V24.5753C408.145 14.8495 409.789 8.94849 426.117 8.94849H435.541C437.185 8.72994 438.61 9.82272 438.829 11.4619C439.048 13.1011 437.952 14.5217 436.308 14.7402C436.089 14.7402 435.98 14.7402 435.76 14.7402H426.336C416.583 14.7402 415.706 17.9093 415.706 25.4495V30.1485H435.76C437.404 30.367 438.61 31.6784 438.5 33.3176V33.5361H438.39ZM233.029 55.7196C231.166 55.8289 229.522 54.5176 229.303 52.5506V39.765C229.303 32.3341 228.098 28.4 214.181 28.4C200.263 28.4 199.168 32.3341 199.168 39.765V80.4165C199.058 82.3835 197.524 83.9134 195.551 83.9134C193.579 83.9134 191.935 82.3835 191.935 80.3073V26.7609C191.935 24.9031 193.579 23.4825 195.442 23.5918C195.442 23.5918 195.442 23.5918 195.551 23.5918C197.085 23.5918 198.4 24.466 198.948 25.7774C198.948 26.3237 198.948 26.8701 198.948 27.4165C203.332 24.2475 208.592 22.499 214.071 22.499C233.796 22.499 236.536 29.0557 236.536 38.7815V52.2227C236.536 54.0805 235.111 55.5011 233.358 55.6104C233.358 55.6104 233.139 55.6104 233.029 55.6104V55.7196Z" fill="white"/>
<path d="M530.661 30.8042C530.661 35.2846 527.154 38.8908 522.551 38.8908C517.949 38.8908 514.332 35.3939 514.332 30.8042C514.332 26.2145 517.949 22.8268 522.551 22.8268C527.154 22.8268 530.661 26.3238 530.661 30.8042ZM516.305 30.8042C516.305 34.3011 518.935 37.1423 522.551 37.1423C526.168 37.1423 528.578 34.3011 528.578 30.8042C528.578 27.3073 526.058 24.466 522.442 24.466C518.825 24.466 516.305 27.3073 516.305 30.8042ZM521.236 34.9567H519.373V26.9794C520.14 26.8701 521.127 26.7609 522.442 26.7609C523.757 26.7609 524.633 26.9794 525.181 27.3073C525.62 27.6351 525.948 28.2908 525.948 29.0557C525.948 29.8207 525.291 30.5856 524.305 30.9134C525.072 31.3506 525.51 31.8969 525.729 32.9897C525.948 34.1918 526.168 34.7382 526.277 34.9567H524.305C524.085 34.6289 523.866 33.9732 523.647 32.9897C523.537 32.1155 522.99 31.6784 522.003 31.6784H521.127V34.8475L521.236 34.9567ZM521.346 30.4763H522.222C523.209 30.4763 524.085 30.1485 524.085 29.2743C524.085 28.4 523.537 28.0722 522.332 28.0722C521.127 28.0722 521.455 28.0722 521.346 28.0722V30.3671V30.4763Z" fill="white"/>
</g>
<defs>
<clipPath id="clip0_2_46">
<rect width="526" height="105" fill="white"/>
</clipPath>
</defs>
</svg>
