<svg width="526" height="105" viewBox="0 0 526 105" fill="none" xmlns="http://www.w3.org/2000/svg">
<g clip-path="url(#clip0_2_33)">
<path d="M57.9994 79.7751C55.8433 77.4035 54.0105 74.7086 52.5012 71.9058C52.0699 71.1512 51.3153 70.72 50.4528 70.72C49.5903 70.72 48.8356 71.1512 48.4044 71.9058C46.7873 74.7086 45.0623 77.2957 43.0139 79.7751C40.5343 82.6857 38.0547 85.3806 35.6829 87.6444C35.036 88.2912 34.8204 89.2614 35.1438 90.1238C39.4562 100.041 44.4155 105 50.4528 105C56.4901 105 61.4493 100.041 65.6539 90.1238C65.9773 89.2614 65.7617 88.2912 65.1149 87.6444C62.8509 85.165 60.3712 82.4701 57.9994 79.6673V79.7751ZM50.5606 100.58C46.0326 100.58 42.3671 94.9747 39.9953 89.8004C42.2593 87.5366 44.4155 85.165 46.4638 82.6857C47.9732 80.9609 49.2669 79.2361 50.5606 77.2957C51.7465 79.1283 53.148 80.9609 54.5495 82.5779C56.7057 85.165 58.9697 87.5366 61.0181 89.6926C58.7541 94.8669 54.9808 100.472 50.5606 100.472V100.58ZM68.7804 34.0685C68.0257 33.0983 66.6242 32.8827 65.6539 33.6373C61.9884 36.2245 56.3823 42.5846 59.0775 49.5915C56.2745 50.9929 54.1183 53.3644 53.0402 56.3828C51.2075 62.2039 53.9027 69.5342 61.2337 78.2659C77.0817 97.2385 88.1861 99.2867 92.175 99.2867C93.7922 99.2867 95.3015 98.9633 96.703 98.1009V97.8853C98.967 96.5917 100.369 94.4357 100.584 91.9564C102.201 82.4701 91.7438 63.4975 68.7804 34.0685ZM96.3796 91.2018C96.3796 92.4954 95.5171 93.6811 94.439 94.3279H94.2234C93.6844 94.6513 92.9297 94.7591 92.2828 94.6513C89.6954 94.6513 79.7769 93.2499 64.6836 75.2476C58.5385 67.9173 55.9511 61.7727 57.2448 57.6764C58.2151 55.3048 60.2634 53.4722 62.6352 52.7176C63.2821 52.502 63.929 52.0709 64.2524 51.4241C64.5758 50.7773 64.468 50.0227 64.0368 49.3759C61.1259 44.9561 64.468 40.752 66.6242 38.4882C93.9 74.0618 96.9186 86.5664 96.2718 90.9862L96.3796 91.2018ZM47.9732 56.275C46.8951 53.2566 44.7389 50.7773 41.828 49.4837C44.3076 42.5846 38.7016 36.2245 35.2517 33.5295C34.2814 32.7749 32.8798 32.9905 32.1252 33.9607C9.3774 63.4975 -1.18792 82.4701 0.105797 91.8486C0.429225 94.3279 1.72294 96.4839 3.87913 97.7775L4.09474 97.9931C5.38845 98.7477 7.00559 99.1789 8.51492 99.1789C12.6117 99.1789 23.7161 97.1307 39.4562 78.1581C47.1107 69.3186 49.9137 61.9883 47.9732 56.275ZM8.73055 94.7591C8.08369 94.7591 7.43683 94.7591 6.78998 94.4357L6.57436 94.2201C5.49627 93.5733 4.7416 92.3875 4.63379 91.094C3.87912 86.6742 7.0056 73.8462 34.2814 38.596C36.4376 40.752 39.6718 44.9561 36.8688 49.4837C36.4376 50.1305 36.4376 50.8851 36.6532 51.5319C36.9766 52.1787 37.5157 52.7176 38.2703 52.8254C40.7499 53.58 42.6905 55.3048 43.6608 57.7842C44.9545 61.8805 42.4749 68.025 36.3298 75.4632C21.1286 93.3577 11.318 94.8669 8.51492 94.8669L8.73055 94.7591ZM28.8909 25.229C30.2924 26.9538 32.0174 28.463 34.0658 29.3253C39.025 31.9125 44.5233 33.0983 50.0215 32.7749H50.7762C56.0589 32.7749 61.3415 31.8047 66.193 29.6487C68.6726 28.7863 70.9366 27.1694 72.5537 25.0134C74.0631 23.073 74.9255 20.5936 74.9255 18.1143C74.9255 17.3597 74.9255 16.7129 74.7099 15.9583C73.2006 10.4606 68.1335 6.68762 62.3118 6.90322C61.1259 6.90322 59.94 7.11882 58.7541 7.44221C58.3229 7.44221 57.8916 7.65781 57.5682 7.87341C57.0292 7.76561 56.5979 7.44222 56.3823 7.01102C55.8433 6.04083 56.1667 4.74725 57.137 4.20825C58.1073 3.45366 58.3229 2.05228 57.5682 1.0821C56.9213 0.327505 55.9511 0.00410795 54.9808 0.327504C51.8543 2.05228 50.7762 5.93303 52.5012 9.05919C52.5012 9.05919 52.5012 9.27479 52.609 9.27479C53.148 10.245 54.0105 10.9996 54.9808 11.6464C54.4417 13.6945 54.3339 15.7427 54.5495 17.7909C54.873 21.3482 56.0589 24.69 57.9994 27.6006C55.6276 28.0318 53.2558 28.2474 50.884 28.2474C48.4044 28.2474 45.9248 28.2474 43.553 27.8162C45.6014 24.9056 46.7873 21.456 47.1107 17.8987C47.4341 15.6349 47.1107 13.3711 46.4638 11.323C47.3263 10.784 48.081 10.1372 48.62 9.27479C49.4825 7.76561 49.6981 5.93303 49.2669 4.31605C48.8356 2.59128 47.7575 1.18989 46.2482 0.327504C45.0623 -0.319288 43.553 0.00410713 42.9061 1.18989C42.2593 2.26788 42.5827 3.66926 43.6608 4.31605C44.092 4.63945 44.4155 5.07064 44.6311 5.50184C44.7389 6.04083 44.6311 6.57983 44.4155 7.01102C44.1998 7.33442 43.8764 7.65781 43.4452 7.76561C43.1217 7.55001 42.6905 7.44221 42.2593 7.44221C41.1812 7.11882 40.1031 7.01102 39.025 7.01102C33.3111 6.68762 28.1362 10.4606 26.6269 16.0661C26.4113 16.8207 26.4113 17.4675 26.4113 18.2221C26.4113 20.7014 27.2738 23.1808 28.8909 25.1212V25.229ZM62.8509 26.0914C61.665 26.0914 59.401 22.3184 58.7541 17.3597C58.4307 13.9101 59.0775 12.0776 59.8322 11.862C60.5869 11.6464 61.3415 11.6464 62.0962 11.6464C65.6539 11.4308 68.996 13.6945 69.9663 17.1441C69.9663 17.5753 70.1819 18.0065 70.1819 18.4377V19.3001C69.4272 22.1028 67.3789 24.4744 64.6836 25.4446C64.1446 25.768 63.6055 25.9836 63.0665 26.0914H62.8509ZM39.025 11.6464C39.7797 11.6464 40.5343 11.6464 41.289 11.9698C42.0437 12.1854 42.6905 14.1257 42.3671 17.4675C41.828 22.4262 39.4562 26.1992 38.2703 26.1992C37.6235 26.0914 36.9766 25.8758 36.3298 25.5524C35.3595 25.0134 34.3892 24.2588 33.5267 23.5042C32.0174 22.3184 31.1549 20.4859 31.0471 18.5455C31.0471 18.1143 31.0471 17.6831 31.2627 17.2519C32.1252 13.6945 35.4673 11.2152 39.1328 11.5386L39.025 11.6464ZM267.258 23.1808C246.235 23.1808 244.294 29.7565 244.294 39.2428V68.8874C244.294 78.5893 246.342 84.9494 267.258 84.9494C288.173 84.9494 290.221 78.4815 290.221 68.8874V68.1329C290.221 66.1925 288.604 64.5755 286.663 64.5755C284.83 64.4677 283.213 65.7613 283.105 67.5939C283.105 67.5939 283.105 67.7017 283.105 67.8095V68.2407C283.105 75.571 282.135 79.4517 267.365 79.4517C252.595 79.4517 251.41 75.571 251.41 68.2407V56.275H290.221V39.3506C290.221 29.8643 288.28 23.2886 267.365 23.2886L267.258 23.1808ZM283.105 50.0227H251.517V39.9974C251.517 32.6671 252.38 28.6786 267.365 28.6786C282.351 28.6786 283.105 32.5593 283.105 39.9974V50.0227ZM321.378 23.1808C300.355 23.1808 298.307 29.7565 298.307 39.2428V68.8874C298.307 78.5893 300.355 84.9494 321.378 84.9494C342.401 84.9494 344.341 78.4815 344.341 68.8874V68.1329C344.341 66.1925 342.832 64.5755 340.783 64.5755C338.735 64.5755 337.118 66.1925 337.118 68.1329C337.118 75.4632 336.255 79.3439 321.378 79.3439C306.5 79.3439 305.53 75.4632 305.53 68.1329V56.1672H344.449V39.2428C344.449 29.7565 342.401 23.1808 321.486 23.1808H321.378ZM337.118 50.0227H305.53V39.9974C305.53 32.6671 306.392 28.6786 321.378 28.6786C336.363 28.6786 337.118 32.5593 337.118 39.9974V50.0227ZM181.441 24.151C179.501 24.151 177.883 25.6602 177.883 27.6006V28.0318C173.355 24.4744 167.749 22.7496 162.036 23.073C141.121 23.073 139.18 29.6487 139.18 39.135V68.7796C139.18 78.4815 141.444 84.8416 162.036 84.8416C167.642 85.0572 173.248 83.3325 177.776 79.9907V86.8898C177.776 94.2201 177.021 98.2087 162.036 98.2087C147.05 98.2087 146.942 95.0825 146.619 89.1536C146.511 87.2132 144.894 85.8118 142.953 85.8118C141.12 85.704 139.503 87.1054 139.396 88.938C139.396 88.938 139.396 89.0458 139.396 89.1536V89.8004C139.719 98.3165 142.522 103.814 162.036 103.814C181.549 103.814 184.999 97.3463 184.999 87.7522V27.6006C184.999 25.6602 183.382 24.151 181.441 24.151ZM177.668 68.0251C177.668 75.3554 176.913 79.2361 161.928 79.2361C146.942 79.2361 146.295 75.3554 146.295 68.0251V40.213C146.295 32.8827 147.05 29.1097 161.928 29.1097C176.805 29.1097 177.668 32.9905 177.668 40.213V68.0251ZM397.599 39.2428V80.0985C397.383 82.0389 395.658 83.5481 393.718 83.3325C391.993 83.2247 390.591 81.8233 390.484 80.0985V39.9974C390.484 32.6671 389.406 28.7863 374.743 28.7863C360.081 28.7863 359.003 32.6671 359.003 39.9974V80.0985C359.003 82.0389 357.386 83.6559 355.446 83.6559C353.505 83.6559 351.888 82.0389 351.888 80.0985V27.385C351.888 25.5524 353.505 24.151 355.338 24.2588C355.338 24.2588 355.338 24.2588 355.446 24.2588C357.386 24.2588 359.003 25.8758 359.003 27.924V28.1396C363.531 24.7978 369.137 23.073 374.743 23.2886C395.227 23.1808 397.599 29.5409 397.599 39.2428ZM450.102 13.4789V80.2063C450.102 82.1467 448.485 83.7637 446.545 83.7637C444.604 83.7637 442.987 82.1467 442.987 80.2063V13.4789C442.987 11.5386 444.496 9.92159 446.545 9.92159C448.485 9.92159 449.994 11.5386 450.102 13.4789ZM503.576 27.924V87.86C503.576 97.4541 501.635 103.922 480.612 103.922C459.589 103.922 458.404 98.4243 457.972 90.016V89.6926C457.972 87.6444 459.589 86.0274 461.638 86.0274C463.686 86.0274 465.303 87.6444 465.303 89.6926C465.627 95.2981 467.783 98.2087 480.72 98.2087C493.657 98.2087 496.46 94.2201 496.46 86.8898V79.9907C491.932 83.3325 486.326 85.0572 480.72 84.8416C459.913 84.8416 457.864 78.4815 457.864 68.7796V27.924C457.864 25.9836 459.374 24.3666 461.422 24.3666C463.255 24.3666 464.872 25.6602 464.98 27.6006C464.98 27.7084 464.98 27.8162 464.98 28.0318V68.1329C464.98 75.4632 465.735 79.3439 480.612 79.3439C495.49 79.3439 496.352 75.4632 496.352 68.1329V28.0318C496.352 26.0914 497.862 24.4744 499.91 24.4744C501.851 24.4744 503.36 25.9836 503.36 27.924C503.36 27.924 503.36 27.924 503.36 28.0318L503.576 27.924ZM435.225 34.0685C435.225 35.6855 433.931 37.0868 432.314 37.1946H412.585V80.2063C412.8 82.1467 411.291 83.9793 409.35 84.0871C407.41 84.3026 405.577 82.7935 405.469 80.8531C405.469 80.6375 405.469 80.4219 405.469 80.2063V25.229C405.469 15.6349 407.086 9.81378 423.15 9.81378H432.421C434.039 9.59819 435.44 10.6762 435.656 12.2932C435.871 13.9101 434.793 15.3115 433.176 15.5271C432.961 15.5271 432.853 15.5271 432.637 15.5271H423.365C413.77 15.5271 412.908 18.6533 412.908 26.0914V30.7267H432.637C434.254 30.9423 435.44 32.2359 435.332 33.8529V34.0685H435.225ZM233.19 55.9516C231.357 56.0594 229.74 54.7658 229.524 52.8254V40.213C229.524 32.8827 228.338 29.0019 214.646 29.0019C200.955 29.0019 199.877 32.8827 199.877 40.213V80.3141C199.769 82.2545 198.259 83.7637 196.319 83.7637C194.378 83.7637 192.761 82.2545 192.761 80.2063V27.385C192.761 25.5524 194.378 24.151 196.211 24.2588C196.211 24.2588 196.211 24.2588 196.319 24.2588C197.828 24.2588 199.122 25.1212 199.661 26.4148C199.661 26.9538 199.661 27.4928 199.661 28.0318C203.973 24.9056 209.148 23.1808 214.539 23.1808C233.944 23.1808 236.64 29.6487 236.64 39.2428V52.502C236.64 54.3346 235.238 55.736 233.513 55.8438C233.513 55.8438 233.298 55.8438 233.19 55.8438V55.9516Z" fill="#10181F"/>
<path d="M526 31.3735C526 35.7933 522.55 39.3506 518.022 39.3506C513.494 39.3506 509.936 35.9011 509.936 31.3735C509.936 26.846 513.494 23.5042 518.022 23.5042C522.55 23.5042 526 26.9538 526 31.3735ZM511.877 31.3735C511.877 34.8231 514.464 37.6258 518.022 37.6258C521.58 37.6258 523.952 34.8231 523.952 31.3735C523.952 27.924 521.472 25.1212 517.914 25.1212C514.357 25.1212 511.877 27.924 511.877 31.3735ZM516.728 35.4699H514.896V27.6006C515.65 27.4928 516.621 27.385 517.914 27.385C519.208 27.385 520.071 27.6006 520.61 27.924C521.041 28.2474 521.364 28.8941 521.364 29.6487C521.364 30.4033 520.717 31.1579 519.747 31.4813C520.502 31.9125 520.933 32.4515 521.149 33.5295C521.364 34.7153 521.58 35.2543 521.688 35.4699H519.747C519.531 35.1465 519.316 34.4997 519.1 33.5295C518.992 32.6671 518.453 32.2359 517.483 32.2359H516.621V35.3621L516.728 35.4699ZM516.836 31.0501H517.699C518.669 31.0501 519.531 30.7267 519.531 29.8643C519.531 29.0019 518.992 28.6785 517.806 28.6785C516.621 28.6785 516.944 28.6785 516.836 28.6785V30.9423V31.0501Z" fill="#10181F"/>
</g>
<defs>
<clipPath id="clip0_2_33">
<rect width="526" height="105" fill="white"/>
</clipPath>
</defs>
</svg>
