<svg width="526" height="105" viewBox="0 0 526 105" fill="none" xmlns="http://www.w3.org/2000/svg">
<g clip-path="url(#clip0_2_39)">
<path d="M57.9617 79.6767C55.8378 77.2737 53.9833 74.6444 52.4308 71.8319C52.0319 71.0991 51.2556 70.6573 50.4254 70.6896C49.5845 70.6681 48.7974 71.1422 48.42 71.8965C46.8459 74.6767 45.0239 77.3168 42.9861 79.7737C40.5172 82.6401 38.0697 85.3664 35.6978 87.6185C35.0186 88.2758 34.8137 89.278 35.1695 90.1508C39.4606 100.032 44.4417 105 50.4254 105C56.4092 105 61.455 100.032 65.649 90.1508C66.0156 89.3103 65.8107 88.3297 65.1207 87.7155C62.835 85.2802 60.3984 82.5646 57.9509 79.6875L57.9617 79.6767ZM50.5117 100.453C46.0373 100.453 42.3608 94.8599 39.9781 89.709C42.2638 87.4461 44.4201 85.0539 46.4362 82.5431C47.9133 80.8513 49.2718 79.0732 50.5117 77.1982C51.7192 79.0625 53.0669 80.8405 54.5224 82.5107C56.7111 85.1401 58.9105 87.4784 61.0129 89.6767C58.7919 94.8599 54.9537 100.453 50.5117 100.453ZM68.7109 33.987C67.967 33.028 66.5978 32.834 65.6166 33.556C61.9401 36.1853 56.3445 42.5431 59.0399 49.4504C56.2151 50.8297 54.048 53.2758 53.013 56.2392C51.1586 62.0151 53.8755 69.3642 61.2285 78.0711C77.1098 97.0258 88.2256 99.1271 92.1177 99.1271C93.6918 99.2241 95.2659 98.8254 96.5921 97.9849L96.743 97.8017C98.8454 96.5086 100.236 94.3211 100.517 91.875C102.188 82.3922 91.6541 63.4375 68.7002 33.987H68.7109ZM96.3225 91.0991C96.2147 92.3814 95.4923 93.5345 94.3818 94.1918H94.1986C93.6056 94.4935 92.9479 94.6228 92.2794 94.5582C89.6487 94.5582 79.7728 93.1358 64.7002 75.1724C58.5224 67.8233 55.924 61.7457 57.2609 57.6401C58.2313 55.2586 60.2366 53.459 62.6948 52.7263C63.3741 52.5323 63.9455 52.0582 64.2689 51.4332C64.5493 50.7758 64.4738 50.0215 64.0857 49.4289C61.2178 45.0431 64.5169 40.7866 66.7164 38.5883C93.9614 74.1271 97.0233 86.6595 96.3441 91.0991H96.3225ZM47.9457 56.1853C46.8891 53.1789 44.6573 50.7327 41.7678 49.3965C44.3015 42.4784 38.6735 36.1207 35.1911 33.5021C34.2207 32.7802 32.8407 32.9741 32.0968 33.9332C9.36924 63.4375 -1.16435 82.3922 0.0970914 91.8103C0.36663 94.2564 1.75745 96.4439 3.87064 97.737L4.05392 97.9202C5.39084 98.7177 6.94338 99.1164 8.50671 99.0625C12.5498 99.0625 23.6764 97.0582 39.3959 78.1034C47.0831 69.2995 49.8971 61.9612 47.9564 56.1853H47.9457ZM8.72234 94.6228C8.07545 94.6659 7.41777 94.5689 6.80322 94.3427L6.61994 94.1595C5.50943 93.5129 4.79785 92.3491 4.70082 91.0668C3.98923 86.6164 7.0512 73.8685 34.3825 38.5776C36.5711 40.7651 39.8164 44.9677 37.0132 49.4181C36.6142 50.0108 36.5495 50.7651 36.8299 51.4224C37.1102 52.0797 37.7032 52.5646 38.404 52.7155C40.873 53.4375 42.8675 55.2478 43.8379 57.6293C45.164 61.7349 42.598 67.8125 36.4849 75.2586C21.2613 93.2004 11.4285 94.612 8.71156 94.612L8.72234 94.6228ZM28.8623 25.1293C30.2423 26.8965 32.0321 28.3082 34.0806 29.2349C38.997 31.778 44.4956 32.9741 50.0157 32.7263H50.792C56.1073 32.8125 61.3687 31.7672 66.242 29.6336C68.7541 28.7284 70.9535 27.1228 72.5707 25C74.0909 23.0172 74.9211 20.5819 74.9211 18.0819C74.9103 17.3599 74.8241 16.6271 74.6732 15.9159C73.1961 10.3771 68.0425 6.61636 62.3175 6.89653C61.1315 6.89653 59.9455 7.06894 58.7919 7.39222C58.3606 7.47843 57.9509 7.62929 57.552 7.82326C57.0561 7.68317 56.614 7.38144 56.3121 6.96119C55.7623 5.95903 56.1181 4.70903 57.11 4.14869C58.0803 3.39438 58.2528 1.99351 57.4873 1.02369C56.8836 0.2586 55.8593 -0.0323483 54.9429 0.312479C51.8486 2.01507 50.7273 5.90515 52.4416 8.99782C52.4955 9.08403 52.5494 9.18101 52.6033 9.26722C53.1855 10.2263 53.9941 11.0237 54.9537 11.6164C54.4038 13.6207 54.2529 15.722 54.5224 17.7909C54.8459 21.2931 56.0426 24.6551 58.0156 27.5754C55.6437 27.9741 53.2502 28.1789 50.8459 28.1896C48.3877 28.2435 45.9295 28.1034 43.4929 27.7909C45.5198 24.8599 46.7489 21.4547 47.0724 17.9095C47.3419 15.6896 47.1263 13.4267 46.4255 11.3039C47.2772 10.7866 47.9996 10.0862 48.5602 9.26722C49.4551 7.76938 49.6815 5.96981 49.1748 4.29955C48.7327 2.61851 47.633 1.18532 46.1128 0.312479C44.9484 -0.3664 43.4605 0.021531 42.7813 1.17455C42.1452 2.25213 42.5117 3.63144 43.5791 4.25644C44.0319 4.54739 44.377 4.97843 44.5387 5.49567C44.6896 6.01291 44.6249 6.57326 44.3554 7.03662C44.1182 7.39222 43.784 7.67239 43.3958 7.83403C43.0508 7.62929 42.6519 7.51075 42.253 7.4892C41.1964 7.19825 40.1075 7.04739 39.0077 7.02584C33.2612 6.69179 28.086 10.4741 26.6521 16.0452C26.4688 16.7564 26.3933 17.4784 26.4041 18.2112C26.4364 20.7112 27.2882 23.1358 28.8407 25.097L28.8623 25.1293ZM62.835 25.9914C61.6275 25.9914 59.3418 22.2198 58.7272 17.2521C58.3822 13.8577 59.0722 11.9396 59.773 11.7564C60.517 11.584 61.2932 11.4978 62.0587 11.5086C65.649 11.2608 68.9266 13.5452 69.94 17.0043C70.0479 17.4245 70.1126 17.8664 70.1233 18.2974V19.1595C69.4225 22.0043 67.3525 24.3211 64.5924 25.334C64.0641 25.6142 63.5035 25.8297 62.9212 25.9806H62.8242L62.835 25.9914ZM39.0185 11.5733C39.784 11.5733 40.5603 11.6702 41.3042 11.8534C42.0158 12.0366 42.695 14.0409 42.35 17.3491C41.8217 22.3168 39.4498 26.0883 38.2423 26.0883C37.5738 25.9375 36.9269 25.7327 36.3016 25.4741C35.3097 24.903 34.3717 24.2349 33.5199 23.4698C32.0429 22.2521 31.1264 20.4741 30.9863 18.556C30.9539 18.1142 31.0186 17.6724 31.1695 17.2629C32.0105 13.6853 35.3528 11.2715 39.0185 11.584V11.5733ZM267.264 23.028C246.262 23.028 244.256 29.5689 244.256 39.084V68.6961C244.256 78.3944 246.359 84.7521 267.264 84.7521C288.17 84.7521 290.218 78.2974 290.218 68.6961V67.8987C290.218 65.9159 288.612 64.3211 286.639 64.3211C286.639 64.3211 286.617 64.3211 286.606 64.3211C284.784 64.1702 283.189 65.5172 283.038 67.3383C283.038 67.4138 283.038 67.4892 283.027 67.5646V67.9633C283.027 75.3125 282.067 79.1379 267.275 79.1379C252.483 79.1379 251.34 75.2478 251.34 67.9633V56.0452H290.164V39.0948C290.229 29.5905 288.224 23.0388 267.275 23.0388L267.264 23.028ZM283.048 49.9138H251.415V39.8814C251.415 32.5323 252.31 28.6099 267.264 28.6099C282.218 28.6099 283.048 32.5323 283.048 39.8814V49.9138ZM321.355 23.028C300.32 23.028 298.315 29.5689 298.315 39.084V68.6961C298.315 78.3944 300.417 84.7521 321.355 84.7521C342.293 84.7521 344.309 78.2974 344.309 68.6961V67.8987C344.331 65.9375 342.746 64.3319 340.784 64.3211C340.762 64.3211 340.741 64.3211 340.719 64.3211C338.724 64.2995 337.096 65.9051 337.075 67.8987C337.075 67.9202 337.075 67.9418 337.075 67.9633C337.075 75.3125 336.212 79.1379 321.323 79.1379C306.434 79.1379 305.474 75.2478 305.474 67.9633V56.0452H344.363V39.0948C344.363 29.5905 342.261 23.0388 321.355 23.0388V23.028ZM337.107 49.9138H305.571V39.8814C305.571 32.5323 306.434 28.6099 321.42 28.6099C336.406 28.6099 337.172 32.5323 337.172 39.8814L337.107 49.9138ZM181.357 24.0733C179.427 24.0733 177.853 25.625 177.831 27.5646V27.9957C173.324 24.472 167.696 22.7047 161.982 23.028C141.044 23.028 139.125 29.5689 139.125 39.084V68.6961C139.125 78.3944 141.411 84.7521 161.982 84.7521C167.632 84.9569 173.195 83.2651 177.766 79.9353V86.8534C177.766 94.1702 176.969 98.125 161.982 98.125C148.764 98.125 146.845 95.0323 146.532 89.1056C146.381 87.1983 144.764 85.7435 142.856 85.7974C141.023 85.6573 139.416 87.0366 139.287 88.8793C139.287 88.9547 139.287 89.0302 139.287 89.1056V89.7198C139.632 98.2758 142.381 103.772 161.961 103.772C182.898 103.772 184.915 97.3168 184.915 87.7155V27.5646C184.839 25.6465 183.276 24.1271 181.367 24.0733H181.357ZM177.68 67.9526C177.68 75.3017 176.882 79.1271 161.896 79.1271C146.91 79.1271 146.23 75.237 146.23 67.9526V40.1616C146.23 32.8448 147.007 29.0194 161.896 29.0194C176.785 29.0194 177.68 32.8448 177.68 40.1616V67.9526ZM397.613 39.1379V80.0107C397.43 81.9935 395.673 83.459 393.678 83.2758C391.942 83.1142 390.573 81.7457 390.411 80.0107V39.8707C390.411 32.5539 389.365 28.6314 374.659 28.6314C359.953 28.6314 358.972 32.5539 358.972 39.8707V80.0107C358.972 81.9935 357.366 83.5883 355.393 83.5883C353.409 83.5883 351.813 81.9827 351.813 80.0107V27.2845C351.91 25.4849 353.452 24.0948 355.253 24.1918C355.296 24.1918 355.35 24.1918 355.393 24.1918C357.376 24.2133 358.972 25.8189 358.972 27.8017V28.0495C363.522 24.6659 369.096 22.9418 374.756 23.1681C395.241 23.0172 397.613 29.4612 397.613 39.0625V39.1271V39.1379ZM450.13 13.3944V80.0754C450.13 82.0582 448.524 83.653 446.551 83.653C444.578 83.653 442.971 82.0474 442.971 80.0754V13.3297C442.95 11.3685 444.535 9.76291 446.497 9.75213C446.518 9.75213 446.54 9.75213 446.562 9.75213C448.491 9.82757 450.033 11.4008 450.087 13.3297L450.152 13.3944H450.13ZM503.596 27.8125V87.7047C503.596 97.306 501.677 103.761 480.674 103.761C461.397 103.761 458.497 98.2651 458.065 89.903V89.5582C458.065 87.5323 459.715 85.8836 461.742 85.8836C463.769 85.8836 465.418 87.5323 465.418 89.5582V89.709C465.785 95.2047 467.952 98.1034 480.868 98.1034C495.855 98.1034 496.653 94.1487 496.653 86.8319V79.9138C492.103 83.2758 486.529 84.9784 480.868 84.7306C460.114 84.7306 458.012 78.3728 458.012 68.6745V27.8125C457.99 25.8513 459.575 24.2457 461.537 24.2349C461.569 24.2349 461.602 24.2349 461.634 24.2349C463.489 24.1487 465.073 25.5819 465.16 27.4353C465.16 27.5646 465.16 27.6939 465.16 27.8125V67.9526C465.16 75.3017 465.936 79.1271 480.825 79.1271C495.715 79.1271 496.61 75.3017 496.61 67.9526V27.8125C496.588 25.8513 498.173 24.2457 500.135 24.2349C500.157 24.2349 500.178 24.2349 500.2 24.2349C502.097 24.2349 503.628 25.7651 503.628 27.6616C503.628 27.7155 503.628 27.7694 503.628 27.8233L503.596 27.8125ZM435.209 33.987C435.209 35.625 433.936 36.972 432.308 37.0797H412.535V80.1185C412.718 82.1013 411.263 83.8685 409.268 84.0517C407.284 84.2349 405.516 82.7802 405.333 80.7866C405.311 80.5603 405.311 80.3448 405.333 80.1185V25.1293C405.333 15.528 406.907 9.68748 423.036 9.68748H432.308C433.893 9.47196 435.359 10.5819 435.575 12.1659C435.791 13.75 434.68 15.2155 433.095 15.431C432.912 15.4526 432.729 15.4633 432.556 15.4526H423.284C413.742 15.4526 412.783 18.5452 412.783 26.0129V30.6142H432.556C434.141 30.8082 435.316 32.1659 435.273 33.7608L435.209 33.9763V33.987ZM233.13 55.8405C231.275 55.9806 229.658 54.6013 229.518 52.7478V40.0862C229.518 32.7694 228.31 28.847 214.629 28.847C200.947 28.847 199.836 32.7694 199.836 40.0862V80.2263C199.728 82.1336 198.165 83.6422 196.257 83.6853C194.295 83.7069 192.688 82.1228 192.677 80.1616C192.677 80.1401 192.677 80.1185 192.677 80.097V27.2845C192.774 25.4849 194.316 24.0948 196.117 24.1918C196.16 24.1918 196.214 24.1918 196.257 24.1918C197.712 24.1702 199.038 25.0431 199.588 26.3793C199.653 26.9181 199.653 27.4676 199.588 28.0172C203.912 24.8599 209.119 23.1573 214.478 23.1358C233.938 23.1358 236.558 29.5905 236.558 39.1918V52.5C236.612 54.2888 235.2 55.7866 233.41 55.8405C233.313 55.8405 233.216 55.8405 233.13 55.8405Z" fill="#79982D"/>
<path d="M526 31.2824C526 35.722 522.507 39.2134 517.978 39.2134C513.45 39.2134 509.903 35.7328 509.903 31.2824C509.903 26.8319 513.483 23.4483 517.978 23.4483C522.474 23.4483 526 26.9289 526 31.2824ZM511.908 31.2824C511.908 34.763 514.485 37.5324 518.022 37.5324C521.558 37.5324 523.995 34.763 523.995 31.3255C523.995 27.888 521.461 25.0216 517.978 25.0216C514.496 25.0216 511.908 27.8341 511.908 31.2824ZM516.739 35.388H514.927V27.5539C515.639 27.4138 516.652 27.3168 517.935 27.3168C519.412 27.3168 520.081 27.5539 520.663 27.888C521.094 28.222 521.429 28.847 521.429 29.6121C521.429 30.4742 520.76 31.1423 519.801 31.4224V31.5194C520.566 31.8104 520.997 32.3815 521.235 33.4268C521.472 34.6229 521.612 35.097 521.806 35.388H519.844C519.606 35.097 519.456 34.3858 519.218 33.4806C519.078 32.6186 518.593 32.2414 517.59 32.2414H516.728V35.388H516.739ZM516.782 30.9483H517.644C518.647 30.9483 519.456 30.6143 519.456 29.8061C519.456 29.0949 518.927 28.6099 517.784 28.6099C517.31 28.6099 516.976 28.653 516.782 28.7069V30.9483Z" fill="#10181F"/>
</g>
<defs>
<clipPath id="clip0_2_39">
<rect width="526" height="105" fill="white"/>
</clipPath>
</defs>
</svg>
