<svg width="448" height="110" viewBox="0 0 448 110" fill="none" xmlns="http://www.w3.org/2000/svg">
<path d="M148.069 15.5146C123.765 15.5146 121.521 23.1316 121.521 34.1186V68.4556C121.521 79.6936 123.889 87.0606 148.069 87.0606C172.249 87.0606 174.617 79.5686 174.617 68.4556V67.5826C174.617 65.3346 172.747 63.4616 170.504 63.4616C168.385 63.3366 166.515 64.8356 166.39 66.9576V67.7066C166.39 76.1976 165.269 80.6926 148.194 80.6926C131.118 80.6926 129.747 76.1976 129.747 67.7066V53.8476H174.617V34.2436C174.617 23.2566 172.373 15.6396 148.194 15.6396L148.069 15.5146ZM166.39 46.6056H129.872V34.9936C129.872 26.5026 130.869 21.8826 148.194 21.8826C165.518 21.8826 166.39 26.3776 166.39 34.9936V46.6056ZM210.637 15.5146C186.332 15.5146 183.965 23.1316 183.965 34.1186V68.4556C183.965 79.6936 186.332 87.0606 210.637 87.0606C234.941 87.0606 237.185 79.5686 237.185 68.4556V67.5826C237.185 65.3346 235.439 63.4616 233.072 63.4616C230.703 63.4616 228.834 65.3346 228.834 67.5826C228.834 76.0726 227.837 80.5676 210.637 80.5676C193.437 80.5676 192.315 76.0726 192.315 67.5826V53.7226H237.309V34.1186C237.309 23.1316 234.941 15.5146 210.762 15.5146H210.637ZM228.834 46.6056H192.315V34.9936C192.315 26.5026 193.312 21.8826 210.637 21.8826C227.961 21.8826 228.834 26.3776 228.834 34.9936V46.6056ZM48.858 16.6386C46.614 16.6386 44.745 18.3866 44.745 20.6336V21.1336C39.51 17.0126 33.029 15.0146 26.423 15.3896C2.243 15.3896 0 23.0066 0 33.9936V68.3316C0 79.5686 2.617 86.9356 26.423 86.9356C32.904 87.1856 39.385 85.1876 44.62 81.3166V89.3076C44.62 97.7986 43.748 102.419 26.423 102.419C9.098 102.419 8.97401 98.7976 8.60001 91.9296C8.47501 89.6826 6.606 88.0596 4.362 88.0596C2.243 87.9346 0.373993 89.5576 0.248993 91.6806V92.6796C0.622993 102.544 3.864 108.912 26.423 108.912C48.982 108.912 52.971 101.42 52.971 90.3066V20.6336C52.971 18.3866 51.101 16.6386 48.858 16.6386ZM44.495 67.4576C44.495 75.9476 43.623 80.4426 26.298 80.4426C8.974 80.4426 8.226 75.9476 8.226 67.4576V35.2426C8.226 26.7516 9.098 22.3816 26.298 22.3816C43.498 22.3816 44.495 26.8766 44.495 35.2426V67.4576ZM298.755 34.1186V81.4416C298.506 83.6886 296.512 85.4376 294.268 85.1876C292.274 85.0626 290.654 83.4396 290.529 81.4416V34.9936C290.529 26.5026 289.283 22.0076 272.332 22.0076C255.381 22.0076 254.135 26.5026 254.135 34.9936V81.4416C254.135 83.6886 252.265 85.5626 250.022 85.5626C247.779 85.5626 245.909 83.6886 245.909 81.4416V20.3846C245.909 18.2616 247.779 16.6386 249.897 16.7636H250.022C252.265 16.7636 254.135 18.6356 254.135 21.0086V21.2576C259.37 17.3876 265.851 15.3896 272.332 15.6396C296.013 15.5146 298.755 22.8816 298.755 34.1186ZM359.454 4.27662V81.5666C359.454 83.8136 357.584 85.6876 355.341 85.6876C353.097 85.6876 351.228 83.8136 351.228 81.5666V4.27662C351.228 2.02962 352.972 0.156616 355.341 0.156616C357.584 0.156616 359.329 2.02962 359.454 4.27662ZM421.274 21.0086V90.4316C421.274 101.545 419.03 109.037 394.726 109.037C370.422 109.037 369.051 102.669 368.552 92.9286V92.5546C368.552 90.1816 370.422 88.3096 372.79 88.3096C375.158 88.3096 377.027 90.1816 377.027 92.5546C377.401 99.0476 379.894 102.419 394.851 102.419C409.807 102.419 413.047 97.7986 413.047 89.3076V81.3166C407.813 85.1876 401.332 87.1856 394.851 86.9356C370.795 86.9356 368.428 79.5686 368.428 68.3316V21.0086C368.428 18.7606 370.172 16.8876 372.54 16.8876C374.659 16.8876 376.529 18.3866 376.653 20.6336V67.5826C376.653 76.0726 377.526 80.5676 394.726 80.5676C411.926 80.5676 412.923 76.0726 412.923 67.5826V21.1336C412.923 18.8856 414.668 17.0126 417.036 17.0126C419.279 17.0126 421.024 18.7606 421.024 21.0086V21.1336L421.274 21.0086ZM342.254 28.1256C342.254 29.9986 340.758 31.6216 338.888 31.7466H316.08V81.5666C316.329 83.8136 314.584 85.9366 312.341 86.0616C310.097 86.3116 307.978 84.5636 307.854 82.3156V17.8866C307.854 6.77362 309.723 0.0316162 328.294 0.0316162H339.013C340.882 -0.218384 342.503 1.03062 342.752 2.90362C343.001 4.77662 341.755 6.39962 339.886 6.64962H328.543C317.451 6.64962 316.454 10.2706 316.454 18.8856V24.2546H339.262C341.132 24.5046 342.503 26.0026 342.378 27.8756V28.1256H342.254ZM108.684 53.4726C106.565 53.5976 104.695 52.0996 104.446 49.8516V35.2426C104.446 26.7516 103.075 22.2566 87.246 22.2566C71.417 22.2566 70.171 26.7516 70.171 35.2426V81.6916C70.046 83.9386 68.301 85.6876 66.058 85.6876C63.814 85.6876 61.944 83.9386 61.944 81.5666V20.3846C61.944 18.2616 63.814 16.6386 65.933 16.7636H66.058C67.802 16.7636 69.298 17.7616 69.921 19.2606V21.1336C74.907 17.5126 80.889 15.5146 87.121 15.5146C109.556 15.5146 112.672 23.0066 112.672 34.1186V49.4776C112.672 51.5996 111.052 53.2226 109.058 53.3476H108.684V53.4726Z" fill="#B6F500"/>
<path d="M447.198 25.0037C447.198 30.1237 443.209 34.2437 437.975 34.2437C432.74 34.2437 428.627 30.2477 428.627 25.0037C428.627 19.7597 432.74 15.8887 437.975 15.8887C443.209 15.8887 447.198 19.8847 447.198 25.0037ZM430.871 25.0037C430.871 28.9987 433.862 32.2457 437.975 32.2457C442.088 32.2457 444.83 28.9987 444.83 25.0037C444.83 21.0087 441.963 17.7617 437.85 17.7617C433.737 17.7617 430.871 21.0087 430.871 25.0037ZM436.479 29.7487H434.361V20.6337C435.233 20.5087 436.354 20.3837 437.85 20.3837C439.346 20.3837 440.343 20.6337 440.966 21.0087C441.465 21.3827 441.839 22.1317 441.839 23.0057C441.839 23.8797 441.091 24.7537 439.969 25.1287C440.842 25.6277 441.34 26.2527 441.589 27.5007C441.839 28.8747 442.088 29.4987 442.213 29.7487H439.969C439.72 29.3737 439.47 28.6247 439.221 27.5007C439.097 26.5017 438.474 26.0027 437.352 26.0027H436.354V29.6237L436.479 29.7487ZM436.604 24.6297H437.601C438.723 24.6297 439.72 24.2547 439.72 23.2557C439.72 22.2567 439.097 21.8827 437.726 21.8827H436.604V24.6297Z" fill="#B6F500"/>
</svg>
