<svg width="97" height="105" viewBox="0 0 97 105" fill="none" xmlns="http://www.w3.org/2000/svg">
<g clip-path="url(#clip0_2_34)">
<mask id="mask0_2_34" style="mask-type:luminance" maskUnits="userSpaceOnUse" x="0" y="0" width="97" height="105">
<path d="M96.99 0H0V105H96.99V0Z" fill="white"/>
</mask>
<g mask="url(#mask0_2_34)">
<path d="M43.1765 65.0324C43.1765 73.214 42.3291 77.5548 25.5211 77.5548C8.71305 77.5548 7.9853 73.224 7.9853 65.0324V33.9765C7.9853 25.7949 8.83268 21.5741 25.5211 21.5741C42.2095 21.5741 43.1765 25.905 43.1765 33.9765V65.0324ZM47.4134 16.0431C45.2401 16.0431 43.4257 17.7334 43.4257 19.8938V20.3739C38.3414 16.4032 32.0608 14.4728 25.6507 14.8329C2.17328 14.8329 0 22.1843 0 32.7763V65.8826C0 76.7146 2.54214 83.816 25.6407 83.816C31.9312 84.056 38.2218 82.1257 43.2961 78.395V86.0964C43.2961 94.278 42.4487 98.7388 25.6407 98.7388C8.83268 98.7388 8.70308 95.2482 8.34419 88.6269C8.22456 86.4565 6.41017 84.8962 4.2369 84.8962C2.18325 84.7762 0.368859 86.3365 0.249229 88.3869V89.3471C0.608119 98.8589 3.75838 105 25.6507 105C47.543 105 51.411 97.7787 51.411 87.0666V19.8938C51.411 17.7234 49.5966 16.0431 47.4233 16.0431" fill="#79982D"/>
<path d="M96.4816 27.1152C96.4816 28.9255 95.0261 30.4858 93.2117 30.6058H71.0802V78.635C71.3194 80.8054 69.6247 82.8458 67.4514 82.9658C65.2781 83.2058 63.2145 81.5155 63.0948 79.3551V17.2433C63.0948 6.53125 64.9092 0.030016 82.9335 0.030016H93.3313C95.1457 -0.21003 96.7209 0.990199 96.9601 2.80054C97.1994 4.61089 95.9931 6.17119 94.1787 6.41123H83.1728C72.406 6.41123 71.439 9.9019 71.439 18.2035V23.3845H93.5706C95.385 23.6245 96.7109 25.0648 96.5912 26.8751V27.1152H96.4716H96.4816Z" fill="#79982D"/>
</g>
</g>
<defs>
<clipPath id="clip0_2_34">
<rect width="97" height="105" fill="white"/>
</clipPath>
</defs>
</svg>
