<svg width="641" height="654" viewBox="0 0 641 654" fill="none" xmlns="http://www.w3.org/2000/svg">
<g opacity="0.2">
<path d="M241.66 88.992L257.855 2.12703H281.739L255.402 120.728H227.755L209.76 32.39L191.765 120.728H164.119L137.781 2.12703H161.993L179.66 88.501L196.182 2.12703H223.502L241.66 88.992Z" fill="#B6F500"/>
<path d="M546.75 120.728L499.309 30.264V120.728H477.225V2.12603H507.652L555.093 92.591V2.12603H577.177V120.728H546.75Z" fill="#B6F500"/>
<path d="M121.096 198.713H84.6152V179.737H181.133V198.713H144.489V298.339H121.096V198.713Z" fill="#B6F500"/>
<path d="M329.506 179.737V298.339H306.113V247.136H252.947V298.339H229.553V179.737H252.947V228.159H306.113V179.737H329.506Z" fill="#B6F500"/>
<path d="M350.771 179.737H437.146V198.713H374.165V228.159H433.71V247.136H374.165V279.363H437.146V298.339H350.771V179.737Z" fill="white"/>
<path d="M281.2 475.95L251.918 386.794V475.95H230.161V357.348H264.187L292.979 449.776L320.952 357.348H355.306V475.95H333.548V386.794L304.43 475.95H281.2Z" fill="#B6F500"/>
<path d="M487.974 416.567C487.974 425.728 486.609 434.099 483.884 441.678C481.158 449.259 477.26 455.747 472.188 461.145C467.116 466.543 461.007 470.715 453.866 473.659C446.722 476.604 438.734 478.076 429.9 478.076C421.066 478.076 413.076 476.604 405.934 473.659C398.79 470.715 392.684 466.543 387.612 461.145C382.541 455.747 378.641 449.259 375.916 441.678C373.189 434.099 371.826 425.728 371.826 416.567C371.826 407.406 373.189 399.037 375.916 391.456C378.641 383.877 382.541 377.416 387.612 372.071C392.684 366.729 398.79 362.583 405.934 359.638C413.076 356.693 421.066 355.221 429.9 355.221C438.734 355.221 446.722 356.693 453.866 359.638C461.007 362.583 467.116 366.729 472.188 372.071C477.26 377.416 481.158 383.877 483.884 391.456C486.609 399.037 487.974 407.406 487.974 416.567ZM396.037 416.567C396.037 423.547 396.937 429.71 398.737 435.053C400.536 440.397 402.962 444.868 406.016 448.467C409.068 452.066 412.667 454.793 416.813 456.646C420.957 458.502 425.32 459.427 429.9 459.427C434.481 459.427 438.842 458.502 442.987 456.646C447.131 454.793 450.729 452.066 453.784 448.467C456.836 444.868 459.265 440.397 461.064 435.053C462.863 429.71 463.763 423.547 463.763 416.567C463.763 409.589 462.863 403.454 461.064 398.163C459.265 392.874 456.836 388.43 453.784 384.831C450.729 381.232 447.131 378.507 442.987 376.651C438.842 374.798 434.481 373.87 429.9 373.87C425.32 373.87 420.957 374.798 416.813 376.651C412.667 378.507 409.068 381.232 406.016 384.831C402.962 388.43 400.536 392.874 398.737 398.163C396.937 403.454 396.037 409.589 396.037 416.567Z" fill="#B6F500"/>
<path d="M500.898 408.435H555.046V428.066H500.898V408.435Z" fill="#B6F500"/>
<path d="M135.93 653.561L106.648 564.405V653.561H84.8906V534.959H118.917L147.709 627.387L175.682 534.959H210.036V653.561H188.278V564.405L159.16 653.561H135.93Z" fill="white"/>
<path d="M328.72 534.959H415.095V553.935H352.114V583.381H411.659V602.358H352.114V634.585H415.095V653.561H328.72V534.959Z" fill="#B6F500"/>
<path d="M499.178 653.561L451.737 563.096V653.561H429.653V534.959H460.08L507.521 625.424V534.959H529.605V653.561H499.178Z" fill="white"/>
<path d="M541.056 534.959V553.936H577.537V653.561H600.929V553.936H640.5V534.959H541.056Z" fill="white"/>
<path d="M131.892 61.346C131.892 70.507 130.527 78.878 127.802 86.457C125.075 94.038 121.178 100.526 116.106 105.924C111.034 111.322 104.925 115.494 97.7841 118.438C90.6401 121.383 82.6521 122.855 73.8181 122.855C64.9841 122.855 56.9941 121.383 49.8521 118.438C42.7081 115.494 36.6011 111.322 31.5301 105.924C26.4591 100.526 22.5591 94.038 19.8341 86.457C17.1071 78.878 15.7441 70.507 15.7441 61.346C15.7441 52.185 17.1071 43.816 19.8341 36.235C22.5591 28.656 26.4591 22.195 31.5301 16.85C36.6011 11.508 42.7081 7.36198 49.8521 4.41698C56.9941 1.47198 64.9841 -1.52588e-05 73.8181 -1.52588e-05C82.6521 -1.52588e-05 90.6401 1.47198 97.7841 4.41698C104.925 7.36198 111.034 11.508 116.106 16.85C121.178 22.195 125.075 28.656 127.802 36.235C130.527 43.816 131.892 52.185 131.892 61.346ZM39.9551 61.346C39.9551 68.326 40.8551 74.489 42.6551 79.831C44.4541 85.176 46.8801 89.647 49.9341 93.246C52.9861 96.845 56.5851 99.572 60.7311 101.425C64.8741 103.281 69.2381 104.206 73.8181 104.206C78.3991 104.206 82.7601 103.281 86.9051 101.425C91.0491 99.572 94.6471 96.845 97.7021 93.246C100.754 89.647 103.183 85.176 104.982 79.831C106.781 74.489 107.681 68.326 107.681 61.346C107.681 54.368 106.781 48.233 104.982 42.942C103.183 37.653 100.754 33.209 97.7021 29.61C94.6471 26.011 91.0491 23.286 86.9051 21.43C82.7601 19.577 78.3991 18.649 73.8181 18.649C69.2381 18.649 64.8741 19.577 60.7311 21.43C56.5851 23.286 52.9861 26.011 49.9341 29.61C46.8801 33.209 44.4541 37.653 42.6551 42.942C40.8551 48.233 39.9551 54.368 39.9551 61.346Z" fill="white"/>
<path d="M77.558 338.67C34.724 338.67 0 373.394 0 416.228C0 459.063 34.724 493.786 77.558 493.786C120.392 493.786 155.116 459.063 155.116 416.228C155.116 373.394 120.392 338.67 77.558 338.67ZM57.829 382.477C59.083 377.811 63.383 374.671 68.13 374.94C69.025 374.94 69.921 375.03 70.817 375.299C71.175 375.299 71.533 375.389 71.802 375.568C72.16 375.478 72.429 375.209 72.608 374.94C72.787 374.581 72.877 374.132 72.787 373.684C72.608 373.325 72.339 372.966 71.981 372.697C71.086 372.158 70.817 370.992 71.354 370.094C71.892 369.107 73.146 368.838 74.131 369.377C75.385 370.094 76.281 371.261 76.639 372.697C76.997 374.043 76.818 375.568 76.101 376.824C75.654 377.542 75.027 378.08 74.31 378.529C74.847 380.234 75.116 382.118 74.847 384.003C74.579 386.964 73.594 389.835 71.892 392.258C73.862 392.617 75.922 392.617 77.982 392.617C79.953 392.617 81.923 392.437 83.894 392.078C82.282 389.656 81.296 386.874 81.028 383.913C80.849 382.208 80.938 380.503 81.386 378.798C80.58 378.26 79.863 377.632 79.415 376.824C79.326 376.824 79.326 376.645 79.326 376.645C77.893 374.043 78.789 370.812 81.386 369.377C82.192 369.107 82.998 369.377 83.536 370.005C84.163 370.812 83.984 371.979 83.177 372.607C82.371 373.055 82.103 374.132 82.551 374.94C82.73 375.299 83.088 375.568 83.536 375.658C83.805 375.478 84.163 375.299 84.521 375.299C85.506 375.03 86.491 374.85 87.477 374.85C92.314 374.671 96.523 377.811 97.777 382.388C97.957 383.015 97.957 383.554 97.957 384.182C97.957 386.246 97.24 388.31 95.986 389.925C94.642 391.72 92.761 393.066 90.701 393.784C86.671 395.578 82.282 396.386 77.893 396.386H77.266C72.698 396.655 68.13 395.668 64.01 393.514C62.308 392.796 60.875 391.54 59.71 390.105V390.015C58.367 388.399 57.65 386.336 57.65 384.272C57.65 383.644 57.65 383.106 57.829 382.477ZM42.782 451.66C41.528 451.66 40.184 451.301 39.109 450.673L38.93 450.493C37.139 449.417 36.064 447.622 35.795 445.558C34.72 437.752 43.498 421.959 62.397 397.373C63.024 396.565 64.189 396.386 64.995 397.014C67.861 399.257 72.519 404.551 70.459 410.294C72.877 411.371 74.668 413.434 75.564 415.947C77.176 420.703 74.847 426.804 68.488 434.162C55.411 449.955 46.185 451.66 42.782 451.66ZM90.253 444.123C86.76 452.378 82.64 456.505 77.624 456.505C72.608 456.505 68.488 452.378 64.905 444.123C64.637 443.405 64.816 442.597 65.353 442.059C67.324 440.174 69.384 437.931 71.444 435.508C73.146 433.445 74.579 431.291 75.922 428.958C76.281 428.33 76.907 427.971 77.624 427.971C78.341 427.971 78.968 428.33 79.326 428.958C80.58 431.291 82.103 433.534 83.894 435.508V435.419C85.865 437.752 87.924 439.995 89.806 442.059C90.343 442.597 90.522 443.405 90.253 444.123ZM119.274 445.648C119.095 447.712 117.93 449.506 116.049 450.583V450.763C114.885 451.481 113.631 451.75 112.287 451.75C108.974 451.75 99.748 450.045 86.581 434.252C80.49 426.984 78.251 420.882 79.774 416.037C80.67 413.524 82.461 411.55 84.79 410.384C82.551 404.551 87.208 399.257 90.253 397.103C91.059 396.475 92.224 396.655 92.851 397.462C111.929 421.959 120.618 437.752 119.274 445.648Z" fill="#B6F500"/>
<path d="M77.7135 433.445C76.6385 435.06 75.5635 436.496 74.3095 437.931C72.6075 439.995 70.8165 441.969 68.9355 443.854C70.9065 448.161 73.9515 452.827 77.7135 452.827V452.737C81.3855 452.737 84.5205 448.071 86.4015 443.764C84.6995 441.969 82.8185 439.995 81.0275 437.842C79.8625 436.496 78.6985 434.97 77.7135 433.445Z" fill="#B6F500"/>
<path d="M71.9815 417.203C71.1755 415.139 69.5635 413.703 67.5035 413.076C66.8765 412.986 66.4285 412.537 66.1595 411.999C65.9805 411.46 65.9805 410.832 66.3385 410.294C68.6675 406.525 65.9805 403.026 64.1885 401.231C41.5275 430.573 38.9305 441.251 39.5575 444.93C39.6465 446.007 40.2735 446.994 41.1695 447.532L41.3485 447.712C41.8865 447.981 42.4235 447.981 42.9605 447.981L42.7815 448.07C45.1105 448.07 53.2615 446.814 65.8905 431.919C70.9965 425.727 73.0565 420.613 71.9815 417.203Z" fill="#B6F500"/>
<path d="M87.9243 390.822H88.1033C88.5513 390.732 88.9993 390.553 89.4473 390.284C91.6863 389.476 93.3883 387.502 94.0153 385.169V384.451C94.0153 384.092 93.8363 383.733 93.8363 383.374C93.0293 380.503 90.2533 378.619 87.2973 378.798C86.6703 378.798 86.0433 378.798 85.4163 378.978C84.7893 379.157 84.2523 380.682 84.5213 383.554C85.0583 387.681 86.9393 390.822 87.9243 390.822Z" fill="#B6F500"/>
<path d="M63.562 388.669C64.278 389.297 65.085 389.925 65.891 390.374C66.428 390.643 66.966 390.823 67.503 390.912C68.488 390.912 70.459 387.772 70.907 383.644C71.175 380.863 70.638 379.247 70.011 379.068C69.384 378.799 68.757 378.799 68.13 378.799L68.219 378.709C65.174 378.44 62.398 380.503 61.681 383.465C61.502 383.824 61.502 384.183 61.502 384.542C61.592 386.157 62.308 387.682 63.562 388.669Z" fill="#B6F500"/>
<path d="M91.0597 401.142C89.2687 403.026 86.4917 406.526 88.9097 410.205C89.2687 410.743 89.3577 411.371 89.0897 411.91C88.8207 412.448 88.2827 412.807 87.7457 412.986C85.7757 413.615 84.0737 415.14 83.2667 417.114C82.1927 420.524 84.3417 425.638 89.4477 431.74C101.987 446.725 110.228 447.892 112.378 447.892C112.915 447.982 113.542 447.892 113.99 447.623H114.169C115.065 447.084 115.781 446.097 115.781 445.021L115.692 444.841C116.229 441.162 113.721 430.753 91.0597 401.142Z" fill="#B6F500"/>
</g>
</svg>
