<svg width="290" height="58" viewBox="0 0 290 58" fill="none" xmlns="http://www.w3.org/2000/svg">
<g clip-path="url(#clip0_125_694)">
<path d="M31.9564 44.0119C30.7853 42.6846 29.7629 41.2322 28.907 39.6786C28.687 39.2738 28.2591 39.0298 27.8014 39.0477C27.3377 39.0357 26.9038 39.2977 26.6957 39.7143C25.8279 41.25 24.8233 42.7084 23.6999 44.0655C22.3386 45.6488 20.9893 47.1548 19.6816 48.3988C19.3071 48.7619 19.1941 49.3155 19.3903 49.7977C21.7561 55.256 24.5023 58 27.8014 58C31.1004 58 33.8823 55.256 36.1946 49.7977C36.3967 49.3334 36.2837 48.7917 35.9033 48.4524C34.6431 47.1072 33.2997 45.6072 31.9504 44.0179L31.9564 44.0119ZM27.8489 55.4881C25.3821 55.4881 23.3551 52.3988 22.0414 49.5536C23.3016 48.3036 24.4904 46.9822 25.602 45.5953C26.4164 44.6607 27.1653 43.6786 27.8489 42.6429C28.5147 43.6727 29.2577 44.6548 30.0602 45.5774C31.2668 47.0298 32.4794 48.3215 33.6386 49.5357C32.4141 52.3988 30.2979 55.4881 27.8489 55.4881ZM37.8827 18.7738C37.4726 18.2441 36.7177 18.1369 36.1767 18.5358C34.1498 19.9881 31.0647 23.5 32.5508 27.3155C30.9934 28.0774 29.7986 29.4286 29.228 31.0655C28.2056 34.256 29.7035 38.3155 33.7574 43.125C42.5133 53.5953 48.6417 54.756 50.7876 54.756C51.6555 54.8096 52.5233 54.5893 53.2544 54.125L53.3377 54.0238C54.4968 53.3096 55.2636 52.1012 55.4181 50.75C56.3395 45.5119 50.532 35.0417 37.8768 18.7738H37.8827ZM53.1058 50.3215C53.0464 51.0298 52.6481 51.6667 52.0359 52.0298H51.9348C51.6079 52.1965 51.2453 52.2679 50.8768 52.2322C49.4264 52.2322 43.9815 51.4465 35.6715 41.5238C32.2655 37.4643 30.8329 34.1072 31.57 31.8393C32.105 30.5238 33.2106 29.5298 34.5659 29.125C34.9403 29.0179 35.2554 28.756 35.4337 28.4108C35.5883 28.0477 35.5467 27.631 35.3327 27.3036C33.7515 24.881 35.5704 22.5298 36.7831 21.3155C51.8041 40.9465 53.4922 47.8691 53.1177 50.3215H53.1058ZM26.4342 31.0358C25.8517 29.375 24.6212 28.0238 23.0282 27.2858C24.425 23.4643 21.3222 19.9524 19.4022 18.506C18.8672 18.1072 18.1064 18.2143 17.6962 18.7441C5.16582 35.0417 -0.641675 45.5119 0.0537973 50.7143C0.202402 52.0655 0.969205 53.2738 2.13427 53.9881L2.23532 54.0893C2.9724 54.5298 3.82837 54.75 4.69028 54.7203C6.91936 54.7203 13.0538 53.6131 21.7204 43.1429C25.9586 38.2798 27.5101 34.2262 26.4401 31.0358H26.4342ZM4.80916 52.2679C4.45251 52.2917 4.08991 52.2381 3.75109 52.1131L3.65004 52.0119C3.03779 51.6548 2.64547 51.0119 2.59197 50.3036C2.19966 47.8453 3.88781 40.8036 18.9564 21.3096C20.163 22.5179 21.9523 24.8393 20.4068 27.2977C20.1868 27.625 20.1512 28.0417 20.3057 28.4048C20.4603 28.7679 20.7872 29.0358 21.1736 29.1191C22.5348 29.5179 23.6345 30.5179 24.1694 31.8334C24.9006 34.1012 23.4859 37.4584 20.1155 41.5715C11.7223 51.4822 6.30116 52.2619 4.80322 52.2619L4.80916 52.2679ZM15.9129 13.881C16.6738 14.8572 17.6605 15.6369 18.7899 16.1488C21.5005 17.5536 24.532 18.2143 27.5755 18.0774H28.0035C30.934 18.125 33.8347 17.5477 36.5215 16.3691C37.9065 15.8691 39.1191 14.9822 40.0108 13.8096C40.8489 12.7143 41.3066 11.3691 41.3066 9.98813C41.3006 9.58933 41.2531 9.18456 41.1699 8.79171C40.3555 5.73218 37.5142 3.6548 34.3578 3.80956C33.704 3.80956 33.0501 3.9048 32.4141 4.08337C32.1763 4.13099 31.9504 4.21433 31.7305 4.32147C31.457 4.24409 31.2133 4.07742 31.0469 3.84528C30.7437 3.29171 30.9399 2.60123 31.4868 2.29171C32.0217 1.87504 32.1168 1.10123 31.6948 0.565517C31.3619 0.142898 30.7972 -0.0178163 30.292 0.17266C28.586 1.11314 27.9678 3.26195 28.9129 4.97028C28.9426 5.0179 28.9724 5.07147 29.0021 5.11909C29.3231 5.64885 29.7689 6.08933 30.2979 6.41671C29.9948 7.52385 29.9115 8.68456 30.0602 9.82742C30.2385 11.7619 30.8983 13.6191 31.9861 15.2322C30.6784 15.4524 29.3587 15.5655 28.0332 15.5715C26.6779 15.6012 25.3226 15.5238 23.9792 15.3512C25.0967 13.7322 25.7744 11.8512 25.9527 9.8929C26.1013 8.66671 25.9824 7.41671 25.5961 6.24409C26.0656 5.95837 26.4639 5.57147 26.773 5.11909C27.2664 4.29171 27.3912 3.29766 27.1118 2.37504C26.8681 1.44647 26.2618 0.654803 25.4237 0.17266C24.7817 -0.20234 23.9614 0.0119456 23.5869 0.64885C23.2362 1.24409 23.4383 2.00599 24.0268 2.35123C24.2764 2.51195 24.4667 2.75004 24.5558 3.03575C24.639 3.32147 24.6034 3.63099 24.4548 3.88695C24.324 4.08337 24.1397 4.23814 23.9257 4.32742C23.7355 4.21433 23.5156 4.14885 23.2956 4.13695C22.7131 3.97623 22.1127 3.8929 21.5064 3.88099C18.3382 3.69647 15.485 5.78575 14.6944 8.86314C14.5933 9.25599 14.5517 9.6548 14.5577 10.0596C14.5755 11.4405 15.0451 12.7798 15.9011 13.8631L15.9129 13.881ZM34.6431 14.3572C33.9774 14.3572 32.7172 12.2738 32.3784 9.5298C32.1882 7.6548 32.5686 6.59528 32.955 6.49409C33.3651 6.39885 33.7931 6.35123 34.2152 6.35718C36.1946 6.22028 38.0016 7.48218 38.5604 9.3929C38.6198 9.62504 38.6555 9.86909 38.6614 10.1072V10.5834C38.275 12.1548 37.1338 13.4346 35.612 13.9941C35.3208 14.1488 35.0117 14.2679 34.6907 14.3512H34.6372L34.6431 14.3572ZM21.5124 6.3929C21.9344 6.3929 22.3624 6.44647 22.7726 6.54766C23.1649 6.64885 23.5394 7.75599 23.3491 9.58337C23.0579 12.3274 21.7502 14.4108 21.0844 14.4108C20.7159 14.3274 20.3592 14.2143 20.0144 14.0715C19.4676 13.756 18.9504 13.3869 18.4808 12.9643C17.6665 12.2917 17.1612 11.3096 17.0839 10.25C17.0661 10.006 17.1018 9.76194 17.185 9.53575C17.6486 7.55956 19.4914 6.22623 21.5124 6.39885V6.3929ZM147.351 12.7203C135.772 12.7203 134.666 16.3334 134.666 21.5893V37.9465C134.666 43.3036 135.825 46.8155 147.351 46.8155C158.877 46.8155 160.006 43.25 160.006 37.9465V37.506C160.006 36.4107 159.121 35.5298 158.033 35.5298C158.033 35.5298 158.021 35.5298 158.015 35.5298C157.011 35.4465 156.131 36.1905 156.048 37.1965C156.048 37.2381 156.048 37.2798 156.042 37.3215V37.5417C156.042 41.6012 155.513 43.7143 147.357 43.7143C139.202 43.7143 138.572 41.5655 138.572 37.5417V30.9584H159.977V21.5953C160.012 16.3453 158.907 12.7262 147.357 12.7262L147.351 12.7203ZM156.054 27.5715H138.613V22.0298C138.613 17.9703 139.107 15.8036 147.351 15.8036C155.596 15.8036 156.054 17.9703 156.054 22.0298V27.5715ZM177.173 12.7203C165.576 12.7203 164.471 16.3334 164.471 21.5893V37.9465C164.471 43.3036 165.63 46.8155 177.173 46.8155C188.717 46.8155 189.829 43.25 189.829 37.9465V37.506C189.84 36.4227 188.967 35.5357 187.885 35.5298C187.873 35.5298 187.861 35.5298 187.849 35.5298C186.749 35.5179 185.852 36.4048 185.84 37.506C185.84 37.5179 185.84 37.5298 185.84 37.5417C185.84 41.6012 185.364 43.7143 177.155 43.7143C168.947 43.7143 168.417 41.5655 168.417 37.5417V30.9584H189.858V21.5953C189.858 16.3453 188.699 12.7262 177.173 12.7262V12.7203ZM185.858 27.5715H168.471V22.0298C168.471 17.9703 168.947 15.8036 177.209 15.8036C185.471 15.8036 185.893 17.9703 185.893 22.0298L185.858 27.5715ZM99.9878 13.2977C98.9238 13.2977 98.0559 14.1548 98.044 15.2262V15.4643C95.5594 13.5179 92.4565 12.5417 89.3061 12.7203C77.7624 12.7203 76.7043 16.3334 76.7043 21.5893V37.9465C76.7043 43.3036 77.9645 46.8155 89.3061 46.8155C92.4208 46.9286 95.488 45.9941 98.0084 44.1548V47.9762C98.0084 52.0179 97.5685 54.2024 89.3061 54.2024C82.0185 54.2024 80.9604 52.4941 80.788 49.2203C80.7048 48.1667 79.8132 47.3631 78.761 47.3929C77.7505 47.3155 76.8648 48.0774 76.7935 49.0953C76.7935 49.1369 76.7935 49.1786 76.7935 49.2203V49.5596C76.9837 54.2857 78.4995 57.3215 89.2942 57.3215C100.838 57.3215 101.949 53.756 101.949 48.4524V15.2262C101.908 14.1667 101.046 13.3274 99.9937 13.2977H99.9878ZM97.9608 37.5358C97.9608 41.5953 97.521 43.7084 89.2585 43.7084C80.9961 43.7084 80.6216 41.5596 80.6216 37.5358V22.1846C80.6216 18.1429 81.0496 16.0298 89.2585 16.0298C97.4675 16.0298 97.9608 18.1429 97.9608 22.1846V37.5358ZM219.217 21.6191V44.1965C219.116 45.2917 218.147 46.1012 217.047 46C216.09 45.9107 215.335 45.1548 215.246 44.1965V22.0238C215.246 17.9822 214.669 15.8155 206.561 15.8155C198.454 15.8155 197.913 17.9822 197.913 22.0238V44.1965C197.913 45.2917 197.027 46.1727 195.939 46.1727C194.845 46.1727 193.966 45.2857 193.966 44.1965V15.0715C194.019 14.0774 194.869 13.3096 195.862 13.3631C195.886 13.3631 195.915 13.3631 195.939 13.3631C197.033 13.375 197.913 14.2619 197.913 15.3572V15.4941C200.421 13.625 203.494 12.6727 206.615 12.7977C217.909 12.7143 219.217 16.2738 219.217 21.5774V21.6131V21.6191ZM248.171 7.39885V44.2322C248.171 45.3274 247.285 46.2084 246.197 46.2084C245.11 46.2084 244.224 45.3215 244.224 44.2322V7.36314C244.212 6.2798 245.086 5.3929 246.168 5.38695C246.18 5.38695 246.192 5.38695 246.203 5.38695C247.267 5.42861 248.117 6.29766 248.147 7.36314L248.183 7.39885H248.171ZM277.648 15.3631V48.4465C277.648 53.75 276.59 57.3155 265.011 57.3155C254.383 57.3155 252.784 54.2798 252.546 49.6607V49.4703C252.546 48.3512 253.455 47.4405 254.573 47.4405C255.69 47.4405 256.6 48.3512 256.6 49.4703V49.5536C256.802 52.5893 257.997 54.1905 265.118 54.1905C273.38 54.1905 273.82 52.006 273.82 47.9643V44.1429C271.312 46 268.239 46.9405 265.118 46.8036C253.675 46.8036 252.516 43.2917 252.516 37.9346V15.3631C252.504 14.2798 253.378 13.3929 254.46 13.3869C254.478 13.3869 254.496 13.3869 254.513 13.3869C255.536 13.3393 256.41 14.131 256.457 15.1548C256.457 15.2262 256.457 15.2977 256.457 15.3631V37.5358C256.457 41.5953 256.885 43.7084 265.094 43.7084C273.303 43.7084 273.796 41.5953 273.796 37.5358V15.3631C273.785 14.2798 274.658 13.3929 275.74 13.3869C275.752 13.3869 275.764 13.3869 275.776 13.3869C276.822 13.3869 277.666 14.2322 277.666 15.2798C277.666 15.3096 277.666 15.3393 277.666 15.3691L277.648 15.3631ZM239.944 18.7738C239.944 19.6786 239.243 20.4227 238.345 20.4822H227.443V44.256C227.545 45.3512 226.742 46.3274 225.642 46.4286C224.549 46.5298 223.574 45.7262 223.473 44.625C223.461 44.5 223.461 44.381 223.473 44.256V13.881C223.473 8.57742 224.341 5.35123 233.233 5.35123H238.345C239.219 5.23218 240.027 5.84528 240.146 6.72028C240.265 7.59528 239.653 8.4048 238.779 8.52385C238.678 8.53575 238.577 8.54171 238.482 8.53575H233.37C228.109 8.53575 227.58 10.2441 227.58 14.3691V16.9108H238.482C239.356 17.0179 240.004 17.7679 239.98 18.6488L239.944 18.7679V18.7738ZM128.532 30.8453C127.509 30.9227 126.618 30.1608 126.541 29.1369V22.1429C126.541 18.1012 125.875 15.9346 118.332 15.9346C110.788 15.9346 110.176 18.1012 110.176 22.1429V44.3155C110.117 45.3691 109.255 46.2024 108.203 46.2262C107.121 46.2381 106.235 45.3631 106.229 44.2798C106.229 44.2679 106.229 44.256 106.229 44.2441V15.0715C106.283 14.0774 107.133 13.3096 108.125 13.3631C108.149 13.3631 108.179 13.3631 108.203 13.3631C109.005 13.3512 109.736 13.8334 110.039 14.5715C110.075 14.8691 110.075 15.1727 110.039 15.4762C112.423 13.7322 115.294 12.7917 118.248 12.7798C128.978 12.7798 130.422 16.3453 130.422 21.6488V29C130.452 29.9881 129.673 30.8155 128.686 30.8453C128.633 30.8453 128.579 30.8453 128.532 30.8453Z" fill="#B6F500"></path>
<path d="M290 17.2798C290 19.7322 288.074 21.6607 285.577 21.6607C283.081 21.6607 281.125 19.7381 281.125 17.2798C281.125 14.8214 283.098 12.9524 285.577 12.9524C288.056 12.9524 290 14.875 290 17.2798ZM282.231 17.2798C282.231 19.2024 283.651 20.7322 285.601 20.7322C287.551 20.7322 288.894 19.2024 288.894 17.3036C288.894 15.4048 287.497 13.8214 285.577 13.8214C283.657 13.8214 282.231 15.375 282.231 17.2798ZM284.894 19.5476H283.895V15.2202C284.287 15.1429 284.846 15.0893 285.553 15.0893C286.368 15.0893 286.736 15.2202 287.057 15.4048C287.295 15.5893 287.479 15.9345 287.479 16.3572C287.479 16.8333 287.111 17.2024 286.582 17.3572V17.4107C287.004 17.5714 287.242 17.8869 287.372 18.4643C287.503 19.125 287.58 19.3869 287.687 19.5476H286.606C286.475 19.3869 286.392 18.9941 286.261 18.4941C286.184 18.0179 285.916 17.8095 285.363 17.8095H284.888V19.5476H284.894ZM284.917 17.0952H285.393C285.946 17.0952 286.392 16.9107 286.392 16.4643C286.392 16.0714 286.1 15.8036 285.47 15.8036C285.209 15.8036 285.024 15.8274 284.917 15.8572V17.0952Z" fill="#B6F500"></path>
</g>
<defs>
<clipPath id="clip0_125_694">
<rect width="290" height="58" fill="white"></rect>
</clipPath>
</defs>
</svg>