<svg width="94" height="102" viewBox="0 0 94 102" fill="none" xmlns="http://www.w3.org/2000/svg">
<g clip-path="url(#clip0_2_44)">
<mask id="mask0_2_44" style="mask-type:luminance" maskUnits="userSpaceOnUse" x="0" y="0" width="94" height="102">
<path d="M93.9903 0H0V102H93.9903V0Z" fill="white"/>
</mask>
<g mask="url(#mask0_2_44)">
<path d="M41.8411 63.1743C41.8411 71.1221 41.0199 75.3389 24.7318 75.3389C8.44358 75.3389 7.73834 71.1318 7.73834 63.1743V33.0057C7.73834 25.0579 8.55951 20.9577 24.7318 20.9577C40.904 20.9577 41.8411 25.1648 41.8411 33.0057V63.1743ZM45.947 15.5847C43.8409 15.5847 42.0826 17.2267 42.0826 19.3254V19.7918C37.1556 15.9345 31.0693 14.0593 24.8573 14.409C2.10606 14.409 0 21.5504 0 31.8398V64.0002C0 74.5228 2.46351 81.4212 24.8477 81.4212C30.9437 81.6544 37.0397 79.7792 41.957 76.1551V83.6365C41.957 91.5843 41.1359 95.9177 24.8477 95.9177C8.55951 95.9177 8.43392 92.5268 8.08613 86.0947C7.97019 83.9863 6.21192 82.4706 4.10586 82.4706C2.11572 82.354 0.357451 83.8697 0.241521 85.8615V86.7943C0.589311 96.0343 3.64214 102 24.8573 102C46.0726 102 49.821 94.985 49.821 84.579V19.3254C49.821 17.217 48.0627 15.5847 45.9566 15.5847" fill="black"/>
<path d="M93.4976 26.3404C93.4976 28.0991 92.0871 29.6148 90.3288 29.7314H68.8818V76.3883C69.1136 78.4967 67.4713 80.4788 65.3652 80.5953C63.2592 80.8285 61.2594 79.1865 61.1434 77.0878V16.7506C61.1434 6.34463 62.9017 0.0291445 80.3685 0.0291445H90.4448C92.203 -0.204043 93.7295 0.961894 93.9613 2.72051C94.1932 4.47914 93.0242 5.99485 91.2659 6.22804H80.6004C70.1667 6.22804 69.2296 9.61897 69.2296 17.6834V22.7163H90.6766C92.4349 22.9495 93.7198 24.3486 93.6039 26.1073V26.3404H93.4879H93.4976Z" fill="black"/>
</g>
</g>
<defs>
<clipPath id="clip0_2_44">
<rect width="94" height="102" fill="white"/>
</clipPath>
</defs>
</svg>
